<svg xmlns="http://www.w3.org/2000/svg" viewBox="0 0 110 110"><rect width="110" height="110" fill="none"/><path d="M18.55,51.1a.21.21,0,0,1-.2-.21.22.22,0,0,1,.08-.15l.3-.23a4.47,4.47,0,0,0,.6-.63.2.2,0,0,1,.28,0,.21.21,0,0,1,0,.25,4.57,4.57,0,0,1-.68.71l-.3.23A.25.25,0,0,1,18.55,51.1Z" transform="translate(-0.02 -0.16)"/><path d="M18.05,50.53a.21.21,0,0,1-.2-.21.21.21,0,0,1,.1-.17l.34-.17a4.38,4.38,0,0,0,.7-.52.2.2,0,0,1,.28,0,.21.21,0,0,1,0,.25,4.85,4.85,0,0,1-.79.58l-.34.18Z" transform="translate(-0.02 -0.16)"/><path d="M6.64,44.36a7.15,7.15,0,0,0-6.28,6.7.32.32,0,0,0,.16.31L3.39,53a.33.33,0,0,1,.16.3,58.41,58.41,0,0,1-.62,7.6c-.34,1.52-.58,2.76-.69,3.38a.34.34,0,0,0,.27.39H2.6a17,17,0,0,0,3-.5c1.15-.35,1.66-1,4.44.13a2.16,2.16,0,0,0,1.81-.09c1.52-.81,4.69-2.24,6.88-1.52a.33.33,0,0,0,.42-.21.36.36,0,0,0,0-.18,44.65,44.65,0,0,1-1.06-5.65c-.09-1.82,1-7.89.47-8.52a10.41,10.41,0,0,0-3.89-2.38c-.5-.14-1-.15-1.46-.25C12.16,45.25,9.19,44,6.64,44.36Z" transform="translate(-0.02 -0.16)" fill="#5479f7"/><path d="M1.74,58c.86,1.27,1.84,1.67,4,1.12s6.7-3.81,9-6.92a.56.56,0,0,1,.59-.23c.44,0,2.25.75,3.6-.44s1-2,1-2.2-2.12.08-2.67-.17-.53-.61-.12-1.17-.6-.81-1.43.36a6.84,6.84,0,0,1-2.11,2c-.78.4-8.8,3.29-9.22,3.16s-3-1.7-3-1.7S.82,56.56,1.74,58Z" transform="translate(-0.02 -0.16)" fill="#fff"/><path d="M4.12,59.51a2.81,2.81,0,0,1-2.54-1.45c-1-1.43-.53-6.09-.52-6.28l0-.32.27.16c1,.62,2.64,1.57,3,1.68a87.87,87.87,0,0,0,9.09-3.14,6.76,6.76,0,0,0,2-2,1.87,1.87,0,0,1,1.48-1,.44.44,0,0,1,.39.25.55.55,0,0,1-.13.57c-.2.28-.28.48-.25.62s.13.18.3.26a5,5,0,0,0,1.39,0c.88,0,1.28,0,1.38.22s.33,1.25-1,2.43a3.69,3.69,0,0,1-3.47.54c-.12,0-.22-.05-.28-.05a.39.39,0,0,0-.4.13v0c-2.23,3.08-6.85,6.42-9.06,7A6.67,6.67,0,0,1,4.12,59.51ZM1.43,52.13c-.07,1.08-.26,4.6.48,5.71h0c.75,1.11,1.57,1.6,3.77,1s6.64-3.82,8.83-6.84a.78.78,0,0,1,.79-.32l.31.07a3.4,3.4,0,0,0,3.13-.46c1.08-1,1-1.65.92-1.94a5,5,0,0,0-1,0,4.55,4.55,0,0,1-1.56-.09.86.86,0,0,1-.52-.52,1.18,1.18,0,0,1,.31-1c.08-.11.09-.17.08-.18a.27.27,0,0,0-.13,0,1.75,1.75,0,0,0-1.05.79,7.19,7.19,0,0,1-2.18,2.11c-.49.25-8.8,3.34-9.37,3.16a29.31,29.31,0,0,1-2.79-1.55Z" transform="translate(-0.02 -0.16)"/><path d="M18.44,51.78l0,.29-.18,1.65a12.17,12.17,0,0,0,0,2.63,1.87,1.87,0,0,0,.62,1.29,2.2,2.2,0,0,0,.92.54c1.2.44,1.73.3,2.17-.94s.28-2-.75-5.89A1.13,1.13,0,0,1,21.67,50c.71-.46.47-1.58-.18-2.43C20.44,46.26,18.25,51.61,18.44,51.78Z" transform="translate(-0.02 -0.16)" fill="#fff"/><path d="M20.73,58.61a3,3,0,0,1-1.07-.25h0a2.52,2.52,0,0,1-1-.57A2.11,2.11,0,0,1,18,56.36a12.55,12.55,0,0,1,0-2.67l.2-1.88a1,1,0,0,1,.07-.45c.24-.79,1.55-4,2.67-4.16a.68.68,0,0,1,.67.29,2.66,2.66,0,0,1,.63,1.93,1.13,1.13,0,0,1-.5.79.92.92,0,0,0-.44,1.07v0c1,3.92,1.19,4.72.74,6a1.87,1.87,0,0,1-.85,1.2A1.25,1.25,0,0,1,20.73,58.61Zm-2.1-6.92v0l-.22,2a12.45,12.45,0,0,0,0,2.59v0a1.7,1.7,0,0,0,.55,1.14,2.19,2.19,0,0,0,.84.5h0a1.75,1.75,0,0,0,1.27.15c.25-.12.45-.42.64-1,.42-1.19.29-1.9-.75-5.76a1.34,1.34,0,0,1,.6-1.53.7.7,0,0,0,.33-.53,2.24,2.24,0,0,0-.55-1.62.27.27,0,0,0-.34-.12c-.91.32-2.28,3.51-2.36,4.08Z" transform="translate(-0.02 -0.16)"/><path d="M19.16,49.25s-1.78.19-2.33-.24c-.4-.32.36-1.28.41-1.36.49-.63,1.6-2.11,1.78-2.32s.44-.64.81-.61,2.47.38,2.62.44c.32.15.19.59,0,.83l-3.25,3.26Z" transform="translate(-0.02 -0.16)"/><path d="M4.38,64S2.67,78.24,2.46,81a132,132,0,0,0,0,17.11c.34,3.08.58,5.14.7,6.21a1,1,0,0,0,1,.87H7.63a.32.32,0,0,0,.32-.32,65.3,65.3,0,0,1,1-10.35c.95-4.86,2-12.47,2.53-15.53.18-1,.33-2.16.45-3.27l.4,1.16c.4,1.16,1.9,9,2.33,12,.38,2.79,1,14,1.14,16a.33.33,0,0,0,.33.31h4.47a.33.33,0,0,0,.32-.29c.21-2.08,1.43-14.59,1.24-20.2-.21-6.13-3-13.42-3.49-15.43s-1.23-7.1-1.23-7.1S6.67,62.33,4.38,64Z" transform="translate(-0.02 -0.16)"/><path d="M11.9,75.87h0a.2.2,0,0,1-.17-.22c.07-.63.14-1.31.2-2a3.73,3.73,0,0,1,2.4-3.12l.77-.28a.19.19,0,0,1,.24.14.2.2,0,0,1-.1.23l-.77.29a3.3,3.3,0,0,0-2.14,2.78c-.07.7-.14,1.38-.21,2A.19.19,0,0,1,11.9,75.87Z" transform="translate(-0.02 -0.16)" fill="#5479f7"/><path d="M19.57,105.18H16.72a.5.5,0,0,0-.46.31,8.5,8.5,0,0,0-.7,3.41.69.69,0,0,0,.7.66h8.35a.6.6,0,0,0,.61-.6.53.53,0,0,0,0-.13,2.44,2.44,0,0,0-1.32-1.57c-1.49-.87-3.35-1.73-3.94-2A1,1,0,0,0,19.57,105.18Z" transform="translate(-0.02 -0.16)" fill="#fff"/><path d="M24.61,109.76H16.26a.89.89,0,0,1-.9-.85,8.9,8.9,0,0,1,.71-3.5.7.7,0,0,1,.65-.43h2.84a1.07,1.07,0,0,1,.47.1c.55.25,2.45,1.13,4,2a2.64,2.64,0,0,1,1.42,1.71.82.82,0,0,1-.64.95h-.16Zm-7.9-4.38a.28.28,0,0,0-.27.18,8.67,8.67,0,0,0-.69,3.33.51.51,0,0,0,.5.47h8.36a.41.41,0,0,0,.32-.15.38.38,0,0,0,.08-.34,2.29,2.29,0,0,0-1.23-1.44c-1.48-.86-3.37-1.74-3.92-2a.73.73,0,0,0-.3-.06Z" transform="translate(-0.02 -0.16)"/><path d="M20,107.25a.2.2,0,0,1-.2-.2.17.17,0,0,1,.06-.14l1.2-1.18a.2.2,0,0,1,.28.28l-1.2,1.18A.25.25,0,0,1,20,107.25Z" transform="translate(-0.02 -0.16)"/><path d="M20.72,107.73a.19.19,0,0,1-.19-.2.24.24,0,0,1,0-.14l1.2-1.18a.2.2,0,0,1,.28,0,.2.2,0,0,1,0,.28l0,0-1.2,1.17A.18.18,0,0,1,20.72,107.73Z" transform="translate(-0.02 -0.16)"/><path d="M7,105.18H4.15a.5.5,0,0,0-.46.31A8.67,8.67,0,0,0,3,108.9a.7.7,0,0,0,.7.66h8.36a.61.61,0,0,0,.62-.6.51.51,0,0,0,0-.13,2.41,2.41,0,0,0-1.32-1.57c-1.48-.87-3.35-1.73-3.94-2A1,1,0,0,0,7,105.18Z" transform="translate(-0.02 -0.16)" fill="#fff"/><path d="M12.05,109.76H3.69a.91.91,0,0,1-.9-.85,8.74,8.74,0,0,1,.72-3.5.69.69,0,0,1,.64-.43H7a1.1,1.1,0,0,1,.47.1c.55.25,2.45,1.13,4,2a2.63,2.63,0,0,1,1.42,1.7.81.81,0,0,1-.63,1h-.16Zm-7.9-4.38a.31.31,0,0,0-.28.18,8.44,8.44,0,0,0-.68,3.33.5.5,0,0,0,.5.47H12a.41.41,0,0,0,.33-.15.45.45,0,0,0,.08-.34,2.32,2.32,0,0,0-1.23-1.44c-1.49-.87-3.38-1.74-3.92-2a.77.77,0,0,0-.3-.06Z" transform="translate(-0.02 -0.16)"/><path d="M7.07,107.14a.2.2,0,0,1-.2-.2.2.2,0,0,1,.06-.14l1.2-1.18a.2.2,0,0,1,.28,0,.21.21,0,0,1,0,.25l-1.2,1.18A.24.24,0,0,1,7.07,107.14Z" transform="translate(-0.02 -0.16)"/><path d="M7.84,107.63a.21.21,0,0,1-.2-.21.16.16,0,0,1,.06-.13l1.2-1.18a.2.2,0,0,1,.28.28L8,107.57A.2.2,0,0,1,7.84,107.63Z" transform="translate(-0.02 -0.16)"/><path d="M10.28,37.32l.2.08a1,1,0,0,1,.3.36c.14.27.38,1.09.7,1s.7-1.33.7-1.33.12-.62,1.08-.38a7.59,7.59,0,0,1,2,.82,1.38,1.38,0,0,0,.84.19,1.38,1.38,0,0,0,1.06-1.47,1.84,1.84,0,0,0-1.71-1.49,5.78,5.78,0,0,1-2-.58c-.19-.1-1.32-.56-1.94-.21A2.61,2.61,0,0,0,10.23,36a2.56,2.56,0,0,0,0,1.2C10.21,37.24,10.22,37.3,10.28,37.32Z" transform="translate(-0.02 -0.16)"/><path d="M15.38,38s0,0,0,0a6.29,6.29,0,0,0,0,1.3,4.28,4.28,0,0,1,.17,1.19c-.09.15-.39.16-.53.15a.47.47,0,0,0-.43.16c-.06.12-.23,1.2-.3,1.46a.67.67,0,0,1-.73.51l-.35-.07a.16.16,0,0,0-.19.11v0c-.2,1.32,1.13,2.8,1.45,3.14a.09.09,0,0,1,0,.1h0c-2.95,1.29-6-.94-6.81-1.63A4.23,4.23,0,0,0,10,42.22a7.55,7.55,0,0,0,.23-2.55.23.23,0,0,0-.14-.23,1.27,1.27,0,0,1-.57-.7c-.12-.44-.08-1.82,1.07-1.26a1,1,0,0,1,.3.36c.14.26.38,1.08.7,1s.7-1.32.7-1.32.12-.63,1.08-.39A10.41,10.41,0,0,1,15.38,38Z" transform="translate(-0.02 -0.16)" fill="#fff"/><path d="M12.58,46.73a8.58,8.58,0,0,1-5-2.07l-.08-.07v-.11c0-.12.1-.15.2-.2a3.87,3.87,0,0,0,2.12-2.14A5.63,5.63,0,0,0,10,40.06c0-.16,0-.29,0-.39a.05.05,0,0,0,0-.05,1.4,1.4,0,0,1-.68-.83,1.6,1.6,0,0,1,.31-1.47.92.92,0,0,1,1,0h0a1.16,1.16,0,0,1,.38.44c0,.07.08.17.12.28s.25.59.37.65a3.49,3.49,0,0,0,.53-1.18.77.77,0,0,1,.33-.44,1.21,1.21,0,0,1,1-.08,9.48,9.48,0,0,1,2.06.84h0a.28.28,0,0,1,.13.24,5.79,5.79,0,0,0,.05,1.25c0,.08,0,.18.05.29.13.58.17.87.09,1s-.63.26-.72.26a.42.42,0,0,0-.24,0c0,.1-.1.48-.15.74a6.35,6.35,0,0,1-.14.68.86.86,0,0,1-.94.66L13.28,43c-.15,1.18,1,2.54,1.4,2.93a.27.27,0,0,1,0,.38l-.08.05A4.93,4.93,0,0,1,12.58,46.73ZM8.06,44.55c1,.8,3.63,2.47,6.2,1.47-.5-.56-1.56-1.92-1.37-3.17a.37.37,0,0,1,.42-.3h0l.32.06a.48.48,0,0,0,.52-.36c0-.1.08-.38.13-.65a5,5,0,0,1,.19-.85.68.68,0,0,1,.62-.27.73.73,0,0,0,.33,0,4.64,4.64,0,0,0-.12-.76c0-.12,0-.23-.06-.3a6.65,6.65,0,0,1-.06-1.26,8.81,8.81,0,0,0-1.88-.76.91.91,0,0,0-.67,0,.39.39,0,0,0-.17.21v0c-.19.63-.5,1.4-.85,1.46s-.62-.47-.79-.89l-.11-.25a1,1,0,0,0-.23-.28c-.27-.13-.47-.14-.59,0a1.27,1.27,0,0,0-.19,1.07,1.12,1.12,0,0,0,.46.57.42.42,0,0,1,.26.41v.38a5.86,5.86,0,0,1-.25,2.24A4.26,4.26,0,0,1,8.06,44.55Zm7.22-6.38Z" transform="translate(-0.02 -0.16)"/><path d="M13.2,42.93h-.06a7,7,0,0,1-1.5-.69.22.22,0,0,1,0-.29.2.2,0,0,1,.24,0,6.14,6.14,0,0,0,1.4.65.2.2,0,0,1,.13.25.2.2,0,0,1-.18.14Z" transform="translate(-0.02 -0.16)"/><path d="M45,69.31V72.2a7.39,7.39,0,0,0,7.27,7.49h0a7.38,7.38,0,0,1,7.27,7.49h0a.67.67,0,0,1-.66.67H39.65a11.06,11.06,0,0,1-10.9-11.23V68.93a4.39,4.39,0,0,1,4.33-4.46h7.23A4.76,4.76,0,0,1,45,69.31Z" transform="translate(-0.02 -0.16)" fill="#5479f7"/><rect x="45.02" y="87.04" width="2.03" height="21.95" fill="#5479f7"/><path d="M55.55,108.83l-9-.79h-.82l-9.15.79v.8H55.55Z" transform="translate(-0.02 -0.16)" fill="#5479f7"/><path d="M42.8,88.23l-2.75,1.85,1.39,1.65,3.16-1.55Z" transform="translate(-0.02 -0.16)" fill="#fff"/><path d="M41.44,91.93a.21.21,0,0,1-.15-.07L39.9,90.21a.22.22,0,0,1,0-.29h0l2.74-1.84a.21.21,0,0,1,.26,0L44.75,90a.22.22,0,0,1,0,.29l-.05,0-3.16,1.55Zm-1.1-1.81,1.15,1.36,2.78-1.36-1.51-1.63Z" transform="translate(-0.02 -0.16)"/><path d="M40.52,89.25a18.39,18.39,0,0,0-1.79,1.24,1,1,0,0,0-.21,1.31,39.53,39.53,0,0,0,4.56,5.76.69.69,0,0,0,.86.07c1.43-.78-.1-3.21-1.12-6.34l-.73-.08a1,1,0,0,1-.83-.7l-.33-1.11a.27.27,0,0,0-.34-.18A.11.11,0,0,0,40.52,89.25Z" transform="translate(-0.02 -0.16)" fill="#5479f7"/><path d="M43.54,97.94a.86.86,0,0,1-.6-.25,39.37,39.37,0,0,1-4.59-5.78,1.2,1.2,0,0,1,.26-1.57,17.22,17.22,0,0,1,1.81-1.26h0a.46.46,0,0,1,.65.16.37.37,0,0,1,0,.11l.33,1.11a.8.8,0,0,0,.66.56l.86.1,0,.12c.26.77.55,1.53.81,2.19.81,2.07,1.45,3.71.22,4.38A1.06,1.06,0,0,1,43.54,97.94Zm-2.91-8.52a16.58,16.58,0,0,0-1.78,1.23.79.79,0,0,0-.16,1,38,38,0,0,0,4.53,5.72.51.51,0,0,0,.63,0c.88-.48.44-1.73-.4-3.89-.25-.64-.53-1.35-.77-2.09l-.61-.07a1.17,1.17,0,0,1-1-.84l-.33-1.11a.07.07,0,0,0,0,0,.08.08,0,0,0-.07,0Z" transform="translate(-0.02 -0.16)"/><path d="M38.82,90.42l-.09.07a1,1,0,0,0-.21,1.31,38.92,38.92,0,0,0,4.56,5.75.7.7,0,0,0,.86.08,2,2,0,0,0,.32-.25l-.13-.14A56.21,56.21,0,0,1,39,90.73Z" transform="translate(-0.02 -0.16)" fill="#fff"/><path d="M43.54,97.94a.86.86,0,0,1-.6-.25,39.45,39.45,0,0,1-4.59-5.79,1.19,1.19,0,0,1,.26-1.56l.1-.08a.2.2,0,0,1,.15,0,.22.22,0,0,1,.14.09l.2.31a57.83,57.83,0,0,0,5.08,6.49l.13.14a.19.19,0,0,1,0,.28,3,3,0,0,1-.35.27A1,1,0,0,1,43.54,97.94Zm-4.76-7.23a.8.8,0,0,0-.09,1,38.48,38.48,0,0,0,4.53,5.72.5.5,0,0,0,.63,0l.13-.08a56.51,56.51,0,0,1-5.11-6.53Z" transform="translate(-0.02 -0.16)"/><path d="M43.32,93.29h0l-1.4-.11a.2.2,0,1,1,0-.4h0l1.4.11a.19.19,0,0,1,.19.2A.21.21,0,0,1,43.32,93.29Z" transform="translate(-0.02 -0.16)"/><path d="M42.43,94.25a.19.19,0,0,1-.2-.2.2.2,0,0,1,.2-.2h1.36a.2.2,0,0,1,.2.2.19.19,0,0,1-.2.2Z" transform="translate(-0.02 -0.16)"/><path d="M62.39,76.12c1.12,0,5,.64,5.06,4.14,0,1.19,1,3.39-6.16,4.79A61.2,61.2,0,0,0,45,90.72a.85.85,0,0,1-.68.07c-.71-.22-2.22-.83-2.41-2.13a.81.81,0,0,1,.32-.75L44,86.63l-1.66-.89A8.51,8.51,0,0,1,38.23,81a29,29,0,0,1-.91-5Z" transform="translate(-0.02 -0.16)"/><path d="M93.84,109.59,86.61,84.53l-7.23,25.06H77.65l7.94-28.27h2l7.94,28.27Z" transform="translate(-0.02 -0.16)" fill="#fff"/><path d="M63.66,103.25h0a8,8,0,0,1,.2,3.15l4.1-.68a3.48,3.48,0,0,1-2.1-2.26l-.23-.8Z" transform="translate(-0.02 -0.16)" fill="#fff"/><path d="M63.87,106.6a.2.2,0,0,1-.2-.2v0a8,8,0,0,0-.2-3.08.2.2,0,0,1,.13-.24l2-.59a.2.2,0,0,1,.24.13l.24.8a3.3,3.3,0,0,0,2,2.14.2.2,0,0,1,.11.26.23.23,0,0,1-.15.12l-4.1.68Zm0-3.21a8.35,8.35,0,0,1,.2,2.77l3.22-.53a3.74,3.74,0,0,1-1.64-2.12l-.17-.6Z" transform="translate(-0.02 -0.16)"/><path d="M63.72,105.08c-.14.52-.4,2-.52,2.82a1.09,1.09,0,0,0,.82,1.18c1.5.37,5,.28,8,.35a.77.77,0,0,0,.74-.59c.53-1.69-2.67-2.13-5.81-3.8a3.52,3.52,0,0,1-.45.3,1.89,1.89,0,0,1-1.64,0l-.72-.41a.3.3,0,0,0-.4.12A.11.11,0,0,0,63.72,105.08Z" transform="translate(-0.02 -0.16)" fill="#5479f7"/><path d="M72.05,109.63h0c-.76,0-1.57,0-2.35,0a32.08,32.08,0,0,1-5.71-.33,1.27,1.27,0,0,1-1-1.4c.1-.86.38-2.31.51-2.84a.52.52,0,0,1,.62-.35l.11,0,.72.41a1.65,1.65,0,0,0,1.44,0,3,3,0,0,0,.42-.27l.1-.09.12.06c.91.47,1.85.89,2.81,1.27,2,.8,3.51,1.42,3.09,2.76A1,1,0,0,1,72.05,109.63Zm-8-4.57h0a.09.09,0,0,0-.06.06h0c-.14.52-.4,2-.51,2.8a.88.88,0,0,0,.67,1,33,33,0,0,0,5.62.31c.78,0,1.59,0,2.35,0a.57.57,0,0,0,.53-.45c.3-1-.83-1.46-2.85-2.28-.84-.34-1.79-.73-2.74-1.22l-.38.23a2.07,2.07,0,0,1-1.83,0l-.72-.41Zm-.28,0Z" transform="translate(-0.02 -0.16)"/><path d="M63.12,108.3v0c-.07.54.46.86,1,1.08,1.51.67,7.62.12,7.62.12s.82,0,1-.48a.86.86,0,0,0,.05-.27.93.93,0,0,0,0-.29l-.06-.22a23.51,23.51,0,0,1-7.3.24,5.41,5.41,0,0,1-2.18-.82S63.18,108,63.12,108.3Z" transform="translate(-0.02 -0.16)" fill="#fff"/><path d="M67.21,109.94a10,10,0,0,1-3.22-.35c-.32-.14-1.17-.51-1.07-1.29a.08.08,0,0,1,0,0l.1-.61a.21.21,0,0,1,.24-.15h0l.26.14a4.73,4.73,0,0,0,1.86.67,23.52,23.52,0,0,0,7.2-.24.19.19,0,0,1,.25.12v0l.06.22a1,1,0,0,1,0,.35,1.28,1.28,0,0,1-.07.34c-.26.57-1.1.6-1.21.6S69.27,109.94,67.21,109.94ZM63.38,108q0,.15-.06.33h0v0c0,.33.21.6.84.88,1.44.64,7.46.11,7.52.1h0c.19,0,.72-.06.86-.37a1.18,1.18,0,0,0,0-.2.86.86,0,0,0,0-.23h0a25.41,25.41,0,0,1-7.18.19,5.11,5.11,0,0,1-2-.72Zm-.26.3Z" transform="translate(-0.02 -0.16)"/><path d="M67.3,106.63a.19.19,0,0,1-.19-.2.24.24,0,0,1,.07-.16l.88-.7a.21.21,0,0,1,.28.07.2.2,0,0,1,0,.25l-.88.7A.28.28,0,0,1,67.3,106.63Z" transform="translate(-0.02 -0.16)"/><path d="M68.5,107.09a.19.19,0,0,1-.19-.2.17.17,0,0,1,.07-.15l.77-.6a.21.21,0,0,1,.28.06.21.21,0,0,1,0,.25l-.78.6A.16.16,0,0,1,68.5,107.09Z" transform="translate(-0.02 -0.16)"/><path d="M55,81.58a18.07,18.07,0,0,1,5.45,2.3c2,1.4,4.14,4.06,6.07,18a1.64,1.64,0,0,1-1.22,1.74,2.46,2.46,0,0,1-2.06-.31c-1.12-.73-5.34-11.47-7.86-13.76s-13.14-2.76-15.19-5.67,3-2.9,3-2.9Z" transform="translate(-0.02 -0.16)"/><path d="M49.24,89.07a.21.21,0,0,1-.19-.21.18.18,0,0,1,.11-.17l.59-.29a25.93,25.93,0,0,1,8.69-2.82.22.22,0,0,1,.22.19.23.23,0,0,1-.15.21,25.26,25.26,0,0,0-8.58,2.77l-.6.3Z" transform="translate(-0.02 -0.16)" fill="#caddff"/><path d="M77.55,78.81H57.09a.35.35,0,0,1-.35-.34h0v-.8H77.9v.8a.34.34,0,0,1-.34.34Z" transform="translate(-0.02 -0.16)" fill="#99b9ff"/><path d="M77.13,79H57.5a1,1,0,0,1-1-1v-.38a.2.2,0,0,1,.2-.2H77.9a.2.2,0,0,1,.2.2v.38a1,1,0,0,1-1,1Zm-20.2-1.14v.18a.57.57,0,0,0,.57.56H77.13a.56.56,0,0,0,.57-.56h0v-.18Z" transform="translate(-0.02 -0.16)"/><path d="M77.9,77.69H65.79l3.59-10.57a1.25,1.25,0,0,1,1.06-.57H80.67a.62.62,0,0,1,.65.62.58.58,0,0,1,0,.23C81.23,67.56,77.9,77.69,77.9,77.69Z" transform="translate(-0.02 -0.16)" fill="#99b9ff"/><path d="M77.9,77.89H65.79a.21.21,0,0,1-.16-.08.19.19,0,0,1,0-.18l3.59-10.57s0,0,0,0a1.47,1.47,0,0,1,1.23-.66H80.67a.84.84,0,0,1,.7.36.83.83,0,0,1,.1.76c-.06.16-2.24,6.8-3.38,10.28A.2.2,0,0,1,77.9,77.89Zm-11.83-.4H77.76c.41-1.26,3.28-10,3.34-10.16a.42.42,0,0,0,0-.39.46.46,0,0,0-.38-.2H70.44a1,1,0,0,0-.88.47Z" transform="translate(-0.02 -0.16)"/><path d="M77.13,76.7h-10l3.07-9.14,9.93,0Z" transform="translate(-0.02 -0.16)" fill="#5479f7"/><path d="M32.86,63.25a5.46,5.46,0,0,1,3-2.35,7.16,7.16,0,0,1,2.37-.49l2.87-.12a15.67,15.67,0,0,1,3.75.22,7.74,7.74,0,0,1,4.69,2.82c.54.66,1,1.24,1,1.25,1.55,2.18,1.76,2.57,2.88,3.38,1.87,1.37,5.15.25,5.15.25a1.52,1.52,0,0,1,1.68,1.11,2,2,0,0,1-.2,1.64,1.21,1.21,0,0,1-.64.6c-1.4.58-6.19,2.37-8.38,1.12-1.82-1-3-3.2-4-4.27a.14.14,0,0,0-.21,0,.15.15,0,0,0,0,.13c.21,2.39,2.17,5.23,2.77,6a.67.67,0,0,0,.45.26l4.32.49a.44.44,0,0,1,.19.07,1,1,0,0,1,.51.76,4.4,4.4,0,0,1-.13,1.77l-.15.3a.73.73,0,0,1-.62.39c-2.3,0-12.65,0-15.46,0-2.58,0-3.6-1.28-5-4.88C33.17,72.32,31.45,66.37,32.86,63.25Z" transform="translate(-0.02 -0.16)" fill="#fff"/><path d="M43.92,78.85H38.69c-2.79,0-3.85-1.56-5.16-5-.55-1.44-2.3-7.46-.85-10.66h0a5.62,5.62,0,0,1,3.14-2.46,7.52,7.52,0,0,1,2.43-.5l2.87-.11a15.61,15.61,0,0,1,3.8.22,8,8,0,0,1,4.81,2.89c.71.88.93,1.13,1,1.2h0l0,.06.44.62a8.81,8.81,0,0,0,2.4,2.72c1.77,1.28,4.93.23,5,.22h0a1.72,1.72,0,0,1,1.9,1.23,2.26,2.26,0,0,1-.21,1.81,1.47,1.47,0,0,1-.75.7c-1.43.58-6.28,2.4-8.54,1.1a11.46,11.46,0,0,1-3.18-3.18c-.28-.37-.56-.73-.81-1,.27,2.31,2.14,5,2.72,5.81a.47.47,0,0,0,.31.18l4.32.49a.58.58,0,0,1,.26.09,1.21,1.21,0,0,1,.62.91A4.64,4.64,0,0,1,55.11,78l-.15.3a.92.92,0,0,1-.8.5ZM42.08,60.46c-.32,0-.63,0-.94,0l-2.87.12a7,7,0,0,0-2.3.47,5.25,5.25,0,0,0-2.92,2.25h0c-1.38,3,.35,9,.85,10.36,1.42,3.72,2.45,4.74,4.8,4.76,2.83,0,13.17,0,15.45,0a.5.5,0,0,0,.45-.28l.15-.29a4.28,4.28,0,0,0,.11-1.67.82.82,0,0,0-.41-.61l-.11,0L50,75a.86.86,0,0,1-.58-.34c-.6-.83-2.6-3.71-2.81-6.15a.35.35,0,0,1,.32-.38.36.36,0,0,1,.29.11c.29.31.6.72.93,1.15a10.91,10.91,0,0,0,3.05,3.08c2.11,1.2,6.81-.56,8.2-1.13a1,1,0,0,0,.54-.5,1.88,1.88,0,0,0,.2-1.48c-.25-.58-.61-1.11-1.45-1-.3.1-3.43,1.08-5.31-.28a9.21,9.21,0,0,1-2.49-2.82l-.43-.6c-.1-.1-.34-.38-1-1.26a7.64,7.64,0,0,0-4.58-2.74A16,16,0,0,0,42.08,60.46Z" transform="translate(-0.02 -0.16)"/><path d="M56,78.73h5V77.66a.48.48,0,0,0-.48-.48h-4a.48.48,0,0,0-.48.48h0Z" transform="translate(-0.02 -0.16)" fill="#5479f7"/><path d="M61.06,78.93H56a.2.2,0,0,1-.2-.2h0A1.76,1.76,0,0,1,57.59,77h1.92a1.75,1.75,0,0,1,1.75,1.75A.2.2,0,0,1,61.06,78.93Zm-4.8-.4h4.59a1.36,1.36,0,0,0-1.33-1.16H57.59a1.35,1.35,0,0,0-1.33,1.16Z" transform="translate(-0.02 -0.16)"/><path d="M53.87,76.36a.82.82,0,0,1,.42-.38c.14,0,.26-.11.39-.17l1.7-.91c.32-.16.78.21,1.11.32,1,.33,3.08,1.1,2.91,1.83s-2,.42-2.6.26c-.15,0-1.46.44-1.87.47a1.32,1.32,0,0,1-1-.25.91.91,0,0,0-.43-.1.76.76,0,0,1-.6-.28h0a.66.66,0,0,1-.08-.72Z" transform="translate(-0.02 -0.16)" fill="#fff"/><path d="M55.74,78a1.33,1.33,0,0,1-.77-.22l-.12-.06a.73.73,0,0,0-.33-.08,1,1,0,0,1-.76-.36.85.85,0,0,1-.1-.93l0-.07a.94.94,0,0,1,.53-.47,3,3,0,0,0,.36-.17l1.71-.91a1.15,1.15,0,0,1,1,.17,1.38,1.38,0,0,0,.3.14c2.17.71,3.19,1.41,3,2.07a.69.69,0,0,1-.33.45,4.07,4.07,0,0,1-2.49,0,6,6,0,0,0-.7.19A8.73,8.73,0,0,1,56,78Zm.82-2.93a.15.15,0,0,0-.09,0l-1.7.9a2.17,2.17,0,0,1-.41.19.6.6,0,0,0-.31.28h0l0,.07a.48.48,0,0,0,0,.5.61.61,0,0,0,.46.21,1.16,1.16,0,0,1,.51.12l.13.08a1,1,0,0,0,.75.15,7.06,7.06,0,0,0,1-.26c.62-.19.79-.23.9-.2a3.63,3.63,0,0,0,2.21.09.33.33,0,0,0,.15-.2c.08-.32-.75-.94-2.77-1.6l-.35-.16a1.4,1.4,0,0,0-.53-.19Zm-2.69,1.3Z" transform="translate(-0.02 -0.16)"/><path d="M66.41,69.55a.23.23,0,0,0,0-.32.1.1,0,0,0-.05,0l-3-1.32a1.8,1.8,0,0,0-1.35-.05,18.36,18.36,0,0,1-1.83.56c-1.91.49-2,3-.08,2a10.7,10.7,0,0,0,1-.55,1.65,1.65,0,0,0,1.88.54A3.55,3.55,0,0,0,64,69.79a.7.7,0,0,1,.62-.15C65.11,69.78,65.88,70.18,66.41,69.55Z" transform="translate(-0.02 -0.16)" fill="#fff"/><path d="M59.25,70.84a.9.9,0,0,1-.53-.17.93.93,0,0,1-.28-.94,2.15,2.15,0,0,1,1.62-1.54,18.88,18.88,0,0,0,1.81-.56,2,2,0,0,1,1.5.05l3,1.33a.43.43,0,0,1,.22.57.47.47,0,0,1-.06.09h0a1.47,1.47,0,0,1-1.75.24l-.27-.07a.43.43,0,0,0-.43.1,3.37,3.37,0,0,1-1.13.65,1.79,1.79,0,0,1-1.85-.33,1.58,1.58,0,0,1-.13-.13c-.17.1-.47.27-.88.46A2,2,0,0,1,59.25,70.84Zm3.3-2.93A1.44,1.44,0,0,0,62,68c-.43.15-1.09.38-1.85.57a1.75,1.75,0,0,0-1.33,1.23.56.56,0,0,0,.13.55c.18.14.54.1,1-.12.61-.3,1-.53,1-.53a.21.21,0,0,1,.23,0l0,0a1.45,1.45,0,0,0,1.64.46,3.35,3.35,0,0,0,1-.58.85.85,0,0,1,.8-.19l.28.08c.57.18,1,.28,1.33-.11,0,0,0,0,0,0s0,0,0,0l-3-1.33a1.66,1.66,0,0,0-.66-.14Zm3.85,1.64Z" transform="translate(-0.02 -0.16)"/><path d="M61.84,69.69a1.08,1.08,0,0,1-.73-.35.21.21,0,0,1,0-.29.22.22,0,0,1,.29,0s.34.36.65.15A1.05,1.05,0,0,1,63,69c.58.22.81.13.85.07a.12.12,0,0,0,0-.11.39.39,0,0,0-.21-.17l-.87-.35a.22.22,0,0,1-.08-.28.2.2,0,0,1,.23-.09l.87.35a.79.79,0,0,1,.44.4.54.54,0,0,1,0,.43s-.27.53-1.35.11a.73.73,0,0,0-.55.16A.86.86,0,0,1,61.84,69.69Zm2-.6h0Z" transform="translate(-0.02 -0.16)"/><path d="M50,75h0c-.26,0-.59-.07-1-.11-3.37-.33-10.37-1-12.31-7a.19.19,0,0,1,.15-.23.2.2,0,0,1,.23.11c1.86,5.69,8.68,6.37,12,6.7l1,.11a.2.2,0,0,1,.19.21.22.22,0,0,1-.22.19h0Z" transform="translate(-0.02 -0.16)"/><path d="M41.65,59.47a.38.38,0,0,1,.36-.29l1.26,0a.36.36,0,0,0,.33-.28l.34-1.44.57-.26a.08.08,0,0,0,0-.11L44.11,56c-.13-.4-.13-1.24-.34-1.25,0,0-3.84-1.67-4.68.25a1.32,1.32,0,0,0,0,.92l.2.61a2.65,2.65,0,0,1,0,1.88,6.8,6.8,0,0,1-.57,1,4.85,4.85,0,0,1-1.24,1.1.4.4,0,0,0-.11.57l.08.09a7.49,7.49,0,0,0,1.5,1,4.39,4.39,0,0,0,2.16.49.82.82,0,0,0,.7-.91,1.17,1.17,0,0,0-.05-.2A3.37,3.37,0,0,1,41.65,59.47Z" transform="translate(-0.02 -0.16)" fill="#fff"/><path d="M40.76,62.86a5.28,5.28,0,0,1-1.95-.52,7.29,7.29,0,0,1-1.55-1,.61.61,0,0,1-.09-.86.49.49,0,0,1,.13-.12,4.43,4.43,0,0,0,1.19-1.05,7.23,7.23,0,0,0,.55-1,2.54,2.54,0,0,0,0-1.74L38.87,56a1.49,1.49,0,0,1,0-1.06,1.59,1.59,0,0,1,.91-.87c1.4-.55,3.7.39,4,.51s.31.4.37.84a4.51,4.51,0,0,0,.1.53L44.74,57a.3.3,0,0,1-.15.38l-.48.21-.32,1.35a.56.56,0,0,1-.52.43l-1.26,0a.19.19,0,0,0-.17.14h0a3.29,3.29,0,0,0,0,1.94,1,1,0,0,1-.08.92,1,1,0,0,1-.73.45Zm.1-8.62a1.55,1.55,0,0,0-1.58.8,1.05,1.05,0,0,0,0,.78l.2.62a2.87,2.87,0,0,1-.05,2,7.72,7.72,0,0,1-.58,1,5,5,0,0,1-1.3,1.16.2.2,0,0,0-.06.29l0,0A6.64,6.64,0,0,0,39,62a4.13,4.13,0,0,0,2.06.47.52.52,0,0,0,.43-.27.64.64,0,0,0,.06-.57,3.64,3.64,0,0,1,0-2.19A.6.6,0,0,1,42,59l1.26,0a.15.15,0,0,0,.15-.13l.34-1.43a.26.26,0,0,1,.11-.14l.47-.21-.4-1v0a3,3,0,0,1-.12-.6,3,3,0,0,0-.1-.52h0a9.7,9.7,0,0,0-2-.59,6.11,6.11,0,0,0-.85-.08Zm.79,5.23Z" transform="translate(-0.02 -0.16)"/><path d="M44.84,51.69c-.9-.33,0,1-3.13-1-1.23-.8-1,1-1.34.78-1.18-.76-1.14-.74-1.83-.76-.45,0-.95.68-1,1.29-.13.8.59,2.72,1.15,4.19.28.76,1.34,1.15,1.8.26.13-.25-.42-1,0-1.35.79-.59.8.63,1.42.46a7.49,7.49,0,0,0,1.5-.61c.8-.38,1.58.83,2.33-.34C46.1,54,46.08,52.14,44.84,51.69Z" transform="translate(-0.02 -0.16)"/><path d="M44.66,109.62l-7.22-25.3-7.23,25.3H28.48l7.94-28.51h2l7.95,28.52Z" transform="translate(-0.02 -0.16)" fill="#fff"/><path d="M46.66,109.82H44.51L37.44,85.05l-7.08,24.77H28.22l.07-.25,8-28.66H38.6l0,.14Zm-1.85-.4h1.33L38.3,81.3H36.57l-7.83,28.12h1.32L37.44,83.6Z" transform="translate(-0.02 -0.16)"/><rect x="28.44" y="78.65" width="66.92" height="2.72" fill="#fff"/><path d="M95.58,81.73H28.26V78.61H95.58Zm-66.92-.4H95.18V79H28.66Z" transform="translate(-0.02 -0.16)"/><path d="M44.61,81.09a.2.2,0,0,1-.2-.2V79.38a.2.2,0,0,1,.4,0h0v1.51a.2.2,0,0,1-.2.2Z" transform="translate(-0.02 -0.16)" fill="#5479f7"/><path d="M81.52,103.08l.39,4.41-4.16.44L79,106.16a1.92,1.92,0,0,0,.32-1.64L79,103.1Z" transform="translate(-0.02 -0.16)" fill="#fff"/><path d="M77.33,108.17,78.88,106a1.75,1.75,0,0,0,.29-1.47l-.41-1.67,2.94,0,.42,4.79Zm1.94-4.87.29,1.17a2.17,2.17,0,0,1-.36,1.8l-1,1.4,3.51-.37-.35-4Z" transform="translate(-0.02 -0.16)"/><path d="M82.2,106.73l.34,1.82a.73.73,0,0,1-.62.78,23.59,23.59,0,0,1-6.71.18,1,1,0,0,1-.85-.64c-.13-.5.19-1.22,1.21-1.6a14,14,0,0,0,3.37-1.48.51.51,0,0,1,.62.19,1.89,1.89,0,0,1,.32,1,.24.24,0,0,0,.24.25l.1,0,1.54-.67a.33.33,0,0,1,.42.18S82.19,106.71,82.2,106.73Z" transform="translate(-0.02 -0.16)" fill="#5479f7"/><path d="M77.61,109.89a14.06,14.06,0,0,1-2.43-.19,1.21,1.21,0,0,1-1-.78c-.15-.59.2-1.41,1.33-1.83l.57-.21a11.26,11.26,0,0,0,2.76-1.25.71.71,0,0,1,.89.23,2.07,2.07,0,0,1,.35,1.08s0,0,0,0a0,0,0,0,0,0,0l1.54-.66a.52.52,0,0,1,.68.27.76.76,0,0,1,0,.11h0l.35,1.84a.93.93,0,0,1-.8,1A30,30,0,0,1,77.61,109.89Zm1.51-4-.07,0a11.54,11.54,0,0,1-2.84,1.29l-.58.21c-.9.34-1.19.94-1.08,1.36a.85.85,0,0,0,.69.49,23.09,23.09,0,0,0,6.64-.18.53.53,0,0,0,.46-.56l-.34-1.8a.15.15,0,0,0-.06-.09.17.17,0,0,0-.1,0l-1.54.67a.45.45,0,0,1-.42,0,.43.43,0,0,1-.2-.37,1.79,1.79,0,0,0-.28-.84.4.4,0,0,0-.28-.16Z" transform="translate(-0.02 -0.16)"/><path d="M77.68,109.24a17.46,17.46,0,0,1-2.28-.15.19.19,0,0,1-.19-.2.2.2,0,0,1,.2-.2h0a21.08,21.08,0,0,0,6.14-.21.2.2,0,0,1,.12.38h0A22.26,22.26,0,0,1,77.68,109.24Z" transform="translate(-0.02 -0.16)"/><path d="M90.54,101.71a7.27,7.27,0,0,0,1.06,3.05l-1.95,1.48-1.48-1.47a3.51,3.51,0,0,0,.19-3Z" transform="translate(-0.02 -0.16)" fill="#fff"/><path d="M89.63,106.5l-1.72-1.7.1-.14a3.32,3.32,0,0,0,.16-2.85l-.08-.26,2.63,0v.18a7,7,0,0,0,1,3l.1.16Zm-1.2-1.75L89.67,106l1.67-1.26a7.55,7.55,0,0,1-1-2.8l-1.73,0a3.78,3.78,0,0,1-.2,2.82Z" transform="translate(-0.02 -0.16)"/><path d="M91.66,104.34l.81,1.43a.75.75,0,0,1-.31,1,28.07,28.07,0,0,1-4.26,2.1c-.7.26-2.74.4-3.22-.23-.32-.42-.2-1,.65-1.42a6.13,6.13,0,0,0,2.59-2.94c.41-.56,1.11.42,1.31,1.16a.25.25,0,0,0,.4.13l1.58-1.29a.31.31,0,0,1,.42,0S91.66,104.32,91.66,104.34Z" transform="translate(-0.02 -0.16)" fill="#5479f7"/><path d="M86.32,109.25a2.36,2.36,0,0,1-1.79-.52.89.89,0,0,1-.19-.75,1.56,1.56,0,0,1,.89-1,5.2,5.2,0,0,0,2.31-2.5c.07-.13.14-.26.22-.38a.54.54,0,0,1,.55-.23c.52.1,1,.93,1.11,1.46a0,0,0,0,0,0,0,0,0,0,0,0,0,0l1.59-1.29a.5.5,0,0,1,.7.07l0,.07h0l.81,1.44a.93.93,0,0,1-.39,1.23A27.53,27.53,0,0,1,88,109,5.44,5.44,0,0,1,86.32,109.25Zm1.88-5s-.07,0-.12.08a2,2,0,0,0-.18.32,5.64,5.64,0,0,1-2.48,2.67,1.22,1.22,0,0,0-.69.7.52.52,0,0,0,.11.43c.39.51,2.29.42,3,.16a27.65,27.65,0,0,0,4.23-2.08.55.55,0,0,0,.24-.71l-.8-1.42h0s0,0-.07,0a.1.1,0,0,0-.09,0l-1.58,1.29a.45.45,0,0,1-.64-.07.34.34,0,0,1-.08-.17c-.14-.54-.54-1.12-.8-1.17Z" transform="translate(-0.02 -0.16)"/><path d="M86.19,108.45a2.39,2.39,0,0,1-.65-.06.19.19,0,0,1-.17-.22.19.19,0,0,1,.22-.17h0a4.56,4.56,0,0,0,1.8-.1,11.23,11.23,0,0,0,4.12-2.05.21.21,0,0,1,.28.06.21.21,0,0,1,0,.24,11.62,11.62,0,0,1-4.29,2.14A5.9,5.9,0,0,1,86.19,108.45Z" transform="translate(-0.02 -0.16)"/><path d="M83.79,87.71c-.31,3.45,2.56,11.45,3.62,14a.77.77,0,0,0,.72.51h2.45a.7.7,0,0,0,.74-.69h0c0-2.71-1.25-10.37.57-13.22,1-1.65,4.18-1,5.47-1.74,3.1-1.88,1.94-8,1.94-8S84.23,82.9,83.79,87.71Z" transform="translate(-0.02 -0.16)" fill="#fff"/><path d="M90.58,102.44H88.13a1,1,0,0,1-.9-.63c-1-2.54-4-10.57-3.63-14.12h0c.44-4.89,15-9.13,15.64-9.3l.21-.06,0,.21c.05.26,1.16,6.29-2,8.22a5.54,5.54,0,0,1-2.23.5c-1.28.13-2.6.26-3.18,1.18-1.37,2.13-1,7.18-.7,10.52.09,1.05.16,2,.16,2.59a.79.79,0,0,1-.25.61A1,1,0,0,1,90.58,102.44ZM84,87.72c-.29,3.22,2.3,10.78,3.61,13.94a.57.57,0,0,0,.53.38h2.45a.57.57,0,0,0,.41-.16.46.46,0,0,0,.13-.33c0-.62-.07-1.52-.16-2.56-.28-3.6-.67-8.52.76-10.77.69-1.08,2.17-1.22,3.47-1.35a5.28,5.28,0,0,0,2.07-.45c2.62-1.6,2-6.5,1.87-7.59-1.83.55-14.75,4.58-15.14,8.89Z" transform="translate(-0.02 -0.16)"/><path d="M88.76,79.23s-10.22.08-13.44,3.65c-2.9,3.21,1.4,17.74,2.3,20.57a.75.75,0,0,0,.72.49h3.83a.14.14,0,0,0,.15-.13l-.61-5.53c-.65-7.34.14-8.89.14-8.89.65-2.07,6.18-2,9.19-2,9.55.06,6.74-8.32,6.74-8.32Z" transform="translate(-0.02 -0.16)" fill="#fff"/><path d="M82.17,104.14H78.33a.94.94,0,0,1-.9-.63,95.78,95.78,0,0,1-2.57-10.17c-1.06-5.62-1-9.19.32-10.6C78.42,79.16,88.34,79,88.76,79l9.16-.13L98,79c0,.15,1.19,3.66-.63,6.18-1.16,1.6-3.24,2.4-6.19,2.4h-.32c-2.87,0-8.2-.06-8.79,1.83v0s-.76,1.65-.12,8.78l.61,5.54a.34.34,0,0,1-.34.34ZM97.63,79.31l-8.87.12c-.1,0-10.17.12-13.29,3.58-1.17,1.3-1.25,4.84-.23,10.26a94.9,94.9,0,0,0,2.57,10.12.53.53,0,0,0,.52.35h3.78l-.6-5.44c-.62-7,.06-8.78.16-9,.69-2.15,6-2.11,9.16-2.09H91c2.87,0,4.88-.73,6-2.24,1.51-2.08.81-5,.62-5.68Zm-8.87-.08Z" transform="translate(-0.02 -0.16)"/><path d="M81.62,72.8c-.06,0-1.52,0-1.65,0A13.06,13.06,0,0,0,77.15,72a10.38,10.38,0,0,1-1.93-.22c-.27-.06-.46.05-.51.22a.48.48,0,0,0,.36.58h0l1.3.31c.12,0,.25,0,.13.07s-.56.25-.57.47c0,.4,1,1.33,2.08,1.4,1,.06,1.21-.41,1.58-.48.06,0,1.64,0,1.71,0C82.05,74.27,82,72.9,81.62,72.8Z" transform="translate(-0.02 -0.16)" fill="#fff"/><path d="M78.2,75.09H78a3.07,3.07,0,0,1-2-1,.94.94,0,0,1-.28-.63.57.57,0,0,1,.26-.41l-.12,0-.84-.2a.7.7,0,0,1-.47-.32.72.72,0,0,1-.07-.52.59.59,0,0,1,.74-.36,9.3,9.3,0,0,0,1.9.22,11.33,11.33,0,0,1,2.63.69l.24.09c.1,0,.73,0,1.07,0h.58c.32.09.43.54.42.9a1.07,1.07,0,0,1-.73,1.11,7.85,7.85,0,0,1-1,0c-.3,0-.68,0-.75,0a1,1,0,0,0-.28.13A2.09,2.09,0,0,1,78.2,75.09ZM75.08,72c-.09,0-.16,0-.18.09a.28.28,0,0,0,0,.2.3.3,0,0,0,.21.15l.84.2.46.11h.07c.09,0,.25,0,.26.21a.22.22,0,0,1-.18.23c-.34.12-.44.24-.44.29a.63.63,0,0,0,.18.34,2.65,2.65,0,0,0,1.71.85,1.66,1.66,0,0,0,1.11-.28,1.33,1.33,0,0,1,.42-.19H81.3c.3-.07.38-.48.39-.6a.82.82,0,0,0-.11-.63h-.47a6,6,0,0,1-1.2,0l-.24-.08a11,11,0,0,0-2.51-.67,10.19,10.19,0,0,1-2-.23Z" transform="translate(-0.02 -0.16)"/><path d="M89.37,64c-2,1.58-2.68,6.15-4,7.18-1.12.89-5.12,1.18-5.12,1.18l0,2.56,3.49.14a7.57,7.57,0,0,0,4.86-1.48c2.47-2.32,7.62-7.24,8.91-10.52l-3.61-.38A6.1,6.1,0,0,0,89.37,64Z" transform="translate(-0.02 -0.16)"/><path d="M89.8,72A4.49,4.49,0,0,0,90,74.09,3.94,3.94,0,0,1,89,78.15a5,5,0,0,1-1.48,1.06s.25,1.57,2.63,1.79c1,.09,3.52.3,5.43.29a27.69,27.69,0,0,0,4.55-.41l.37-12.07s.39-5.07-3.11-5.76l-5-.32Z" transform="translate(-0.02 -0.16)"/><path d="M89.48,73.17a.2.2,0,0,1-.2-.2.24.24,0,0,1,0-.14,13.39,13.39,0,0,0,2.44-3.57.2.2,0,1,1,.39.11l0,0a13.83,13.83,0,0,1-2.52,3.68A.19.19,0,0,1,89.48,73.17Z" transform="translate(-0.02 -0.16)" fill="#caddff"/><path d="M89.52,57s-1.27,0-1.09-2.21,2.66-2.13,3.51-2.43,2.27-2.13,2.82-2.62,2.22-2.52,5.69-.59c0,0,.61.57,3-.06,2-.54,5.9,0,5.17,3a3.43,3.43,0,0,1-1.43,2.06c-.13.09-.27.17-.43.26a1.51,1.51,0,0,0-.78,1.25c-.1,1.75-1,5.28-7,3a1.48,1.48,0,0,0-1.34.15,4.24,4.24,0,0,1-3.49,1.41c-1.66.06-2.48-1.62-3-2.36A2.07,2.07,0,0,0,89.52,57Z" transform="translate(-0.02 -0.16)"/><path d="M89.89,57s0,.4,0,.58a2.85,2.85,0,0,1-.25,1.35.14.14,0,0,0,.05.18l.45.28a.16.16,0,0,1,.06.08c0,.22.19,1,.24,1.19a.59.59,0,0,0,.3.32,3,3,0,0,0,1-.17s-.12-.15.5.92c.43.75-.5,2-.5,2s3.5,1.42,5.47-.27a.22.22,0,0,0,0-.31.19.19,0,0,0-.09,0c-1.86-.46-2.1-1.4-2.83-2.85a.29.29,0,0,0-.2-.11c-.31,0-1.13,0-1.41-1.31v-.1c.09-.27.47-1.6-.73-1a1,1,0,0,1-1.4-.4h0a.4.4,0,0,0-.24-.16Z" transform="translate(-0.02 -0.16)" fill="#fff"/><path d="M94.6,64.48a8.73,8.73,0,0,1-2.95-.57.2.2,0,0,1-.11-.26l0,0c.24-.31.79-1.24.48-1.76-.2-.36-.35-.62-.43-.78h0a2.12,2.12,0,0,1-.93.12.82.82,0,0,1-.43-.45c0-.14-.16-.71-.25-1.18l-.42-.27a.34.34,0,0,1-.13-.42,2.56,2.56,0,0,0,.23-1.19v-.09c0-.18,0-.58,0-.58a.22.22,0,0,1,.21-.2h0l.41.1a.55.55,0,0,1,.35.25.84.84,0,0,0,1.11.36l0,0c.42-.2.73-.2.94,0s.18.94.07,1.31c.23,1.08.83,1.12,1.16,1.15h.07a.42.42,0,0,1,.35.22c.09.16.16.32.24.47.57,1.17.91,1.88,2.47,2.27a.42.42,0,0,1,.29.51.47.47,0,0,1-.12.19A4,4,0,0,1,94.6,64.48ZM92,63.63c.8.27,3.46,1,5-.33v0a3.64,3.64,0,0,1-2.73-2.48c-.07-.15-.15-.3-.23-.46H94c-.37,0-1.23-.08-1.52-1.46a.44.44,0,0,1,0-.2c.13-.42.15-.8,0-.89s-.14-.09-.51.09a1.24,1.24,0,0,1-1.65-.48.15.15,0,0,0-.11-.08l-.16,0c0,.11,0,.25,0,.33v.07A3,3,0,0,1,89.83,59l.4.26a.34.34,0,0,1,.15.22c.11.61.21,1.06.24,1.15a.52.52,0,0,0,.18.21,3,3,0,0,0,.79-.16.21.21,0,0,1,.28.05.19.19,0,0,1,0,.09l.48.85c.38.65-.1,1.56-.36,2Zm-2-4.06Z" transform="translate(-0.02 -0.16)"/><path d="M92.27,59.14a.49.49,0,0,1-.42-.17.2.2,0,0,1,.08-.27.2.2,0,0,1,.23,0,.34.34,0,0,0,.2,0,.31.31,0,0,0,.16-.23.2.2,0,0,1,.23-.17.2.2,0,0,1,.17.22.09.09,0,0,0,0,.05.67.67,0,0,1-.54.54Z" transform="translate(-0.02 -0.16)"/><path d="M89.52,59.06a.73.73,0,0,1-.48-.19,1.89,1.89,0,0,1-.38-1.34.21.21,0,0,1,.2-.19l3-.06a.2.2,0,1,1,0,.4l-2.77,0a1.35,1.35,0,0,0,.25.85.35.35,0,0,0,.31.07.19.19,0,0,1,.21.18.19.19,0,0,1-.15.21Z" transform="translate(-0.02 -0.16)"/><path d="M92.12,59.48a.21.21,0,0,1,.2-.23.22.22,0,0,1,.24.2.23.23,0,0,1-.2.23A.22.22,0,0,1,92.12,59.48Z" transform="translate(-0.02 -0.16)" fill="#5479f7"/><path d="M93.72,69.62V72.5A7.39,7.39,0,0,1,86.45,80h0a7.38,7.38,0,0,0-7.27,7.49h0a.66.66,0,0,0,.67.66H99.09A11.07,11.07,0,0,0,110,76.92V69.24a4.4,4.4,0,0,0-4.33-4.47H98.42a4.78,4.78,0,0,0-4.7,4.85Z" transform="translate(-0.02 -0.16)" fill="#5479f7"/><path d="M83.57,85.41a.2.2,0,0,1-.2-.2.21.21,0,0,1,0-.11,6.26,6.26,0,0,1,4.86-2.49,9,9,0,0,0,3.44-1c2.23-1.22,5.2-3.4,5.2-8.09V73c0-4.8,1.66-5,4.37-5a.2.2,0,1,1,0,.4c-2.39,0-4,0-4,4.65v.54c0,4.9-3.09,7.17-5.41,8.44a9.4,9.4,0,0,1-3.59,1,5.8,5.8,0,0,0-4.58,2.32A.21.21,0,0,1,83.57,85.41Z" transform="translate(-0.02 -0.16)" fill="#caddff"/><rect x="94.62" y="87.4" width="2.03" height="21.95" fill="#5479f7"/><path d="M86.16,109.18l9-.79h.82l9.15.79v.63H86.16Z" transform="translate(-0.02 -0.16)" fill="#5479f7"/></svg>