<svg width="540" height="480" viewBox="0 0 540 480" fill="none" xmlns="http://www.w3.org/2000/svg">
<path d="M419.224 227.461C421.57 228.001 423.228 225.841 424.07 223.951C426.549 218.411 424.148 216.575 423.317 217.345C422.202 218.362 422.507 220.401 422.121 221.778C421.946 222.676 421.582 223.526 421.051 224.271C420.521 225.016 419.837 225.639 419.045 226.098C418.922 226.174 418.822 226.284 418.76 226.416C418.697 226.547 418.674 226.693 418.693 226.837C418.712 226.982 418.772 227.117 418.866 227.228C418.96 227.339 419.084 227.42 419.224 227.461Z" fill="#121C3D"/>
<path d="M423.36 214.331C424.71 214.407 425.134 215.541 426.022 215.53C427.056 215.53 427.216 213.821 425.361 213.119C424.662 212.856 423.902 212.802 423.174 212.962C422.358 213.127 422.596 214.302 423.36 214.331Z" fill="#121C3D"/>
<path d="M410.451 209.226C410.094 209.491 409.842 209.875 409.74 210.308C409.638 210.741 409.692 211.196 409.892 211.594C410.086 212.355 410.571 213.009 411.242 213.416C411.456 213.533 411.699 213.585 411.942 213.566C412.184 213.548 412.416 213.459 412.609 213.311C412.803 213.162 412.948 212.961 413.029 212.732C413.11 212.502 413.123 212.254 413.065 212.017C412.759 211.013 412.286 210.068 411.666 209.22C411.48 209.116 411.271 209.062 411.058 209.063C410.845 209.064 410.636 209.12 410.451 209.226Z" fill="#121C3D"/>
<path d="M410.756 205.586C411.067 205.437 411.404 205.352 411.748 205.337C412.092 205.321 412.435 205.376 412.757 205.497C413.44 205.707 413.872 206.307 414.596 206.347C414.813 206.341 415.02 206.252 415.173 206.099C415.327 205.945 415.416 205.738 415.422 205.521C415.584 203.977 412.322 202.305 409.952 204.546C409.393 205.065 410.103 205.948 410.756 205.586Z" fill="#121C3D"/>
<path d="M474.66 270.216C474.583 269.967 474.429 269.75 474.22 269.595C474.01 269.44 473.757 269.357 473.496 269.357C473.236 269.357 472.983 269.44 472.773 269.595C472.564 269.75 472.409 269.967 472.333 270.216C471.345 274.22 471.063 278.365 471.498 282.466C469.789 284.106 467.767 285.384 465.552 286.223C463.337 287.063 460.975 287.446 458.608 287.35C454.57 287.422 450.574 286.525 446.953 284.737C449.142 280.957 448.718 275.211 448.748 271.064C448.793 265.473 448.409 259.888 447.601 254.356C447.466 253.427 445.956 253.657 445.981 254.572C446.674 283.087 442.379 283.565 444.776 285.868C450.919 292.826 470.966 292.796 474.031 283.708C474.066 283.551 475.808 273.945 474.66 270.216Z" fill="#121C3D"/>
<path d="M467.235 292.745C467.199 292.616 467.135 292.497 467.046 292.397C466.957 292.298 466.847 292.22 466.723 292.169C466.6 292.119 466.466 292.098 466.333 292.107C466.2 292.116 466.071 292.156 465.955 292.224C462.769 294.583 462.337 301.355 455.536 309.504C454.149 311.327 452.242 312.686 450.066 313.402C447.096 312.517 443.815 312.39 440.778 311.623C424.038 307.379 402.64 296.552 393.401 297.915C389.588 298.485 385.831 299.376 382.169 300.58C382.401 300.207 383.233 298.563 382.528 297.856C380.546 295.874 371.66 299.252 365.143 300.72C368.392 298.831 371.43 296.601 374.207 294.068C375.578 292.858 373.937 293.401 386.627 294.068C396.273 294.658 405.943 294.762 415.6 294.378C419.977 294.178 424.354 293.784 428.736 293.941C434.172 294.458 439.558 295.413 444.841 296.797C446.367 297.097 447.35 293.687 447.736 292.207C448.274 290.513 448.457 288.727 448.276 286.959C448.219 286.767 448.108 286.597 447.956 286.467C447.805 286.338 447.619 286.255 447.421 286.229C447.224 286.203 447.023 286.235 446.843 286.321C446.663 286.407 446.511 286.543 446.407 286.713C445.898 288.28 445.471 289.872 445.127 291.484C444.706 292.503 444.338 293.544 444.026 294.602C436.369 290.377 426.263 291.187 417.895 291.619C407.809 292.069 397.705 291.979 387.628 291.349C375.262 290.668 375.535 290.153 374.128 290.679C372.003 291.898 370.029 293.365 368.248 295.048C364.236 297.66 359.942 299.81 355.447 301.458C355.193 301.531 354.974 301.693 354.829 301.914C354.685 302.136 354.625 302.402 354.66 302.663C354.696 302.925 354.824 303.166 355.022 303.341C355.22 303.516 355.474 303.614 355.739 303.618C360.848 303.433 365.92 302.671 370.859 301.347C373.456 300.791 379.164 299.754 379.477 299.74C378.38 300.742 377.342 301.806 376.367 302.926C376.159 303.148 376.037 303.436 376.023 303.739C376.008 304.042 376.102 304.34 376.288 304.58C376.473 304.82 376.738 304.987 377.035 305.049C377.332 305.112 377.642 305.067 377.908 304.922C383.123 302.566 388.675 301.041 394.362 300.402C401.693 299.762 408.502 304.295 431.679 312.198C437.098 314.045 444.639 317.528 450.425 316.21C454.325 314.87 457.693 312.315 460.034 308.92C461.913 306.245 467.716 295.491 467.235 292.745Z" fill="#121C3D"/>
<path d="M439.83 397.732C439.838 397.73 439.845 397.725 439.85 397.718C439.856 397.712 439.858 397.704 439.858 397.695C439.858 397.687 439.856 397.679 439.85 397.672C439.845 397.666 439.838 397.661 439.83 397.659C439.781 397.659 439.781 397.732 439.83 397.732Z" fill="#121C3D"/>
<path d="M160.286 324.732C197.389 326.654 234.849 325.134 271.987 324.41C306.277 323.741 393.63 321.076 403.037 320.765C411.866 320.474 421.286 321.07 429.956 319.329C431.773 318.962 431.079 316.58 429.554 316.381C421.554 315.33 413.003 316.432 404.943 316.702C396.622 316.972 181.599 321.181 160.286 322.126C159.95 322.141 159.634 322.285 159.402 322.528C159.17 322.771 159.041 323.093 159.041 323.429C159.041 323.765 159.17 324.087 159.402 324.33C159.634 324.573 159.95 324.716 160.286 324.732V324.732Z" fill="#121C3D"/>
<path d="M259.394 280.233C259.054 280.947 258.565 281.579 257.959 282.088C257.354 282.596 256.646 282.969 255.884 283.181C251.934 283.94 251.346 279.839 253.117 276.971C253.507 276.427 254.033 275.994 254.643 275.717C255.253 275.44 255.925 275.328 256.592 275.392C257.137 275.442 257.663 275.622 258.125 275.917C258.587 276.212 258.971 276.613 259.246 277.087C259.52 277.561 259.677 278.095 259.703 278.642C259.729 279.189 259.623 279.735 259.394 280.233Z" fill="#121C3D"/>
<path d="M409.385 308.313C402.554 307.317 400.178 307.16 313.64 307.992C313.836 307.033 313.958 306.061 314.005 305.084C326.411 304.787 338.796 304.144 351.216 304.719C351.67 304.719 352.105 304.539 352.426 304.218C352.747 303.897 352.928 303.462 352.928 303.008C352.928 302.554 352.747 302.118 352.426 301.797C352.105 301.476 351.67 301.296 351.216 301.296C338.526 301.676 325.801 301.601 313.105 301.817C309.595 294.643 305.105 287.777 301.279 280.784C298.035 274.254 294.111 268.085 289.572 262.378C302.027 262.975 309.574 261.635 327.505 261.657C331.57 261.981 335.658 261.851 339.695 261.271C344.531 270.991 343.71 269.968 352.868 287.094C353.886 289.673 355.47 291.991 357.504 293.876C357.65 293.959 357.814 294.002 357.982 294.002C358.149 294.001 358.314 293.957 358.459 293.874C358.604 293.79 358.725 293.67 358.809 293.526C358.894 293.381 358.939 293.217 358.941 293.05C358.914 290.471 357.89 288.492 351.262 276.639C348.022 270.848 344.355 265.602 340.605 260.169C340.645 259.718 340.508 259.269 340.224 258.916C339.939 258.564 339.529 258.336 339.079 258.279C333.48 257.739 329.794 259.567 311.215 259.151C303.115 258.971 294.848 258.844 286.759 259.313C286.47 259.322 286.189 259.416 285.954 259.585C285.719 259.754 285.54 259.989 285.44 260.261C285.34 260.532 285.323 260.828 285.392 261.109C285.461 261.39 285.613 261.644 285.827 261.838C287.933 265.608 290.247 269.257 292.758 272.77C300.545 285.147 304.314 294.767 311.059 302.613C310.896 302.876 310.803 303.176 310.789 303.485C310.678 304.999 310.705 306.52 310.87 308.03C295.552 308.181 280.24 308.343 264.935 308.516C269.873 298.593 283.025 278.783 287.615 269.131C287.751 268.896 287.788 268.618 287.719 268.356C287.65 268.094 287.479 267.871 287.245 267.735C287.011 267.599 286.732 267.561 286.47 267.631C286.209 267.7 285.985 267.87 285.849 268.105C281.359 274.431 269.935 295.288 264.638 303.745C249.137 304.482 220.93 303.067 213.57 302.719C218.719 296.147 223.29 289.202 227.918 282.253C236.004 270.122 238.799 266.674 242.46 260.825C249.566 261.074 244.666 261.881 274.903 261.293C277.894 261.653 280.927 261.394 283.813 260.534C283.975 260.434 284.108 260.295 284.2 260.13C284.293 259.965 284.341 259.778 284.341 259.589C284.341 259.399 284.293 259.213 284.2 259.048C284.108 258.882 283.975 258.743 283.813 258.644C280.795 256.881 278.181 258.082 251.527 258.331C248.038 258.125 244.54 258.153 241.056 258.414C240.489 258.495 240.268 258.733 239.887 259.381C229.492 273.02 220.238 287.492 212.22 302.651C205.798 302.771 199.389 303.27 193.026 304.144C192.811 304.209 192.624 304.341 192.49 304.521C192.357 304.7 192.285 304.918 192.285 305.142C192.285 305.366 192.357 305.583 192.49 305.763C192.624 305.943 192.811 306.075 193.026 306.14C198.637 306.253 204.251 306.073 209.844 305.6C209.74 306.827 209.718 308.06 209.776 309.29C197.848 309.523 185.933 309.857 174.01 310.408C173.861 310.418 173.721 310.485 173.619 310.594C173.518 310.703 173.461 310.846 173.461 310.995C173.461 311.145 173.518 311.288 173.619 311.397C173.721 311.506 173.861 311.573 174.01 311.583C212.036 312.579 345.257 311.81 383.162 311.561C391.922 311.822 400.688 311.421 409.388 310.362C409.603 310.29 409.789 310.153 409.922 309.969C410.054 309.784 410.125 309.563 410.125 309.337C410.125 309.11 410.053 308.889 409.92 308.705C409.787 308.522 409.6 308.384 409.385 308.313V308.313ZM212.015 309.236C212.253 308.247 212.44 307.246 212.574 306.237C229.357 306.437 246.272 306.923 263.064 306.169C262.524 307.004 261.97 307.789 261.444 308.551C250.379 308.68 222.861 309.042 212.015 309.236Z" fill="#121C3D"/>
<path d="M337.017 263.258C322.572 263.361 307.606 263.22 292.899 263.957C293.671 264.767 305.435 286.667 313.894 300.499C314.609 301.66 341.434 299.94 345.376 299.813C349.046 299.911 352.712 299.486 356.262 298.55C355.779 296.922 339.152 263.242 337.017 263.258ZM338.834 276.013C338.945 276.046 339.042 276.115 339.111 276.208C339.181 276.301 339.218 276.414 339.218 276.53C339.218 276.646 339.181 276.759 339.111 276.852C339.042 276.945 338.945 277.013 338.834 277.047C334.908 277.971 330.853 278.22 326.843 277.784C325.885 277.762 325.601 276.191 326.611 276.051C330.631 275.127 334.808 275.114 338.834 276.013V276.013ZM328.703 283.767C326.394 284.524 323.931 284.685 321.543 284.237C320.876 284.178 320.644 283.157 321.381 283C323.685 282.239 326.142 282.058 328.533 282.474C329.068 282.639 329.292 283.5 328.703 283.767ZM320.771 273.507C320.012 273.41 319.653 272.173 320.568 272.025C322.764 271.688 324.979 271.485 327.199 271.415C329.387 271.134 331.604 271.174 333.779 271.534C333.983 271.594 334.162 271.718 334.289 271.889C334.417 272.059 334.485 272.266 334.485 272.479C334.485 272.691 334.417 272.898 334.289 273.068C334.162 273.239 333.983 273.363 333.779 273.424C331.78 273.849 329.729 273.981 327.691 273.818C325.376 273.858 323.061 273.752 320.76 273.499L320.771 273.507ZM312.555 267.122C320.527 266.435 328.54 266.35 336.525 266.868C336.729 266.868 336.924 266.949 337.067 267.093C337.211 267.236 337.292 267.431 337.292 267.635C337.292 267.838 337.211 268.033 337.067 268.177C336.924 268.321 336.729 268.402 336.525 268.402C328.52 269.3 320.428 269.044 312.495 267.643C312.174 267.581 312.271 267.119 312.555 267.114V267.122ZM310.106 272.122C312.204 271.677 315.076 270.902 316.915 272.352C316.978 272.416 317.026 272.494 317.055 272.58C317.083 272.666 317.092 272.757 317.081 272.846C317.069 272.936 317.038 273.021 316.989 273.097C316.939 273.173 316.874 273.236 316.796 273.283C315.017 274.39 312.25 273.631 310.292 273.469C309.568 273.402 309.309 272.284 310.106 272.114V272.122ZM300.699 267.462C302.488 266.946 304.36 266.779 306.212 266.971C306.462 266.984 306.698 267.092 306.87 267.274C307.042 267.455 307.138 267.696 307.138 267.947C307.138 268.197 307.042 268.438 306.87 268.619C306.698 268.801 306.462 268.91 306.212 268.923C304.385 269.242 302.512 269.203 300.699 268.809C300.552 268.767 300.422 268.678 300.33 268.556C300.237 268.434 300.187 268.285 300.187 268.132C300.187 267.978 300.237 267.829 300.33 267.707C300.422 267.585 300.552 267.496 300.699 267.454V267.462ZM306.639 273.872C305.756 274.012 304.857 274.012 303.974 273.872C303.19 273.886 302.426 273.625 301.814 273.135C301.743 273.061 301.689 272.971 301.657 272.874C301.625 272.777 301.615 272.673 301.627 272.571C301.64 272.469 301.675 272.372 301.73 272.285C301.786 272.199 301.859 272.125 301.946 272.071C302.572 271.744 303.276 271.599 303.979 271.652C304.76 271.563 305.546 271.536 306.331 271.571C307.53 271.69 308.016 273.588 306.631 273.864L306.639 273.872ZM309.406 277.382C312.15 276.874 318.997 275.786 321.656 276.631C322.364 276.853 322.69 278.022 321.889 278.373C318.379 279.92 313.357 279.31 309.631 279.004C308.75 278.913 308.437 277.538 309.398 277.36L309.406 277.382ZM309.266 283.605C311.699 282.815 314.292 282.654 316.804 283.135C316.919 283.17 317.021 283.236 317.099 283.328C317.177 283.419 317.226 283.53 317.242 283.649C317.258 283.768 317.239 283.888 317.188 283.997C317.136 284.105 317.055 284.196 316.953 284.259C314.472 285.151 311.761 285.172 309.266 284.318C309.176 284.308 309.093 284.266 309.032 284.199C308.972 284.132 308.938 284.045 308.937 283.954C308.936 283.864 308.968 283.776 309.027 283.708C309.086 283.64 309.168 283.596 309.258 283.584L309.266 283.605ZM323.846 294.872C322.982 295.987 321.702 295.75 320.39 295.682C318.846 295.511 317.314 295.251 315.8 294.902C315.753 294.881 315.713 294.846 315.685 294.802C315.657 294.759 315.642 294.708 315.642 294.656C315.642 294.605 315.657 294.554 315.685 294.51C315.713 294.467 315.753 294.432 315.8 294.411C317.272 294.127 318.605 293.622 320.12 293.466C321.316 293.339 322.874 292.945 323.738 293.979C323.844 294.095 323.911 294.242 323.929 294.399C323.947 294.555 323.915 294.713 323.838 294.851L323.846 294.872ZM329.486 289.132C323.772 290.083 317.948 290.174 312.206 289.402C311.842 289.321 311.901 288.83 312.206 288.724C317.851 287.306 323.673 286.725 329.486 286.999C330.885 286.953 330.817 288.978 329.478 289.111L329.486 289.132ZM331.609 282.174C333.334 281.904 334.978 281.729 336.739 281.634C338.432 281.299 340.175 281.299 341.869 281.634C342.083 281.703 342.274 281.831 342.418 282.004C342.562 282.178 342.654 282.388 342.682 282.612C342.71 282.835 342.674 283.062 342.578 283.266C342.482 283.47 342.329 283.642 342.139 283.762C340.571 284.499 338.828 284.78 337.108 284.572C335.246 284.576 333.393 284.292 331.617 283.732C330.907 283.492 330.766 282.28 331.6 282.153L331.609 282.174ZM340.2 288.436C337.762 288.515 335.322 288.371 332.91 288.004C332.516 287.944 332.545 287.326 332.91 287.245C335.151 286.714 337.429 286.353 339.725 286.165C341.615 286.016 344.08 285.271 345.665 286.462C345.741 286.509 345.806 286.573 345.855 286.649C345.903 286.725 345.935 286.81 345.946 286.899C345.957 286.989 345.949 287.079 345.921 287.165C345.892 287.25 345.846 287.328 345.784 287.393C344.385 288.784 342.09 288.376 340.2 288.436Z" fill="#5E66F6"/>
<path d="M489.019 294.203C485.66 271.742 475.332 251.289 466.76 241.861C473.21 234.047 471.89 223.347 468.277 213.924C460.045 192.432 439.584 172.9 417.536 173.262C407.546 173.421 403.226 178.529 402.94 183.173C399.654 183.606 396.568 184.996 394.067 187.171C391.566 189.345 389.761 192.208 388.876 195.402C387.49 200.685 387.815 206.272 389.804 211.359C391.851 217.253 395.99 222.237 395.879 228.749C395.761 235.499 392.804 241.915 393.147 248.702C393.466 253.021 395.113 257.134 397.861 260.48C400.609 263.826 404.325 266.24 408.499 267.392C408.245 269.922 406.588 281.837 408.537 283.786C409.231 284.442 410.034 284.971 410.91 285.35C410.662 286.192 410.586 287.075 410.686 287.947C410.786 288.819 411.061 289.662 411.494 290.426C411.556 290.527 411.643 290.61 411.746 290.668C411.85 290.726 411.966 290.756 412.085 290.756C412.203 290.756 412.32 290.726 412.424 290.668C412.527 290.61 412.614 290.527 412.676 290.426C413.261 289.029 413.378 287.48 413.011 286.011C415.187 286.457 418.729 286.516 420.109 284.731C421.036 286.557 422.259 288.216 423.727 289.643C423.998 289.898 424.352 290.049 424.724 290.068C425.097 290.086 425.464 289.971 425.759 289.743C426.054 289.515 426.258 289.19 426.335 288.825C426.411 288.46 426.355 288.08 426.176 287.753C425.058 285.633 423.444 283.816 422.477 281.599C419.237 274.19 422.31 262.599 422.812 254.553C422.863 253.703 421.689 253.668 421.421 254.367C418.295 262.567 415.897 273.723 419.135 282.498C417.949 282.537 416.768 282.659 415.6 282.863C413.795 282.818 412.024 282.356 410.427 281.513C410.932 276.445 409.49 265.456 413.643 254.696C414.435 252.536 415.648 250.555 417.212 248.868C418.776 247.18 420.659 245.82 422.752 244.866C424.666 244.216 426.451 243.234 428.023 241.963C428.395 242.733 428.926 243.415 429.581 243.965C430.237 244.514 431.001 244.918 431.824 245.149C433.609 245.471 435.45 245.178 437.045 244.316C438.64 243.455 439.896 242.077 440.605 240.408C440.708 240.215 440.746 239.994 440.713 239.778C440.68 239.562 440.579 239.362 440.424 239.209C440.268 239.055 440.068 238.955 439.851 238.925C439.635 238.894 439.414 238.934 439.223 239.039C437.37 240.014 435.829 241.896 433.609 241.955C431.39 242.015 430.515 240.119 429.748 238.361C430.093 236.255 430.023 234.101 429.54 232.022C431.009 230.845 432.075 229.241 432.591 227.432C432.64 227.234 432.63 227.027 432.563 226.835C432.495 226.644 432.374 226.475 432.213 226.351C432.051 226.228 431.858 226.153 431.655 226.137C431.452 226.122 431.25 226.165 431.071 226.263C427.189 228.115 424.383 233.132 419.515 232.292C412.765 231.125 409.32 223.112 408.445 222.793C407.338 222.377 404.962 224.313 405.535 221.64C406.618 218.576 406.512 215.216 405.238 212.225C404.633 210.143 404.621 207.934 405.203 205.845C405.784 203.756 406.936 201.87 408.529 200.399C410.555 201.72 412.803 202.661 415.166 203.178C418.163 203.685 421.221 203.728 424.232 203.305C426.047 205.892 428.23 208.201 430.712 210.157C433.221 211.847 435.946 213.194 438.812 214.161C438.812 214.161 439.422 221.451 439.935 224.081C441.515 232.119 445.011 234.284 445.011 234.284C445.136 234.284 445.195 234.452 445.503 234.465C458.757 235.348 466.511 247.131 471.998 257.891C484.28 281.958 488.84 305.907 482.96 331.952C475.67 333.013 470.54 334.77 457.931 333.723C448.54 332.948 441.113 328.401 432.74 324.926C434.272 322.924 435.337 320.605 435.858 318.138C435.909 317.921 435.882 317.692 435.781 317.493C435.68 317.293 435.511 317.136 435.306 317.049C435.1 316.962 434.87 316.95 434.656 317.016C434.443 317.082 434.259 317.221 434.138 317.409C432.62 319.933 430.849 322.297 428.855 324.464C428.605 324.73 428.443 325.066 428.391 325.427C428.339 325.788 428.399 326.156 428.563 326.481C419.583 329.708 391.765 338.764 376.075 344.088C369.457 346.337 362.75 348.859 358.368 354.599C355.026 358.968 354.534 373.472 354.551 375.095C374.231 356.905 409.901 347.844 428.876 337.681C428.838 337.703 408.356 349.261 403.283 351.451C393.636 355.633 383.872 359.527 374.279 363.812C351.124 374.166 345.23 389.372 332.289 414.369C325.753 426.508 320.211 439.157 315.716 452.191C306.251 446.709 296.161 442.386 285.663 439.314C285.241 439.201 284.791 439.259 284.411 439.475C284.031 439.69 283.751 440.047 283.632 440.467C282.976 444.666 287.042 447.757 289.721 450.457C295.482 456.285 301.826 461.508 308.653 466.042C310.03 467.261 311.741 468.039 313.565 468.275C317.099 468.188 320.703 464.959 323.079 462.065C322.923 462.926 323.314 463.706 324.543 464.308C328.34 464.801 332.175 464.925 335.996 464.681C340.492 464.511 344.987 464.198 349.458 463.714C352.094 463.431 358.033 463.655 359.932 461.765C360.849 460.263 361.476 458.601 361.778 456.867C362.587 454.323 363.077 451.688 363.236 449.024C365.067 443.723 368.482 433.388 369.241 430.394C370.343 426.074 374.695 405.859 373.542 401.83C371.034 403.828 373.175 403.013 352.704 428.29C351.944 429.145 351.308 430.102 350.814 431.133C350.433 432.035 348.856 444.874 348.484 448.929C339.651 450.219 331.357 453.961 324.545 459.729C324.471 459.166 324.228 458.639 323.849 458.217C325.569 456.395 333.501 447.917 336.903 443.861C345.751 433.272 368.523 402.77 377.568 394.087C380.334 391.342 383.855 389.484 387.682 388.751C403.504 384.917 419.423 386.051 435.513 384.836C457.383 383.179 473.043 371.536 480.389 353.786C481.1 352.083 485.927 339.655 486.448 337.719C490.315 323.549 491.191 308.729 489.019 294.203V294.203ZM313.305 464.357C311.699 464.252 305.205 459.392 303.666 458.255C297.917 453.685 292.515 448.694 287.504 443.324C307.522 449.461 312.093 454.842 321.071 458.951C319.14 461.252 315.927 464.527 313.305 464.357ZM328.965 460.755C330.376 459.338 331.986 458.134 333.744 457.18C342.781 452.22 349.367 452.625 351.821 451.837C354.173 452.568 356.635 452.88 359.095 452.76C358.607 454.972 358 457.156 357.277 459.302C348.174 461.186 338.876 461.963 329.586 461.616C329.36 461.622 328.59 461.26 328.963 460.755H328.965Z" fill="#121C3D"/>
<path d="M143.972 244.987C143.098 245.115 142.288 245.522 141.664 246.148C140.808 246.755 139.836 247.18 138.809 247.395C137.782 247.61 136.721 247.611 135.694 247.398C134.706 247.19 133.769 246.78 132.762 246.661C131.082 246.653 129.414 246.933 127.829 247.487C118.198 249.736 105.249 240.924 110.473 226.173C110.8 225.242 110.511 223.441 108.143 223.792C82.8387 227.548 69.5169 238.453 61.9056 261.538C57.6639 274.398 53.7408 301.979 58.1985 328.104C58.7175 331.429 59.7228 334.659 61.182 337.692C63.4149 342.157 100.262 342.687 116.189 335.847C118.295 334.946 123.952 326.716 123.646 326.716C119.696 326.697 115.81 325.714 112.325 323.851C105.173 319.756 99.2107 313.87 95.0238 306.771C83.0196 285.916 83.6838 261.479 88.4304 252.693C87.3258 263.531 87.6208 274.467 89.3079 285.231C90.4527 290.784 95.1345 289.645 99.63 289.043C104.793 288.354 109.788 286.733 114.372 284.259C115.187 283.911 115.871 283.313 116.324 282.552C116.651 281.861 115.155 265.413 114.477 257.982C114.604 258.293 120.134 284.512 120.236 285.117C120.677 288.252 121.41 291.339 122.426 294.338C123.549 289.208 126.476 275.254 126.922 273.364C127.494 273.216 140.859 284.38 141.129 284.313C141.399 284.245 151.273 269.5 157.888 264.187C158.529 263.758 159.212 263.396 159.926 263.107C159.926 263.107 146.24 245.049 143.972 244.987Z" fill="#5E66F6"/>
<path d="M176.955 193.822C172.938 191.506 170.697 195.091 159.675 186.64C155.717 183.603 151.162 180.387 145.967 180.344C139.396 180.284 134.128 185.695 130.307 190.463C125.194 196.822 119.991 204.466 121.036 212.522C116.945 217.264 115.198 217.957 113.651 220.666C113.593 220.772 113.568 220.893 113.577 221.014C113.587 221.135 113.632 221.251 113.706 221.347C113.78 221.443 113.88 221.515 113.994 221.555C114.109 221.596 114.233 221.602 114.35 221.573C117.009 220.502 119.311 218.701 120.99 216.378C124.98 211.853 120.663 214.315 130.002 212.628C125.374 218.4 121.775 225.334 122.688 232.686C123.047 235.611 124.028 238.425 125.565 240.94C127.102 243.455 129.159 245.612 131.598 247.266C133.367 248.385 135.378 249.066 137.463 249.254C139.548 249.442 141.648 249.131 143.589 248.346C147.31 246.263 150.307 243.093 152.177 239.26C154.391 235.667 156.077 231.774 157.186 227.702C159.961 228.46 161.271 228.334 162.262 224.821C163.593 220.096 163.69 214.863 165.051 210.154C167.938 210.399 170.83 209.733 173.319 208.249C175.808 206.765 177.769 204.538 178.926 201.882C179.685 200.54 179.903 198.959 179.537 197.462C179.171 195.964 178.247 194.663 176.955 193.822V193.822ZM132.405 202.387C132.644 201.57 133.107 200.837 133.743 200.271C134.378 199.704 135.159 199.328 135.998 199.185C136.837 199.041 137.699 199.136 138.486 199.459C139.274 199.781 139.955 200.319 140.451 201.01C138.939 202.648 135.151 206.742 134.781 207.149C133.396 205.832 131.911 204.717 132.405 202.387ZM144.015 234.865C143.432 236.361 141.485 236.042 140.419 235.283C139.821 234.822 139.335 234.232 138.997 233.556C138.659 232.88 138.479 232.137 138.469 231.382C138.477 231.229 138.527 231.081 138.615 230.956C138.703 230.83 138.825 230.732 138.966 230.673C139.108 230.614 139.263 230.596 139.414 230.622C139.565 230.647 139.705 230.715 139.819 230.818C140.494 231.493 141.016 232.343 141.755 232.951C142.441 233.531 144.358 233.939 144.002 234.865H144.015ZM159.651 223.382C158.962 225.976 159.246 225.396 156.681 224.618C156.319 224.523 155.934 224.572 155.609 224.757C155.283 224.942 155.043 225.247 154.939 225.607C154.567 226.687 154.148 227.767 153.727 228.874C150.166 223.776 141.07 227.362 137.227 222.599C136.367 221.198 135.905 219.589 135.89 217.945C135.876 216.301 136.309 214.684 137.144 213.268C139.948 208.167 143.789 203.71 148.419 200.183C149.906 202.671 151.901 204.818 154.273 206.483C156.646 208.147 159.343 209.293 162.189 209.844C161.579 214.399 160.727 218.917 159.637 223.382H159.651Z" fill="#121C3D"/>
<path d="M152.947 212.142C152.706 212.72 152.624 213.352 152.709 213.972C152.791 214.305 152.973 214.605 153.229 214.832C153.486 215.059 153.805 215.203 154.146 215.244C154.484 215.208 154.804 215.076 155.068 214.862C155.332 214.648 155.528 214.363 155.633 214.04C155.741 213.41 155.705 212.764 155.528 212.15C155.451 211.867 155.283 211.618 155.05 211.44C154.818 211.263 154.533 211.167 154.24 211.167C153.948 211.168 153.664 211.263 153.431 211.439C153.198 211.615 153.028 211.861 152.947 212.142Z" fill="#121C3D"/>
<path d="M153.036 210.411C154.88 209.836 155.895 210.83 156.892 210.2C157.034 210.113 157.144 209.982 157.207 209.827C157.269 209.672 157.281 209.501 157.24 209.339C156.727 207.322 153.608 208.154 152.35 208.799C152.169 208.91 152.034 209.082 151.97 209.285C151.905 209.487 151.916 209.705 151.999 209.901C152.082 210.096 152.232 210.255 152.423 210.348C152.613 210.442 152.831 210.464 153.036 210.411V210.411Z" fill="#121C3D"/>
<path d="M159.37 264.605C167.2 271.787 176.65 276.639 185.587 282.25C190.388 285.263 195.121 288.376 199.897 291.43C201.615 292.754 203.481 293.875 205.456 294.77C207.708 295.188 210.025 295.086 212.231 294.473C213.457 294.332 213.956 292.469 212.541 292.143C210.206 291.603 208.019 292.596 205.726 291.638C203.005 290.49 204.433 290.614 185.652 279.558C177.012 274.46 168.102 269.741 159.961 263.841C159.511 263.509 158.962 264.23 159.37 264.605Z" fill="#121C3D"/>
<path d="M145.409 281.021C149.44 285.071 153.779 288.792 159.719 289.391C159.839 289.389 159.956 289.352 160.056 289.285C160.155 289.217 160.233 289.122 160.28 289.011C160.327 288.9 160.34 288.778 160.318 288.659C160.297 288.541 160.241 288.431 160.159 288.344C158.024 286.753 155.714 285.411 153.274 284.345C150.844 283.049 148.481 281.518 146.167 280.044C146.103 279.994 146.03 279.957 145.951 279.936C145.873 279.914 145.791 279.909 145.711 279.919C145.63 279.929 145.552 279.955 145.482 279.995C145.411 280.035 145.349 280.089 145.299 280.153C145.249 280.217 145.213 280.291 145.191 280.369C145.17 280.447 145.164 280.529 145.174 280.61C145.184 280.691 145.21 280.768 145.25 280.839C145.291 280.91 145.344 280.971 145.409 281.021Z" fill="#121C3D"/>
<path d="M193.425 293.331C189.591 291.62 185.526 290.479 181.362 289.945C172.118 289.293 162.837 290.516 154.078 293.541C141.048 297.497 132.902 302.605 126.05 301.317C119.44 300.081 117.998 290.957 115.549 285.843C115.258 285.228 114.445 285.703 114.529 286.275C115.357 291.929 116.486 298.795 121.397 302.457C128.007 307.376 138.121 302.367 144.715 299.956C159.527 294.556 176.275 289.586 190.768 295.636C192.748 296.463 194.713 297.318 196.709 298.066C198.704 298.814 201.355 299.281 203.526 300.091C199.876 300.079 196.243 299.578 192.726 298.601C190.976 298.185 186.897 296.519 185.104 297.092C182.944 297.791 184.397 300.17 185.836 301.366C183.991 300.588 182.089 299.957 180.147 299.476C170.297 297.202 162.648 303.453 154.702 307.975C149.143 311.137 143.362 313.848 137.525 316.48C131.274 319.302 124.227 322.69 117.347 320.031C105.389 315.425 98.7174 303.739 94.1517 292.491C93.5415 290.979 91.0845 291.567 91.6434 293.182C94.7241 302.195 99.5031 311.453 106.944 317.617C116.864 325.82 124.051 325.623 134.444 321.321C144.897 316.63 155.083 311.363 164.954 305.545C173.888 300.623 177.047 301.463 184.972 303.877C186.462 304.33 190.755 305.351 190.056 302.257C189.875 301.661 189.473 301.158 188.932 300.85C188.263 300.31 184.845 299.419 186.395 298.855C187.585 298.415 189.148 299.414 190.345 299.808C192.027 300.364 193.703 300.939 195.377 301.495C198.22 302.443 205.818 304.249 207.174 300.121C208.078 297.416 197.346 294.98 193.425 293.331Z" fill="#121C3D"/>
<path d="M128.393 328.898C144.998 336.109 168.971 345.017 186.378 352.193C194.208 355.409 198.061 358.023 198.545 366.617C198.693 369.273 197.116 372.152 197.867 374.625C197.971 374.983 198.21 375.286 198.535 375.47C198.859 375.653 199.243 375.703 199.603 375.608C204.733 373.626 203.828 363.504 202.289 359.435C199.633 352.415 193.158 349.634 186.502 347.355C167.316 340.791 148.198 333.825 128.804 327.915C128.25 327.745 127.829 328.652 128.393 328.898Z" fill="#121C3D"/>
<path d="M130.469 438.942C129.989 437.789 120.053 414.226 118.43 411.024C126.652 408.82 134.036 404.608 137.832 397.003C138.132 396.462 138.208 395.826 138.045 395.231C137.881 394.635 137.491 394.127 136.957 393.816C136.424 393.505 135.79 393.415 135.191 393.565C134.592 393.715 134.076 394.095 133.753 394.621C126.139 405.51 112.223 407.684 99.7866 407.659C44.2341 407.541 14.1156 363.236 18.5166 322.753C20.2797 306.588 31.2066 284.683 49.6692 283.478C51.0192 283.397 51.4701 281.335 50.004 281.016C40.9239 279.058 32.9616 285.336 27.2592 291.792C2.5893 319.745 11.664 374.682 49.8474 399.227C40.4487 426.208 22.5612 457.501 19.8477 470.035C19.4454 471.895 22.1859 473.315 23.0877 471.404C23.2146 471.134 37.5327 448.683 43.5456 437.802C46.7451 432.011 49.8258 426.163 52.8849 420.298C55.7041 415.344 58.2223 410.224 60.426 404.968C64.8536 406.956 69.4352 408.581 74.1258 409.828C74.9007 413.13 76.0752 416.399 76.9257 419.642C77.7662 423.948 78.8946 428.193 80.3034 432.348C80.3814 432.534 80.5018 432.698 80.6551 432.828C80.8083 432.959 80.9901 433.051 81.1856 433.098C81.3811 433.145 81.5849 433.145 81.7806 433.099C81.9764 433.053 82.1584 432.961 82.3122 432.832C84.692 426.206 86.4051 419.36 87.426 412.395C92.5945 413.037 97.8043 413.286 103.01 413.138C113.832 430.188 114.526 428.493 131.298 457.294C134.468 462.742 137.222 468.666 140.816 473.839C141.396 474.671 142.976 474.277 142.819 473.28C143.329 473.04 135 449.742 130.469 438.942ZM31.1229 451.734C39.3147 433.145 47.7765 416.426 51.3729 400.18C53.6868 401.595 56.0601 402.897 58.4874 404.066C53.46 411.11 47.2851 425.658 31.1229 451.734V451.734ZM81.4617 425.388C81.1377 424.156 77.9517 413.321 76.8555 410.497C79.4988 411.113 82.1637 411.628 84.8502 412.028C84.051 414.582 84.1536 414.571 81.4617 425.388ZM106.215 412.968C109.286 412.767 112.339 412.36 115.355 411.747C116.888 415.722 118.865 419.577 120.55 423.463C132.135 449.947 129.654 445.076 135.67 459.869C134.425 457.823 114.969 424.915 106.215 412.973V412.968Z" fill="#121C3D"/>
<path d="M488.336 400.286C527.388 376.234 537.095 322.852 514.561 294.122C508.764 286.737 499.943 278.856 489.888 281.021C488.43 281.334 488.862 283.397 490.217 283.486C506.731 284.566 517.547 302.97 520.552 317.506C523.112 331.843 521.436 346.616 515.73 360.015C503.912 389.243 475.519 406.039 444.706 407.535C431.044 408.205 414.655 406.776 406.148 394.616C405.819 394.1 405.304 393.732 404.711 393.588C404.117 393.444 403.491 393.536 402.963 393.844C402.435 394.152 402.048 394.653 401.881 395.241C401.715 395.829 401.783 396.458 402.07 396.997C405.726 404.328 412.838 408.472 420.684 410.729C418.543 414.696 408.429 438.788 407.913 440.022C403.38 450.822 395.061 474.123 395.536 474.339C395.388 475.327 396.951 475.737 397.537 474.895C401.007 469.916 403.655 464.216 406.698 458.965C423.662 429.745 425.936 429.249 436.053 413.065C440.941 413.271 445.839 413.123 450.706 412.619C450.671 412.725 450.655 412.835 450.66 412.946C451.513 420.975 453.326 428.873 456.06 436.471C456.213 436.6 456.395 436.691 456.59 436.737C456.785 436.783 456.988 436.782 457.183 436.735C457.378 436.687 457.559 436.595 457.711 436.465C457.864 436.334 457.983 436.17 458.06 435.985C459.474 431.837 460.602 427.597 461.438 423.295C462.28 420.096 465.248 411.218 464.729 410.124C469.142 408.996 473.463 407.538 477.657 405.761C479.79 411.119 482.258 416.336 485.047 421.383C487.958 427.197 490.874 433.015 493.903 438.769C499.53 449.434 513.327 471.463 513.448 471.73C514.355 473.637 517.131 472.251 516.713 470.38C514.08 458.546 498.231 429.033 488.336 400.286ZM402.718 460.971C408.191 447.514 406.679 450.049 417.542 425.226C419.529 420.692 421.883 416.167 423.549 411.48C426.677 412.177 429.85 412.652 433.045 412.9C424.907 423.759 409.914 448.98 402.718 460.971ZM458.854 422.59C458.222 424.688 457.504 426.862 456.926 429.049C454.92 420.987 453.281 413.607 452.32 412.446C455.981 412.007 459.614 411.358 463.201 410.502C461.353 414.377 459.897 418.426 458.854 422.59V422.59ZM505.748 452.879C491.827 428.641 482.444 408.04 479.417 405.011C481.972 403.869 484.462 402.588 486.875 401.171C489.778 413.211 493.813 424.95 498.925 436.231C501.439 442.268 506.034 453.378 505.748 452.879Z" fill="#121C3D"/>
<path d="M214.65 359.092C227.478 359.834 286.74 356.972 341.372 355.549C341.963 355.521 342.521 355.266 342.93 354.837C343.338 354.408 343.566 353.839 343.566 353.246C343.566 352.654 343.338 352.085 342.93 351.656C342.521 351.227 341.963 350.972 341.372 350.943C331.482 351.213 224.383 354.753 214.65 355.803C214.214 355.803 213.796 355.976 213.487 356.285C213.179 356.593 213.006 357.011 213.006 357.448C213.006 357.884 213.179 358.302 213.487 358.61C213.796 358.919 214.214 359.092 214.65 359.092V359.092Z" fill="#121C3D"/>
<path d="M173.286 423.012C168.407 424.135 165.186 428.606 162.853 430.758C160.118 429.165 156.862 429.605 153.036 424.262C152.955 421.778 153.187 419.647 158.401 411.715C160.831 408.016 163.655 404.546 166.371 401.063C166.551 400.864 166.648 400.603 166.641 400.335C166.634 400.066 166.524 399.81 166.334 399.621C166.145 399.431 165.889 399.321 165.62 399.314C165.352 399.307 165.091 399.404 164.892 399.584C160.954 402.782 157.587 406.624 154.934 410.948C152.774 414.372 149.091 420.333 150.849 424.448C151.255 425.056 151.694 425.642 152.164 426.203C149.234 428.668 146.619 431.486 144.38 434.592C144.166 434.459 143.939 434.348 143.702 434.263C143.494 434.203 132.308 441.893 134.808 446.499C138.016 452.409 144.418 457.358 149.426 461.681C152.749 464.992 157.113 467.056 161.781 467.524C164.519 467.794 169.468 468.655 172.041 467.219C173.34 466.498 173.605 461.638 170.456 459.159C168.491 457.609 165.796 457.766 163.795 456.384C161.795 455.001 155.817 446.291 154.262 444.415C153.762 443.812 152.739 442.56 152.739 442.56C155.783 439.755 158.388 436.509 160.469 432.931C161.431 433.256 162.478 433.22 163.415 432.829C165.105 431.858 166.728 430.775 168.275 429.589C170.344 428.004 172.305 426.283 174.145 424.437C174.272 424.299 174.351 424.124 174.37 423.937C174.389 423.751 174.347 423.563 174.25 423.402C174.153 423.242 174.007 423.117 173.833 423.046C173.659 422.976 173.467 422.964 173.286 423.012V423.012ZM151.443 441.037C149.952 439.236 148.298 437.576 146.502 436.08C149.075 433.506 151.393 430.69 153.422 427.669C154.984 429.499 156.838 431.058 158.908 432.283C155.897 434.712 153.365 437.681 151.443 441.04V441.037Z" fill="#121C3D"/>
<path d="M252.561 451.902C248.737 450.698 244.708 450.29 240.721 450.703C234.009 450.881 218.983 452.196 215.76 452.674C215.857 452.496 212.231 445.886 209.768 441.682C211.035 441.142 212.776 440.367 212.687 439.039C212.649 438.85 206.28 409.782 202.5 396.117C199.309 384.583 195.593 371.893 187.92 362.44C180.419 353.19 168.966 350.519 157.801 348.4C150.984 347.107 131.115 342.238 127.95 341.315C124.747 340.07 121.411 339.195 118.009 338.71C116.475 338.629 116.119 340.697 117.272 341.442C119.75 343.062 131.954 346.315 135.148 347.142C160.879 353.8 175.184 352.558 185.271 365.583C196.819 380.497 199.419 403.183 210.217 437.403C209.817 437.551 205.694 439.428 204.007 439.897C201.227 440.468 198.42 440.892 195.596 441.169C194.746 438.901 179.963 425.193 168.056 392.704C167.533 390.556 166.786 388.468 165.829 386.475C164.025 383.689 153.87 387.909 130.531 387.218C111.702 386.659 90.8901 380.805 76.8015 368.412C66.9465 359.753 65.9691 353.697 62.5779 347.782C62.4913 347.643 62.3624 347.536 62.2104 347.476C62.0583 347.417 61.891 347.408 61.7333 347.45C61.5756 347.493 61.4359 347.585 61.3346 347.713C61.2334 347.842 61.1761 347.999 61.1712 348.162C60.8688 362.564 83.9511 389.264 127.653 391.589C133.918 391.856 140.194 391.7 146.437 391.119C152.352 390.921 158.243 390.276 164.06 389.191C164.624 393.2 165.788 397.102 167.513 400.764C171.312 411.095 176.356 420.923 182.536 430.032C185.522 434.454 188.371 439.692 192.569 443.011C194.425 443.889 196.495 444.215 198.531 443.95C200.029 448.085 201.894 452.077 204.104 455.879C203.937 459.106 204.175 462.341 204.811 465.51C205.194 467.453 206.089 469.26 207.403 470.742C209.174 472.092 212.077 471.366 214.069 471.12C223.366 469.708 232.466 467.213 241.183 463.687C243.988 462.445 246.689 460.978 249.259 459.302C251.022 458.149 253.506 457.01 254.043 454.823C254.076 454.249 253.956 453.676 253.696 453.163C253.435 452.649 253.044 452.214 252.561 451.902V451.902ZM206.607 454.804C204.848 451.025 202.875 447.35 200.696 443.796C203.265 443.551 205.8 443.029 208.256 442.241C209.288 446.13 211.035 449.792 213.408 453.041C211.093 453.425 208.817 454.014 206.607 454.801V454.804Z" fill="#121C3D"/>
<path d="M495.501 4.01208C366.598 16.1162 132.621 25.1072 76.0806 30.8123C75.7378 30.8436 75.4122 30.977 75.1461 31.1953C74.8799 31.4136 74.6854 31.7068 74.5877 32.0369C74.49 32.3669 74.4936 32.7187 74.598 33.0468C74.7024 33.3748 74.9028 33.6639 75.1734 33.8768C74.4741 42.749 76.1211 52.1855 76.761 60.9902C77.652 73.2266 83.1006 148.602 84.321 174.082C84.8421 184.861 84.3939 195.952 85.8384 206.644C86.1084 208.607 88.7787 207.819 88.9947 206.22C91.179 189.594 79.2747 42.7301 77.2956 34.0334C131.317 31.274 464.459 11.5451 494.446 8.71547C491.119 32.0462 490.153 55.8629 488.506 79.3367C486.387 109.247 484.382 139.165 482.49 169.09C481.427 179.385 480.953 189.732 481.07 200.081C481.151 201.576 483.467 202.068 483.808 200.451C485.254 191.829 486.066 183.114 486.238 174.374C487.11 160.785 496.422 18.854 497.41 7.33038C498.15 5.89398 497.51 3.82308 495.501 4.01208Z" fill="#121C3D"/>
<path d="M147.053 65.9095C146.756 66.3334 142.565 73.672 140.943 76.6798C139.011 79.4586 137.662 82.5997 136.976 85.9138C136.893 86.8831 138.091 87.1288 138.702 86.6293C141.523 84.3451 142.93 80.2735 144.582 77.1172C146.436 73.8338 148.09 70.4419 149.537 66.9598C150.088 65.4856 147.82 64.6297 147.053 65.9095Z" fill="#5E66F6"/>
<path d="M160.977 65.9179C158.948 69.0312 157.166 72.2982 155.647 75.6892C154.297 78.3163 152.158 81.1674 152.434 84.1968C152.438 84.412 152.497 84.6224 152.607 84.8077C152.716 84.9929 152.872 85.1466 153.058 85.2537C153.245 85.3609 153.456 85.4179 153.671 85.4191C153.887 85.4203 154.098 85.3657 154.286 85.2607C156.986 83.4355 157.88 79.8202 159.146 76.9258C160.763 73.6807 162.129 70.3166 163.231 66.8629C163.574 65.575 161.557 64.6003 160.977 65.9179Z" fill="#5E66F6"/>
<path d="M175.184 81.4616C179.234 81.6452 183.222 81.8045 187.269 81.7316C190.591 82.028 193.937 81.6355 197.1 80.5787C198.075 80.1386 197.659 78.7913 196.83 78.4943C193.46 77.7314 189.97 77.6552 186.57 78.2702C182.744 78.5402 178.994 79.0235 175.19 79.5068C174.93 79.5061 174.681 79.6084 174.498 79.7912C174.314 79.974 174.21 80.2223 174.209 80.4815C174.209 80.7407 174.311 80.9896 174.494 81.1734C174.677 81.3572 174.925 81.4609 175.184 81.4616V81.4616Z" fill="#5E66F6"/>
<path d="M209.485 80.7569C216.57 80.8973 224.235 81.8963 231.166 80.0792C231.377 80.0052 231.56 79.8673 231.69 79.6847C231.819 79.5021 231.889 79.2838 231.889 79.0599C231.889 78.8361 231.819 78.6178 231.69 78.4352C231.56 78.2526 231.377 78.1147 231.166 78.0407C224.111 76.715 216.556 78.1973 209.485 78.8507C209.232 78.8507 208.99 78.9511 208.811 79.1298C208.632 79.3086 208.532 79.551 208.532 79.8038C208.532 80.0566 208.632 80.299 208.811 80.4777C208.99 80.6565 209.232 80.7569 209.485 80.7569V80.7569Z" fill="#5E66F6"/>
<path d="M246.013 80.8623C250.314 80.7057 255.026 82.0611 259.243 81.1809C259.434 81.1233 259.603 81.012 259.732 80.8604C259.861 80.7088 259.943 80.5232 259.969 80.326C259.995 80.1288 259.963 79.9283 259.878 79.7486C259.793 79.5688 259.658 79.4174 259.489 79.3125C255.344 77.2227 250.112 78.5241 245.811 79.3962C245.642 79.4495 245.497 79.561 245.402 79.7108C245.307 79.8606 245.269 80.0392 245.293 80.2148C245.317 80.3904 245.403 80.5518 245.535 80.6703C245.666 80.7888 245.836 80.8569 246.013 80.8623V80.8623Z" fill="#5E66F6"/>
<path d="M280.716 64.9054C278.774 66.4987 277.189 68.4832 276.064 70.7295C274.939 72.9759 274.3 75.4339 274.188 77.9437C273.972 81.8965 274.998 88.7059 279.331 90.1342C279.516 90.1831 279.709 90.1892 279.897 90.152C280.084 90.1149 280.26 90.0356 280.412 89.9199C280.565 89.8043 280.688 89.6556 280.774 89.4849C280.86 89.3143 280.906 89.1264 280.908 88.9354C280.687 87.1695 280.138 85.4606 279.288 83.8972C278.238 80.9068 277.94 77.7044 278.419 74.5716C278.898 71.4388 280.139 68.4717 282.034 65.9314C282.674 65.1214 281.399 64.3303 280.716 64.9054Z" fill="#5E66F6"/>
<path d="M290.928 78.8075C302.121 79.4679 313.345 79.4382 324.535 78.7184C329.092 78.8145 333.639 78.2506 338.035 77.0444C339.225 76.5962 339.574 74.5361 338.035 74.2607C333.782 73.8474 329.495 73.938 325.264 74.5307C307.714 75.6107 295.294 75.4325 290.933 75.7133C290.572 75.7803 290.246 75.9715 290.011 76.2536C289.776 76.5357 289.647 76.891 289.647 77.2581C289.646 77.6252 289.774 77.981 290.008 78.264C290.242 78.5469 290.567 78.7391 290.928 78.8075V78.8075Z" fill="#5E66F6"/>
<path d="M270 67.5621C266.733 65.907 265.41 70.281 267.862 71.7147C270.934 73.5345 272.341 68.7474 270 67.5621Z" fill="#5E66F6"/>
<path d="M266.49 80.7731C267.276 82.3526 268.761 82.3931 269.765 80.7731C269.931 80.4858 270.018 80.1599 270.018 79.8283C270.017 79.4967 269.93 79.1709 269.764 78.8838C269.598 78.5967 269.359 78.3582 269.072 78.1925C268.785 78.0267 268.459 77.9395 268.128 77.9395C267.796 77.9395 267.47 78.0267 267.183 78.1925C266.896 78.3582 266.657 78.5967 266.491 78.8838C266.325 79.1709 266.238 79.4967 266.238 79.8283C266.237 80.1599 266.324 80.4858 266.49 80.7731V80.7731Z" fill="#5E66F6"/>
<path d="M343.305 65.7693C350.158 78.6132 344.039 84.2075 341.75 89.9126C341.28 91.0871 342.77 91.8323 343.678 91.3922C350.746 88.0307 352.858 71.8604 344.758 64.6379C344.594 64.4937 344.385 64.4111 344.167 64.4045C343.948 64.3979 343.735 64.4677 343.563 64.6018C343.39 64.7359 343.27 64.9259 343.223 65.1391C343.176 65.3522 343.205 65.5751 343.305 65.7693V65.7693Z" fill="#5E66F6"/>
<path d="M365.893 64.7702C357.002 68.9066 356.262 85.787 366.433 88.8461C366.679 88.9068 366.937 88.8948 367.176 88.8114C367.415 88.728 367.624 88.577 367.779 88.3766C367.933 88.1763 368.026 87.9353 368.046 87.6831C368.066 87.4309 368.012 87.1783 367.891 86.9561C365.815 83.87 363.301 81.4346 362.875 77.5358C362.784 75.4833 363.117 73.434 363.853 71.5159C364.589 69.5978 365.713 67.852 367.154 66.3875C367.33 66.2088 367.436 65.972 367.45 65.7214C367.465 65.4708 367.388 65.2235 367.233 65.0255C367.079 64.8275 366.858 64.6924 366.611 64.6455C366.365 64.5985 366.11 64.6428 365.893 64.7702V64.7702Z" fill="#5E66F6"/>
<path d="M383.197 82.6631C382.888 82.9013 382.535 83.0753 382.157 83.175C381.78 83.2747 381.386 83.298 381 83.2436C377.657 82.1987 381.488 78.065 378.948 74.1635C379.347 73.1721 379.595 72.1263 379.685 71.0612C379.639 70.2512 379.177 69.4979 379.118 68.7311C378.983 66.9518 379.498 63.9143 382.177 65.2211C382.868 65.564 383.948 64.7891 383.368 64.0304C382.851 63.3276 382.143 62.7875 381.329 62.474C380.515 62.1605 379.628 62.0868 378.773 62.2614C377.918 62.4361 377.131 62.8519 376.505 63.4596C375.879 64.0673 375.44 64.8416 375.241 65.6909C375.016 66.5603 375.643 71.7794 375.575 72.1142C372.681 71.72 372.262 75.8186 374.52 75.9455C376.312 76.0508 375.359 82.0205 375.681 83.1356C375.988 84.1138 376.538 84.9986 377.279 85.7078C378.019 86.417 378.927 86.9278 379.917 87.1927C380.908 87.4577 381.95 87.4683 382.945 87.2235C383.941 86.9787 384.859 86.4865 385.614 85.7924C385.934 85.4439 386.12 84.9937 386.14 84.5213C386.16 84.0488 386.012 83.5845 385.723 83.2102C385.434 82.8359 385.022 82.5758 384.56 82.4757C384.098 82.3756 383.615 82.442 383.197 82.6631V82.6631Z" fill="#5E66F6"/>
<path d="M401.333 72.6812C400.685 72.8162 401.379 67.4513 401.252 66.8114C401.103 65.911 400.685 65.0767 400.055 64.417C399.424 63.7574 398.609 63.3031 397.716 63.1134C396.824 62.9237 395.895 63.0073 395.05 63.3534C394.206 63.6995 393.485 64.292 392.982 65.0537C392.485 65.8043 393.452 66.6602 394.173 66.2444C396.117 65.1347 397.413 66.9221 397.683 68.7905C397.867 70.1405 395.971 71.8496 397.988 74.9384C397.267 76.0574 397.016 77.4154 397.289 78.7184C397.437 80.8325 398.01 85.7897 394.386 83.7431C392.496 82.6631 390.136 85.409 391.956 86.8832C392.74 87.5419 393.676 87.993 394.679 88.1948C395.683 88.3966 396.721 88.3427 397.698 88.0379C398.675 87.7332 399.56 87.1875 400.271 86.4511C400.981 85.7147 401.495 84.8113 401.765 83.8241C402.035 82.7144 401.007 77.2523 401.744 76.6286C404.563 76.6016 404.147 72.8216 401.333 72.6812Z" fill="#5E66F6"/>
<path d="M435.113 80.9891C434.804 81.2268 434.451 81.4006 434.074 81.5002C433.697 81.5999 433.304 81.6235 432.918 81.5696C429.554 80.5166 433.415 76.4072 430.863 72.4895C431.433 71.5592 431.691 70.4716 431.6 69.3845C431.557 68.5745 431.096 67.8239 431.036 67.0571C430.901 65.2778 431.414 62.2403 434.095 63.5471C434.786 63.89 435.866 63.1151 435.286 62.3564C434.768 61.6546 434.061 61.1155 433.247 60.8028C432.433 60.49 431.546 60.4165 430.692 60.5911C429.838 60.7656 429.051 61.1809 428.425 61.7879C427.799 62.3949 427.36 63.1684 427.159 64.0169C426.935 64.8863 427.561 70.1054 427.494 70.4402C427.321 70.424 427.143 70.4024 426.954 70.4024C426.486 70.4173 426.038 70.5977 425.69 70.9115C425.343 71.2253 425.118 71.6522 425.055 72.1164C424.993 72.5805 425.097 73.0517 425.349 73.4464C425.601 73.841 425.985 74.1333 426.433 74.2715C428.822 74.8682 427.275 80.3438 427.594 81.4616C427.902 82.4399 428.452 83.3246 429.192 84.0337C429.933 84.7429 430.841 85.2536 431.832 85.5185C432.823 85.7834 433.864 85.794 434.86 85.5493C435.856 85.3045 436.774 84.8124 437.53 84.1184C437.845 83.769 438.028 83.3198 438.046 82.8492C438.064 82.3787 437.917 81.9167 437.629 81.544C437.341 81.1713 436.932 80.9116 436.472 80.8102C436.012 80.7087 435.531 80.7721 435.113 80.9891Z" fill="#5E66F6"/>
<path d="M415.028 81.8883C412.933 84.5397 409.504 88.4979 410.049 92.0997C410.094 92.2563 410.175 92.4005 410.284 92.5217C410.393 92.6429 410.528 92.7378 410.678 92.7993C410.829 92.8609 410.992 92.8875 411.155 92.8772C411.318 92.8668 411.476 92.8198 411.618 92.7396C413.573 91.3032 413.508 89.559 417.164 83.5407C417.944 82.2528 416.003 80.6517 415.028 81.8883Z" fill="#5E66F6"/>
<path d="M214.302 174.188C214.234 172.938 214.256 171.658 214.226 170.392C214.574 170.487 214.917 170.602 215.252 170.734C216.742 171.337 217.604 169.239 216.705 168.242C215.947 167.43 214.921 166.919 213.816 166.806C213.699 166.302 213.54 165.809 213.34 165.332C213.154 164.9 212.595 165.04 212.374 165.332C211.986 165.855 211.67 166.428 211.434 167.035C210.438 167.391 209.568 168.032 208.932 168.878C208.297 169.724 207.924 170.738 207.86 171.794C207.795 172.85 208.043 173.902 208.571 174.818C209.1 175.735 209.886 176.476 210.832 176.95C210.878 177.641 210.913 178.362 210.981 179.094C210.638 178.823 210.206 178.693 209.771 178.728C209.336 178.764 208.931 178.963 208.637 179.285C207.068 180.708 208.813 184.062 212.315 184.607C212.584 185.124 212.919 185.604 213.311 186.035C213.469 186.19 213.664 186.3 213.878 186.357C214.091 186.413 214.316 186.413 214.529 186.357C214.743 186.302 214.938 186.191 215.097 186.037C215.255 185.883 215.371 185.691 215.433 185.479C215.529 185.068 215.594 184.65 215.625 184.229C216.632 183.739 217.46 182.944 217.991 181.958C218.522 180.971 218.728 179.842 218.582 178.732C218.436 177.621 217.944 176.584 217.175 175.769C216.407 174.953 215.402 174.4 214.302 174.188Z" fill="#5E66F6"/>
<path d="M233.01 176.747C244.62 176.969 256.23 177.59 267.84 177.082C268.383 177.082 268.903 176.867 269.287 176.483C269.671 176.099 269.887 175.578 269.887 175.036C269.887 174.493 269.671 173.972 269.287 173.588C268.903 173.205 268.383 172.989 267.84 172.989C256.208 173.019 244.598 174.174 233.01 174.933C232.769 174.933 232.539 175.029 232.368 175.199C232.198 175.369 232.103 175.6 232.103 175.84C232.103 176.081 232.198 176.312 232.368 176.482C232.539 176.652 232.769 176.747 233.01 176.747V176.747Z" fill="#5E66F6"/>
<path d="M278.959 167.322C277.852 167.492 277.673 168.69 277.673 169.376C277.721 169.939 277.979 170.463 278.395 170.846C278.811 171.228 279.355 171.44 279.92 171.44C280.485 171.44 281.029 171.228 281.445 170.846C281.861 170.463 282.118 169.939 282.166 169.376C282.117 168.892 281.921 168.435 281.604 168.065C281.287 167.696 280.866 167.431 280.395 167.308C279.921 167.204 279.43 167.208 278.959 167.322Z" fill="#5E66F6"/>
<path d="M279.733 180.395C280.205 180.355 280.645 180.139 280.966 179.79C281.286 179.442 281.464 178.985 281.464 178.512C281.464 178.038 281.286 177.582 280.966 177.233C280.645 176.884 280.205 176.668 279.733 176.628C279.262 176.668 278.822 176.884 278.501 177.233C278.181 177.582 278.003 178.038 278.003 178.512C278.003 178.985 278.181 179.442 278.501 179.79C278.822 180.139 279.262 180.355 279.733 180.395V180.395Z" fill="#5E66F6"/>
<path d="M296.001 163.48C286.3 171.85 287.24 188.897 296.619 187.823C297.402 187.734 297.878 186.67 297.051 186.222C288.835 181.742 293.971 170.562 297.462 164.622C297.573 164.426 297.611 164.197 297.567 163.976C297.524 163.755 297.402 163.558 297.225 163.419C297.048 163.28 296.827 163.21 296.602 163.221C296.377 163.232 296.164 163.324 296.001 163.48V163.48Z" fill="#5E66F6"/>
<path d="M301.822 168.337C301.915 169.818 302.082 171.295 302.322 172.759C302.53 174.053 302.592 175.7 303.92 176.302C304.158 176.432 304.431 176.483 304.7 176.448C304.969 176.414 305.219 176.294 305.416 176.107C306.428 174.976 305.996 173.764 305.654 172.4C305.28 170.907 304.816 169.439 304.263 168.002C303.809 166.782 301.733 166.828 301.822 168.337Z" fill="#5E66F6"/>
<path d="M305.5 167.451C305.85 170.145 306.81 172.724 308.305 174.992C308.457 175.136 308.647 175.233 308.852 175.27C309.058 175.308 309.27 175.286 309.463 175.205C309.656 175.125 309.821 174.99 309.939 174.818C310.057 174.646 310.123 174.443 310.127 174.234C310.128 172.924 309.831 171.631 309.258 170.454C308.822 169.212 308.272 168.013 307.614 166.873C307.076 166.009 305.338 166.26 305.5 167.451Z" fill="#5E66F6"/>
<path d="M317.423 179.823C327.923 179.577 338.364 179.086 348.843 178.273C351.03 178.103 351.024 174.641 348.843 174.857C338.365 175.871 327.892 176.89 317.423 177.916C316.224 178.027 316.17 179.85 317.423 179.823Z" fill="#5E66F6"/>
<path d="M350.347 165.213C349.864 166.098 349.614 167.091 349.617 168.099C349.621 169.107 349.879 170.098 350.368 170.98C351.062 172.26 353.435 171.763 353.257 170.2C353.092 168.763 353.003 167.327 352.863 165.88C352.86 165.584 352.76 165.298 352.579 165.064C352.398 164.831 352.145 164.663 351.859 164.588C351.573 164.512 351.27 164.532 350.997 164.645C350.724 164.758 350.495 164.957 350.347 165.213Z" fill="#5E66F6"/>
<path d="M354.194 165.451C354.194 166.73 354.224 168.01 354.237 169.29C354.158 169.855 354.192 170.43 354.337 170.982C354.481 171.534 354.734 172.052 355.08 172.506C356.311 173.802 359.362 171.355 356.397 164.848C355.89 163.739 354.205 164.352 354.194 165.451Z" fill="#5E66F6"/>
<path d="M367.74 167.624C366.736 166.209 365.099 164.179 363.185 164.641C363.007 164.694 362.855 164.814 362.763 164.976C362.67 165.138 362.644 165.329 362.688 165.51C362.81 166.282 364.37 167.362 365.226 169.463C366.287 171.728 366.594 174.273 366.104 176.726C365.542 178.851 364.348 180.756 362.68 182.188C361.222 183.454 359.456 183.959 358.506 185.698C358.361 185.949 358.32 186.247 358.394 186.527C358.468 186.808 358.65 187.047 358.9 187.194C364.532 189.651 369.506 180.965 369.957 176.418C370.297 173.316 369.51 170.194 367.74 167.624V167.624Z" fill="#5E66F6"/>
<path d="M376.169 181.78C374.525 182.188 374.101 183.438 373.44 184.853C370.443 191.265 374.344 190.793 374.973 190.039C375.784 188.89 376.49 187.67 377.085 186.394C377.625 184.912 378.211 183.721 377.339 182.255C377.221 182.061 377.043 181.91 376.833 181.824C376.622 181.739 376.39 181.723 376.169 181.78V181.78Z" fill="#5E66F6"/>
<path d="M145.43 130.926C155.706 132.041 166.558 131.031 176.88 130.726C187.359 130.413 197.836 129.971 208.31 129.4C210.632 129.273 210.646 125.642 208.31 125.769C160.852 128.398 159.254 126.392 145.43 128.061C145.061 128.077 144.712 128.235 144.457 128.502C144.201 128.769 144.059 129.124 144.059 129.493C144.059 129.863 144.201 130.218 144.457 130.485C144.712 130.752 145.061 130.91 145.43 130.926V130.926Z" fill="#5E66F6"/>
<path d="M215.581 118.965C215.282 118.972 214.987 119.046 214.72 119.183C214.453 119.319 214.22 119.514 214.038 119.753C213.856 119.992 213.731 120.269 213.671 120.563C213.611 120.857 213.618 121.16 213.691 121.451C213.695 121.857 213.811 122.255 214.026 122.599C214.265 122.842 214.563 123.019 214.89 123.115C215.217 123.21 215.563 123.22 215.896 123.144C216.228 123.068 216.535 122.908 216.788 122.679C217.04 122.45 217.23 122.16 217.339 121.837C217.52 121.163 217.52 120.452 217.339 119.777C217.04 119.116 216.154 118.965 215.581 118.965Z" fill="#5E66F6"/>
<path d="M213.459 129.522C213.429 129.832 213.463 130.145 213.557 130.441C213.652 130.738 213.806 131.013 214.01 131.248C214.214 131.483 214.464 131.675 214.744 131.81C215.025 131.946 215.33 132.024 215.641 132.038C215.954 132.024 216.262 131.947 216.545 131.812C216.828 131.677 217.081 131.487 217.29 131.252C217.498 131.018 217.657 130.743 217.757 130.446C217.858 130.149 217.897 129.835 217.874 129.522C217.884 129.225 217.835 128.93 217.728 128.653C217.622 128.376 217.461 128.124 217.255 127.91C217.049 127.697 216.803 127.527 216.53 127.411C216.257 127.296 215.963 127.236 215.667 127.236C215.37 127.236 215.077 127.296 214.804 127.411C214.531 127.527 214.284 127.697 214.078 127.91C213.872 128.124 213.711 128.376 213.605 128.653C213.498 128.93 213.449 129.225 213.459 129.522Z" fill="#5E66F6"/>
<path d="M227.84 128.007C239.173 128.598 250.53 128.558 261.859 127.888C265.104 128.089 268.358 127.681 271.453 126.684C272.681 126.144 272.147 124.429 271.112 124.07C267.584 123.31 263.946 123.204 260.38 123.76C249.499 123.978 238.64 124.8 227.85 126.222C227.622 126.233 227.407 126.331 227.248 126.497C227.09 126.662 227.001 126.881 227 127.109C226.999 127.338 227.085 127.558 227.241 127.725C227.397 127.892 227.611 127.993 227.84 128.007V128.007Z" fill="#5E66F6"/>
<path d="M278 129.9C276.974 135.281 274.444 136.361 273.899 138.756C273.846 138.965 273.849 139.185 273.906 139.393C273.964 139.602 274.074 139.792 274.227 139.945C274.38 140.097 274.57 140.208 274.778 140.266C274.987 140.323 275.207 140.326 275.416 140.273C279.382 139.536 280.581 133.472 280.233 130.205C280.114 129.036 278.262 128.531 278 129.9Z" fill="#5E66F6"/>
<path d="M293.614 116.189C283.989 126.43 289.47 137.538 295.971 137.141C296.22 137.133 296.459 137.046 296.655 136.891C296.85 136.737 296.99 136.524 297.055 136.284C297.12 136.044 297.106 135.789 297.016 135.558C296.925 135.326 296.762 135.129 296.552 134.997C289.564 129.951 291.873 124.078 294.997 117.255C295.393 116.405 294.349 115.409 293.614 116.189Z" fill="#5E66F6"/>
<path d="M309.191 123.274C309.212 122.01 309.236 120.744 309.191 119.494C309.941 119.22 310.716 119.018 311.504 118.892C312.217 118.773 312.255 117.887 311.891 117.434C311.515 116.939 311.028 116.54 310.469 116.27C309.91 116 309.296 115.866 308.675 115.878L308.632 115.671C308.595 115.549 308.524 115.441 308.427 115.359C308.331 115.277 308.213 115.224 308.087 115.208C307.961 115.191 307.833 115.211 307.719 115.266C307.604 115.32 307.508 115.406 307.441 115.514C307.314 115.722 307.217 115.938 307.106 116.154C301.976 117.847 300.27 124.54 305.065 126.981C305.03 127.521 304.976 128.112 304.941 128.709C302.827 128.417 300.756 131.179 302.721 133.002C303.522 133.745 304.486 134.29 305.535 134.595C306.68 137.103 308.327 137.168 309.234 134.654C310.477 134.305 311.571 133.557 312.348 132.527C313.126 131.496 313.544 130.239 313.54 128.948C313.535 127.656 313.107 126.403 312.321 125.378C311.536 124.353 310.436 123.614 309.191 123.274V123.274Z" fill="#5E66F6"/>
<path d="M325.512 117.744C321.241 120.015 319.505 125.604 319.766 130.226C319.966 133.79 323.33 139.655 327.559 137.23C327.767 137.102 327.943 136.93 328.076 136.725C328.209 136.52 328.294 136.288 328.325 136.046C328.356 135.804 328.333 135.558 328.257 135.326C328.181 135.094 328.054 134.882 327.885 134.706C326.23 132.713 323.892 133.65 323.949 127.346C323.915 124.294 324.827 121.307 326.56 118.795C327.029 118.125 326.138 117.412 325.512 117.744Z" fill="#5E66F6"/>
<path d="M333.199 118.541C332.207 120.644 331.795 122.975 332.008 125.291C332.068 127.002 334.881 127.583 335.156 125.715C335.678 123.327 335.532 120.842 334.732 118.533C334.651 118.402 334.538 118.295 334.403 118.221C334.268 118.147 334.117 118.109 333.963 118.109C333.81 118.11 333.659 118.15 333.525 118.226C333.391 118.301 333.279 118.41 333.199 118.541V118.541Z" fill="#5E66F6"/>
<path d="M336.96 117.202C336.328 119.383 335.451 122.858 337.23 124.71C337.384 124.859 337.574 124.965 337.781 125.019C337.988 125.073 338.206 125.072 338.413 125.018C338.62 124.964 338.809 124.858 338.963 124.709C339.118 124.561 339.231 124.375 339.293 124.17C339.562 123.102 339.575 121.986 339.331 120.911C339.203 119.787 339.191 118.653 339.293 117.526C339.414 116.154 337.314 115.952 336.96 117.202Z" fill="#5E66F6"/>
<path d="M345.47 128.76C366.112 128.363 357.92 128.674 374.117 127.74C376.948 127.924 379.79 127.821 382.601 127.434C382.844 127.364 383.065 127.232 383.242 127.051C383.419 126.87 383.546 126.646 383.61 126.401C383.675 126.156 383.675 125.899 383.61 125.654C383.545 125.409 383.418 125.185 383.241 125.004C380.87 122.493 378.097 123.241 366.231 124.194C359.257 124.759 352.396 125.682 345.457 126.508C344.072 126.676 343.98 128.79 345.47 128.76Z" fill="#5E66F6"/>
<path d="M386.74 111.367C386.038 115.217 385.104 117.806 386.672 119.092C386.909 119.317 387.211 119.461 387.535 119.503C387.859 119.545 388.188 119.482 388.473 119.324C390.722 117.879 389.613 113.964 389.461 111.731C389.359 110.282 387.034 109.739 386.74 111.367Z" fill="#5E66F6"/>
<path d="M390.96 112.242C390.536 114.869 389.264 118.597 390.59 121.09C390.694 121.26 390.84 121.401 391.014 121.498C391.188 121.596 391.384 121.647 391.584 121.647C391.783 121.647 391.979 121.596 392.153 121.498C392.327 121.401 392.473 121.26 392.577 121.09C394.079 118.881 393.252 115.039 393.133 112.531C393.079 111.353 391.173 110.943 390.96 112.242Z" fill="#5E66F6"/>
<path d="M396.957 113.154C397.667 119.424 404.144 127.653 394.354 133.018C393.983 133.248 393.697 133.591 393.536 133.996C393.376 134.402 393.351 134.848 393.464 135.269C393.578 135.69 393.824 136.063 394.166 136.333C394.508 136.603 394.928 136.756 395.364 136.768C400.062 136.426 403.051 131.908 403.782 127.57C404.122 124.82 403.814 122.029 402.882 119.42C401.951 116.811 400.422 114.456 398.417 112.544C397.931 112.104 396.868 112.358 396.957 113.154Z" fill="#5E66F6"/>
<path d="M409.504 128.955C408.52 130.343 407.678 131.826 406.99 133.383C406.583 133.949 406.313 134.602 406.201 135.29C406.088 135.978 406.137 136.683 406.342 137.349C406.463 137.548 406.645 137.703 406.861 137.79C407.077 137.877 407.315 137.892 407.541 137.832C409.007 137.497 409.639 135.861 410.241 134.616C410.99 133.148 411.594 131.611 412.047 130.026C412.129 129.703 412.092 129.361 411.943 129.062C411.794 128.763 411.544 128.527 411.236 128.398C410.928 128.268 410.584 128.253 410.267 128.355C409.949 128.457 409.678 128.67 409.504 128.955V128.955Z" fill="#5E66F6"/>
<path d="M432.57 118.565C429.943 117.809 427.291 117.061 424.621 116.473C422.083 115.914 417.253 114.583 416.715 116.71C415.935 119.807 422.239 120.425 425.774 121.3C423.128 122.378 420.581 123.683 418.16 125.199C416.866 126.068 417.155 128.725 419.053 128.496C424.081 127.423 428.851 125.378 433.093 122.475C433.448 122.256 433.732 121.938 433.911 121.561C434.089 121.184 434.155 120.764 434.099 120.35C434.044 119.937 433.87 119.548 433.599 119.231C433.327 118.915 432.97 118.683 432.57 118.565V118.565Z" fill="#5E66F6"/>
<path d="M138.88 133.167C135.921 132.005 132.862 131.118 129.74 130.515C131.561 129.519 133.312 128.401 134.981 127.167C135.613 126.608 136.887 124.651 134.46 124.286C132.681 124.016 125.879 127.896 123.044 129.362C122.699 129.583 122.423 129.898 122.25 130.27C122.077 130.641 122.013 131.055 122.066 131.461C122.119 131.868 122.286 132.251 122.549 132.566C122.812 132.881 123.159 133.115 123.549 133.24C127.888 134.765 133.329 136.879 137.994 136.455C139.528 136.32 140.67 133.95 138.88 133.167Z" fill="#5E66F6"/>
<path d="M203.947 226.411C203.658 226.411 203.37 226.438 203.086 226.492C201.261 226.298 202.721 221.662 202.892 220.433C203.548 215.657 200.694 213.092 197.845 213.357C197.461 213.363 197.089 213.492 196.784 213.725C196.479 213.959 196.256 214.284 196.15 214.653C195.912 216.273 196.69 218.163 198.701 217.339C199.884 219.021 198.099 224.945 198.798 226.805C199.081 227.604 199.543 228.327 200.148 228.92C199.846 229.618 199.668 230.363 199.622 231.123C199.58 232.971 199.704 234.819 199.994 236.644C198.758 234.247 195.029 236.39 196.36 238.764C196.857 239.527 197.589 240.108 198.445 240.419C199.302 240.729 200.236 240.753 201.107 240.486C201.978 240.218 202.738 239.675 203.273 238.938C203.807 238.201 204.088 237.309 204.071 236.399C204.152 235.521 203.089 230.189 203.945 230.189C205.697 230.17 206.01 226.406 203.947 226.411Z" fill="#5E66F6"/>
<path d="M274.927 225.472C270.148 224.478 266.987 224.875 243.653 225.904C238.691 226.12 220.798 225.86 219.124 227.853C218.819 228.169 218.649 228.591 218.649 229.03C218.649 229.469 218.819 229.891 219.124 230.207C221.119 232.052 226.187 230.712 228.763 230.577C265.197 228.612 269.587 228.774 274.933 226.865C275.543 226.641 275.67 225.642 274.927 225.472Z" fill="#5E66F6"/>
<path d="M290.436 216.022C288.762 219.564 287.034 223.042 285.271 226.552C283.97 229.135 281.721 231.754 283.03 234.614C283.158 234.83 283.354 234.997 283.586 235.091C283.819 235.185 284.076 235.199 284.318 235.132C287.339 234.263 288.025 230.118 289.103 227.467C290.509 224 292.467 220.279 291.975 216.445C291.87 215.725 290.831 215.187 290.436 216.022Z" fill="#5E66F6"/>
<path d="M301.25 213.551C298.994 216.469 297.286 219.772 296.212 223.301C294.843 226.573 292.504 230.467 293.107 234.055C293.309 235.254 294.835 235.364 295.593 234.708C298.131 232.548 298.833 228.123 299.813 225.013C301.302 221.517 302.151 217.784 302.322 213.988C302.316 213.867 302.276 213.749 302.206 213.649C302.136 213.55 302.039 213.472 301.926 213.426C301.813 213.38 301.689 213.368 301.57 213.39C301.45 213.412 301.339 213.468 301.25 213.551V213.551Z" fill="#5E66F6"/>
<path d="M309.228 226.452C314.443 227.165 319.703 227.497 324.967 227.443C330.029 227.54 336.064 228.409 340.948 226.973C341.378 226.842 341.754 226.577 342.022 226.216C342.29 225.855 342.434 225.417 342.434 224.968C342.434 224.519 342.29 224.081 342.022 223.72C341.754 223.359 341.378 223.094 340.948 222.963C335.983 221.802 330.051 222.896 324.967 223.112C319.704 223.169 314.449 223.529 309.228 224.192C308.982 224.262 308.766 224.41 308.612 224.614C308.458 224.817 308.374 225.066 308.374 225.322C308.374 225.577 308.458 225.826 308.612 226.03C308.766 226.234 308.982 226.382 309.228 226.452V226.452Z" fill="#5E66F6"/>
</svg>
