<svg width="650" height="550" viewBox="0 0 650 550" fill="none" xmlns="http://www.w3.org/2000/svg">
<g clip-path="url(#clip0_818_9020)">
<path d="M516.475 408.714C514.81 403.343 513.568 394.955 512.227 388.423C512.422 388.408 512.612 388.354 512.786 388.263C512.959 388.173 513.113 388.048 513.237 387.896C513.361 387.745 513.453 387.57 513.507 387.382C513.562 387.194 513.578 386.997 513.554 386.802C513.531 386.618 513.471 386.439 513.378 386.278C513.284 386.117 513.16 385.976 513.012 385.863C512.863 385.751 512.694 385.669 512.513 385.623C512.333 385.577 512.145 385.567 511.961 385.594C511.667 385.622 511.401 385.622 511.108 385.652C510.87 385.508 510.595 385.436 510.317 385.446C510.039 385.456 509.771 385.548 509.545 385.71C488.974 386.703 478.17 387.963 461.828 386.154C461.481 386.12 461.132 386.165 460.805 386.284C460.478 386.404 460.182 386.595 459.939 386.844C459.696 387.092 459.511 387.393 459.399 387.722C459.287 388.052 459.251 388.402 459.292 388.748C460.34 396.333 461.104 401.033 462.653 409.223C462.751 409.721 463.013 410.173 463.398 410.504C463.783 410.836 464.268 411.029 464.776 411.052C480.32 412.075 498.065 411.256 514.322 411.465C514.659 411.466 514.992 411.39 515.295 411.243C515.599 411.096 515.864 410.882 516.072 410.616C516.28 410.351 516.424 410.042 516.494 409.712C516.564 409.382 516.558 409.041 516.475 408.714Z" fill="#0096FF"/>
<path d="M153.501 393.037C153.754 392.87 153.947 392.626 154.05 392.341C154.154 392.056 154.164 391.745 154.078 391.455C153.992 391.164 153.815 390.909 153.573 390.726C153.331 390.543 153.037 390.443 152.734 390.44C150.638 390.396 148.604 390.235 146.513 390.177C136.736 389.897 131.405 390.628 122.035 390.737C92.5268 391.078 101.416 391.218 95.1101 390.853C94.3338 390.81 93.5557 390.81 92.7794 390.853C92.2072 390.896 91.6709 391.148 91.2735 391.562C90.8761 391.976 90.6455 392.522 90.6261 393.095C90.3026 399.774 90.4897 406.469 91.1857 413.12C91.265 413.685 91.5488 414.201 91.9834 414.571C92.418 414.941 92.9732 415.138 93.5438 415.126C114.387 414.546 140.053 416.167 152.293 415.273C152.84 415.239 153.352 414.991 153.716 414.582C154.081 414.173 154.268 413.636 154.238 413.089C153.805 406.247 153.655 399.886 153.501 393.037Z" fill="#0096FF"/>
<path d="M629.545 414.385C632.029 415.873 632.579 419.941 632.818 422.818C633.033 425.207 633.541 439.164 633.466 447.531C633.207 460.499 632.128 463.201 632.613 468.47C633.152 474.026 635.773 478.025 641.165 476.848C649.447 475.012 649.648 465.245 648.86 456.851C648.01 447.869 647.802 439.471 647.741 430.458C648.189 425.086 647.891 419.677 646.857 414.385C644.833 407.605 640.301 401.957 633.644 401.292C633.253 401.237 632.856 401.34 632.541 401.578C632.226 401.815 632.018 402.168 631.963 402.559C631.908 402.95 632.011 403.347 632.249 403.662C632.486 403.978 632.84 404.185 633.231 404.24C638.571 405.179 641.612 410.219 642.874 415.447C644.499 422.272 641.898 431.329 644.291 457.294C644.768 462.597 645.362 471.163 640.161 472.333C638.796 472.586 638.257 472.289 637.684 470.565C636.186 466.023 637.95 461.246 638.025 447.562C638.07 442.443 637.715 426.404 637.08 422.309C636.445 418.214 634.691 413.519 630.859 411.87C630.527 411.711 630.146 411.688 629.797 411.804C629.448 411.92 629.158 412.167 628.987 412.493C628.817 412.82 628.78 413.199 628.884 413.552C628.988 413.905 629.225 414.204 629.545 414.385Z" fill="black"/>
<path d="M293.264 231.39C259.668 237.192 230.907 258.008 216.885 280.643C216.697 280.971 216.387 281.211 216.023 281.311C215.658 281.41 215.269 281.362 214.94 281.175C214.781 281.083 214.641 280.96 214.529 280.813C214.418 280.667 214.336 280.499 214.29 280.321C214.243 280.143 214.232 279.957 214.258 279.774C214.283 279.592 214.345 279.416 214.438 279.258C229.815 249.91 263.166 231.534 294.12 226.616C297.018 226.074 296.816 230.264 302.054 236.202C312.817 248.108 331.938 243.071 337.384 227.029C337.551 226.505 337.904 226.059 338.377 225.777C338.85 225.495 339.409 225.395 339.95 225.497C367.25 230.121 403.423 249.135 421.052 271.177C431.532 284.223 436.067 302.449 438.51 318.952C438.551 319.193 438.541 319.44 438.481 319.678C438.422 319.915 438.314 320.138 438.164 320.332C438.014 320.526 437.826 320.687 437.612 320.804C437.397 320.922 437.16 320.994 436.916 321.016C430.825 321.532 425.177 323.033 418.574 323.494C418.185 323.515 417.803 323.383 417.509 323.126C417.216 322.869 417.035 322.508 417.004 322.119C416.973 321.73 417.096 321.345 417.345 321.045C417.594 320.746 417.951 320.555 418.339 320.515C422.925 320.173 429.15 318.512 434.647 317.713C431.979 303.09 426.921 285.516 417.585 273.951C401.205 253.602 367.421 235.444 341.056 230.363C335.163 244.651 318.95 252.005 304.723 244.194C299.758 241.11 295.781 236.666 293.264 231.39Z" fill="black"/>
<path d="M298.072 157.318C299.169 156.708 300.445 156.5 301.678 156.732C302.912 156.964 304.025 157.62 304.825 158.588C304.94 158.745 305.084 158.877 305.249 158.979C305.415 159.08 305.599 159.147 305.791 159.178C305.982 159.208 306.178 159.2 306.367 159.154C306.555 159.109 306.733 159.026 306.89 158.912C307.047 158.798 307.18 158.654 307.281 158.488C307.382 158.323 307.45 158.139 307.48 157.947C307.51 157.755 307.502 157.559 307.456 157.371C307.411 157.182 307.328 157.004 307.214 156.847C304.143 151.155 298.468 151.776 296.216 155.227C295.144 156.861 296.4 158.178 298.072 157.318Z" fill="black"/>
<path d="M316.469 158.243C317.468 157.298 318.728 156.677 320.086 156.461C321.444 156.245 322.836 156.444 324.079 157.032C324.222 157.171 324.392 157.279 324.578 157.35C324.765 157.421 324.964 157.454 325.163 157.446C325.362 157.438 325.558 157.389 325.738 157.303C325.918 157.217 326.079 157.096 326.211 156.946C326.343 156.796 326.442 156.621 326.505 156.432C326.567 156.242 326.59 156.042 326.572 155.843C326.555 155.645 326.497 155.451 326.403 155.276C326.309 155.1 326.18 154.945 326.024 154.821C325.257 153.905 324.269 153.2 323.153 152.774C322.038 152.348 320.832 152.214 319.65 152.385C318.468 152.556 317.349 153.026 316.4 153.751C315.451 154.476 314.703 155.431 314.227 156.527C313.462 158.4 315.015 159.455 316.469 158.243Z" fill="black"/>
<path d="M299.86 166.976C299.86 168.016 300.115 169.013 300.569 169.748C301.022 170.484 301.638 170.897 302.28 170.897C302.921 170.897 303.537 170.484 303.99 169.748C304.444 169.013 304.699 168.016 304.699 166.976C304.699 165.936 304.444 164.939 303.99 164.203C303.537 163.468 302.921 163.055 302.28 163.055C301.638 163.055 301.022 163.468 300.569 164.203C300.115 164.939 299.86 165.936 299.86 166.976Z" fill="black"/>
<path d="M319.816 162.533C321.144 162.533 322.236 164.304 322.236 166.484C322.236 168.665 321.144 170.405 319.816 170.405C318.489 170.405 317.4 168.638 317.4 166.484C317.4 164.331 318.489 162.533 319.816 162.533Z" fill="black"/>
<path d="M319.881 192.716C319.65 194.073 319.136 195.365 318.371 196.509C317.607 197.652 316.61 198.622 315.445 199.354C314.422 199.96 313.27 200.317 312.083 200.393C310.896 200.47 309.707 200.265 308.614 199.796C307.522 199.326 306.555 198.605 305.794 197.69C305.033 196.776 304.499 195.695 304.235 194.535C303.742 192.728 303.484 190.864 303.467 188.99C303.463 188.692 303.517 188.395 303.627 188.118C303.738 187.841 303.902 187.588 304.11 187.374C304.318 187.16 304.567 186.99 304.841 186.872C305.116 186.755 305.411 186.693 305.709 186.69C308.821 186.85 311.688 186.601 318.035 187.031C320.096 186.946 320.171 190.7 319.881 192.716ZM316.667 190.15C313.619 190.515 312.162 190.792 308.084 191.065C308.177 192.486 308.702 193.844 309.589 194.958C312.121 197.197 314.322 195.132 315.841 192.099C316.157 191.465 316.437 190.815 316.68 190.15H316.667Z" fill="black"/>
<path d="M335.381 163.065C335.923 154.019 336.828 142.757 332.193 134.902C324.345 121.689 304.951 122.9 296.038 134.52C289.554 142.911 288.824 154.271 288.933 164.925C287.338 165.709 285.986 166.911 285.02 168.402C284.054 169.894 283.51 171.619 283.446 173.395C283.382 175.171 283.801 176.931 284.658 178.488C285.515 180.045 286.778 181.34 288.312 182.237C288.998 189.623 291.915 196.627 296.676 202.316C297.888 205.142 299.905 207.548 302.477 209.233C301.972 211.72 301.864 214.271 302.157 216.792C302.273 219.914 302.392 221.91 302.658 224.251L301.597 224.664C301.234 224.769 300.925 225.011 300.737 225.338C300.548 225.666 300.494 226.054 300.585 226.421C300.677 226.788 300.907 227.105 301.227 227.305C301.548 227.506 301.933 227.575 302.303 227.497L305.136 227.35C305.577 227.259 305.974 227.018 306.258 226.669C306.543 226.32 306.699 225.883 306.699 225.432C306.988 220.652 306.851 215.855 306.289 211.1C306.685 211.236 307.06 211.417 307.463 211.526C311.164 212.563 315.105 212.346 318.67 210.908C320.309 210.188 321.798 209.167 323.062 207.899C322.821 213.537 322.884 219.183 323.253 224.814C323.273 225.293 323.456 225.75 323.772 226.11C324.088 226.47 324.518 226.711 324.99 226.794L330.654 227.558C331.038 227.64 331.438 227.566 331.767 227.353C332.096 227.14 332.327 226.805 332.408 226.422C332.49 226.038 332.417 225.638 332.204 225.309C331.99 224.98 331.655 224.75 331.272 224.668C329.975 224.227 328.737 223.726 327.471 223.251C327.471 211.209 327.904 206.349 326.921 202.971C327.493 201.97 327.901 200.883 328.129 199.753C328.187 199.692 328.241 199.627 328.29 199.558C331.577 193.544 333.982 187.087 335.429 180.387C337.58 180.172 339.574 179.163 341.022 177.558C342.47 175.953 343.27 173.866 343.264 171.704C343.258 169.543 342.447 167.46 340.99 165.863C339.533 164.266 337.533 163.269 335.381 163.065ZM321.806 203.613C320.095 205.411 317.902 206.679 315.489 207.264C315.489 206.735 315.489 206.128 315.431 205.599C315.281 203.52 314.288 201.091 312.807 201.203C312.067 201.261 310.702 202.671 310.862 205.834C310.896 206.435 310.934 207.015 311.002 207.588C308.821 207.419 306.725 206.668 304.933 205.415C303.14 204.161 301.716 202.45 300.809 200.459C299.899 196.84 300.22 193.021 301.72 189.604C302.321 187.889 303.391 186.376 304.81 185.24C306.228 184.103 307.937 183.388 309.743 183.175C312.291 182.87 314.867 182.891 317.411 183.236C323.382 184.503 324.553 192.082 325.491 198.217C324.798 200.328 323.52 202.199 321.806 203.613ZM333.698 176.958C330.88 177.374 333.057 180.691 327.955 193.198C327.153 187.14 325.089 181.322 319.24 179.374C317.001 178.795 314.691 178.546 312.38 178.633C312.213 173.456 312.07 162.386 311.49 156.575C311.501 156.385 311.474 156.195 311.409 156.017C311.345 155.838 311.245 155.674 311.116 155.535C310.986 155.397 310.83 155.285 310.656 155.209C310.482 155.132 310.295 155.091 310.105 155.089C309.915 155.087 309.727 155.124 309.552 155.197C309.376 155.269 309.218 155.377 309.085 155.513C308.953 155.649 308.849 155.811 308.781 155.988C308.713 156.165 308.681 156.354 308.688 156.544C308.007 163.952 308.205 171.415 309.279 178.776C302.924 179.169 296.796 184.523 295.861 194.842C293.912 190.312 292.765 185.477 292.469 180.554C292.431 180.161 292.283 179.786 292.042 179.473C291.8 179.16 291.475 178.922 291.104 178.787C290.075 178.312 289.218 177.533 288.648 176.553C288.079 175.574 287.825 174.443 287.922 173.315C288.018 172.186 288.461 171.115 289.188 170.247C289.916 169.379 290.893 168.756 291.987 168.464C292.42 168.303 292.794 168.013 293.057 167.634C293.321 167.254 293.462 166.803 293.462 166.341C293.315 156.39 293.605 145.184 299.655 137.291C306.661 128.104 322.12 126.91 328.32 137.263C332.576 144.259 331.392 156.612 330.975 164.806C330.961 165.088 331.003 165.37 331.098 165.635C331.194 165.901 331.341 166.145 331.531 166.354C331.722 166.562 331.952 166.731 332.208 166.85C332.463 166.969 332.741 167.036 333.023 167.048C341.063 167.317 341.291 175.889 333.698 176.958Z" fill="black"/>
<path d="M496.308 207.114C502.31 212.635 511.831 205.926 509.016 196.054C508.927 195.682 508.696 195.359 508.374 195.154C508.051 194.949 507.662 194.877 507.287 194.953C506.912 195.03 506.582 195.249 506.366 195.565C506.15 195.88 506.065 196.267 506.129 196.644C506.457 197.787 506.47 198.997 506.166 200.146C505.863 201.295 505.254 202.341 504.404 203.173C503.554 204.004 502.496 204.59 501.34 204.869C500.185 205.147 498.975 205.108 497.84 204.756C496.431 203.858 494.779 205.701 496.308 207.114Z" fill="black"/>
<path d="M492.373 194.157C493.851 194.286 495.001 194.481 495.001 195.818C495.001 197.31 493.349 197.456 491.226 197.678C490.464 197.832 489.679 197.822 488.921 197.649C488.163 197.476 487.451 197.144 486.831 196.675C484.934 195.187 485.166 192.061 484.944 190.57C484.678 187.683 483.77 175.811 486.65 175.589C490.356 175.453 488.762 190.048 489.745 193.508C489.947 194.194 490.711 194.01 492.373 194.157Z" fill="black"/>
<path d="M495.482 174.572C496.428 173.371 497.763 172.536 499.258 172.213C500.753 171.89 502.314 172.098 503.672 172.801C505.378 173.989 506.934 172.119 505.675 170.648C504.815 169.634 503.697 168.872 502.44 168.441C501.183 168.009 499.832 167.925 498.531 168.197C497.23 168.469 496.027 169.086 495.047 169.985C494.068 170.884 493.349 172.03 492.967 173.303C492.526 175.135 494.178 176.07 495.482 174.572Z" fill="black"/>
<path d="M499.757 177.913C501.32 177.913 502.559 179.742 502.559 182.07C502.559 184.342 501.32 186.165 499.757 186.165C498.195 186.165 496.956 184.335 496.956 182.07C496.956 179.742 498.225 177.913 499.757 177.913Z" fill="black"/>
<path d="M556.408 200.166C558.06 197.113 558.453 193.537 557.505 190.198C556.557 186.86 554.343 184.024 551.334 182.295C553.187 174.569 550.829 166.665 543.67 163.301C543.615 159.927 542.677 156.627 540.948 153.729C539.219 150.831 536.761 148.438 533.818 146.788C533.721 144.95 533.259 143.151 532.459 141.494C531.66 139.838 530.538 138.357 529.16 137.138C527.782 135.919 526.176 134.987 524.434 134.396C522.692 133.804 520.849 133.566 519.014 133.694C516.402 131.942 513.301 131.065 510.159 131.187C507.016 131.31 503.993 132.426 501.525 134.376C490.162 132.295 478.644 142.546 472.802 153.486C470.241 158.292 468.401 163.449 467.342 168.791C461.858 172.204 457.228 179.964 459.203 186.195C456.546 187.619 454.452 189.903 453.262 192.673C452.072 195.443 451.858 198.535 452.655 201.442C450.442 203.126 448.833 205.481 448.068 208.154C447.303 210.827 447.423 213.676 448.41 216.276C445.577 221.361 444.243 227.599 448.676 231.373C455.576 237.219 465.134 227.142 463.094 218.989C463.989 218.254 464.756 217.377 465.366 216.392C465.291 218.44 465.88 220.457 467.045 222.142C466.141 223.557 465.781 225.252 466.032 226.912C466.283 228.572 467.128 230.084 468.41 231.168C470.164 232.578 471.43 229.527 477.699 228.097C480.474 227.415 481.112 223.722 479.999 221.078C480.713 220.329 481.226 219.412 481.489 218.412C481.752 217.412 481.757 216.361 481.504 215.358C482.37 215.001 483.158 214.478 483.825 213.819C486.257 217.322 489.757 219.942 493.803 221.289L494.598 231.462C494.596 231.656 494.632 231.849 494.705 232.029C494.779 232.209 494.887 232.372 495.025 232.509C495.162 232.647 495.325 232.755 495.505 232.829C495.685 232.902 495.878 232.938 496.072 232.936C496.457 232.925 496.823 232.766 497.093 232.491C497.363 232.216 497.516 231.847 497.519 231.462C497.546 230.281 497.635 229.104 497.666 227.892C497.686 225.865 497.7 223.832 497.731 221.791C499.71 221.929 501.698 221.697 503.593 221.108C504.87 220.641 507.845 219.04 507.101 217.419C506.566 216.256 505.706 216.488 501.822 217.007C496.796 217.754 494.878 217.788 491.441 215.3C480.863 207.527 482.074 190.297 481.736 177.097C484.695 168.466 490.498 161.096 498.195 156.196C502.109 164.512 508.836 171.177 517.189 175.012C516.248 177.578 516.034 180.354 516.57 183.034C517.105 185.714 518.371 188.194 520.226 190.201C519.753 191.889 519.634 193.657 519.875 195.393C520.116 197.129 520.713 198.797 521.628 200.292C520.946 201.782 520.156 203.221 519.263 204.595C513.462 214.014 512.759 213.836 512.541 215.744C512.426 218.834 512.515 221.927 512.807 225.005C512.845 225.347 513.257 230.336 514.899 230.401C517.905 230.513 517.042 219.842 517.042 216.822C517.042 215.358 521.714 211.198 523.945 202.749C524.099 202.869 524.222 203.002 524.382 203.118C523.488 208.526 523.662 213.099 527.511 217.109C528.631 218.371 530.048 219.333 531.634 219.909C533.219 220.485 534.924 220.657 536.592 220.409C543.216 218.976 546.099 210.031 542.168 204.131C542.235 203.967 542.293 203.8 542.342 203.63C543.151 203.93 544.048 204.213 544.584 204.367C544.207 209.639 545.937 214.846 549.392 218.846C549.733 219.225 550.188 219.482 550.688 219.578C551.189 219.674 551.707 219.604 552.163 219.378C556.535 217.01 558.739 217.433 559.391 215.485C560.339 212.902 560.562 210.109 560.037 207.409C559.511 204.709 558.256 202.204 556.408 200.166ZM540.888 197.344C540.567 195.979 539.884 194.727 538.913 193.716C538.767 193.537 538.671 193.323 538.635 193.095C538.599 192.868 538.624 192.634 538.708 192.419C539.693 190.489 539.931 188.262 539.375 186.167C538.82 184.072 537.51 182.255 535.698 181.066C535.382 180.88 535.139 180.591 535.011 180.248C534.882 179.904 534.875 179.527 534.992 179.179C535.642 177.054 535.491 174.764 534.567 172.742C533.643 170.721 532.011 169.108 529.979 168.208C529.632 168.048 529.353 167.771 529.191 167.426C529.03 167.08 528.995 166.689 529.095 166.321C529.581 164.136 529.297 161.851 528.292 159.851C527.286 157.852 525.621 156.262 523.577 155.349C523.457 155.303 523.348 155.233 523.256 155.143C523.164 155.054 523.091 154.946 523.041 154.828C522.992 154.709 522.967 154.582 522.968 154.453C522.969 154.325 522.996 154.198 523.048 154.08C523.151 153.846 523.342 153.663 523.58 153.569C523.817 153.475 524.082 153.479 524.317 153.578C526.988 154.221 529.315 155.855 530.827 158.15C532.338 160.444 532.92 163.227 532.456 165.935C534.685 167.209 536.452 169.158 537.501 171.501C538.551 173.844 538.829 176.46 538.295 178.971C540.301 180.572 541.694 182.818 542.236 185.327C542.779 187.836 542.439 190.456 541.274 192.744C542.113 194.005 542.666 195.434 542.895 196.931C542.95 197.197 542.897 197.474 542.747 197.701C542.598 197.928 542.364 198.086 542.098 198.141C541.832 198.195 541.555 198.142 541.328 197.993C541.101 197.843 540.943 197.61 540.888 197.344Z" fill="black"/>
<path d="M565.991 226.995C564.951 223.947 563.373 221.109 561.333 218.617C560.993 218.138 560.484 217.807 559.908 217.693C559.332 217.578 558.735 217.688 558.238 218C556.627 219.116 554.735 219.759 552.778 219.856C552.199 219.838 551.635 220.042 551.202 220.426C550.769 220.809 550.499 221.344 550.447 221.921C550.111 226.127 550.457 230.359 551.471 234.455C551.569 234.985 551.857 235.463 552.279 235.799C552.702 236.135 553.231 236.307 553.771 236.284C556.004 236.283 558.208 235.779 560.22 234.809C562.232 233.839 563.999 232.428 565.39 230.681C565.591 230.656 565.785 230.589 565.958 230.483C566.131 230.378 566.279 230.237 566.394 230.07C566.508 229.902 566.585 229.713 566.62 229.513C566.656 229.314 566.648 229.109 566.598 228.913C566.762 228.576 566.79 228.19 566.677 227.833C566.564 227.476 566.318 227.176 565.991 226.995Z" fill="black"/>
<path d="M200.751 136.434C181.641 137.434 163.172 139.014 144.069 137.052C135.828 136.171 127.389 136.618 120.475 131.274C109.132 122.552 106.866 108.332 105.702 94.1429C103.911 72.1254 109.258 45.9379 129.058 36.1065C139.52 30.9127 150.451 30.9229 161.234 29.3702C183.569 26.299 207.136 28.1315 229.563 27.9847C247.038 27.9335 267.25 27.5172 281.586 37.6012C302.102 52.0906 302.703 112.134 283.03 126.603C269.857 136.328 247.707 133.312 231.569 133.356C233.234 138.797 236.027 143.827 239.767 148.116C243.506 152.405 248.108 155.857 253.273 158.247C253.863 158.247 254.484 158.277 255.074 158.277C255.3 158.28 255.523 158.333 255.726 158.433C255.928 158.534 256.105 158.679 256.244 158.857C256.383 159.036 256.48 159.243 256.527 159.464C256.574 159.685 256.571 159.914 256.518 160.134C256.631 160.392 256.665 160.678 256.615 160.955C256.565 161.233 256.433 161.489 256.237 161.691C256.041 161.894 255.789 162.033 255.513 162.092C255.237 162.151 254.95 162.126 254.689 162.021C254.057 161.797 253.438 161.541 252.832 161.253C242.903 160.961 233.144 158.604 224.177 154.33C215.21 150.057 207.231 143.962 200.751 136.434ZM245.96 157.591C236.644 151.771 229.952 142.563 227.293 131.906C227.226 131.635 227.221 131.353 227.277 131.08C227.334 130.807 227.452 130.55 227.622 130.329C227.792 130.108 228.01 129.928 228.259 129.803C228.508 129.678 228.782 129.61 229.061 129.606C244.434 128.923 268.144 132.121 280.347 122.968C297.335 110.451 296.908 54.0358 278.9 41.4266C265.694 32.0866 245.905 32.5541 229.593 32.6667C207.333 32.8134 184.152 30.94 161.882 33.9941C151.645 35.4308 140.506 35.5775 131.095 40.2458C113.169 49.1627 108.647 73.8521 110.214 93.7607C111.217 106.486 113.029 120.01 123.161 127.794C129.04 132.407 137.343 132.042 144.54 132.837C163.732 134.926 181.218 133.52 201.457 132.687C201.736 132.675 202.014 132.727 202.27 132.839C202.526 132.952 202.752 133.121 202.931 133.335C213.78 146.468 229.109 155.115 245.96 157.609V157.591Z" fill="black"/>
<path d="M210.838 82.7587C210.497 85.3215 209.954 87.741 209.63 90.2662C209.648 90.6788 209.584 91.0907 209.442 91.4784C209.3 91.8662 209.083 92.2223 208.804 92.5264C208.525 92.8304 208.188 93.0765 207.814 93.2505C207.44 93.4245 207.034 93.5231 206.622 93.5405C206.209 93.558 205.798 93.4941 205.41 93.3524C205.022 93.2106 204.666 92.9939 204.362 92.7146C204.058 92.4353 203.812 92.0988 203.638 91.7244C203.464 91.3499 203.365 90.9449 203.348 90.5324C202.304 86.7365 201.77 82.8188 201.757 78.8821C201.794 77.8026 202.201 76.7684 202.909 75.9527C203.617 75.137 204.584 74.5894 205.648 74.4015C215.885 72.5144 218.462 58.9531 206.886 56.4995C205.187 56.1204 203.419 56.1915 201.755 56.7057C200.092 57.22 198.592 58.1597 197.403 59.4317C196.215 60.7037 195.379 62.2641 194.978 63.9584C194.578 65.6526 194.627 67.4221 195.12 69.0917C197.123 75.6027 197.816 75.944 196.27 77.5274C193.728 80.1345 188.264 75.5686 186.777 72.7806C180.494 61.3999 191.919 43.4502 208.893 46.9446C229.972 51.4422 228.085 76.8346 210.838 82.7587Z" fill="#0096FF"/>
<path d="M207.269 96.0334C206.254 95.966 205.237 96.1034 204.276 96.4373C203.316 96.7712 202.432 97.2949 201.678 97.9772C200.925 98.6594 200.316 99.4864 199.888 100.409C199.46 101.331 199.222 102.33 199.188 103.346C199.106 105.397 199.838 107.396 201.224 108.91C202.609 110.423 204.537 111.328 206.586 111.427C207.601 111.476 208.615 111.323 209.57 110.976C210.524 110.629 211.4 110.095 212.147 109.406C212.893 108.718 213.495 107.887 213.917 106.963C214.339 106.039 214.573 105.041 214.606 104.025C214.588 102.022 213.829 100.095 212.473 98.6191C211.118 97.1429 209.264 96.2216 207.269 96.0334Z" fill="#0096FF"/>
<path d="M531.937 236.895C531.807 236.54 531.595 236.222 531.318 235.966C531.041 235.71 530.707 235.523 530.344 235.42L526.099 234.397C525.075 232.69 523.454 229.824 522.144 227.821C521.838 227.388 521.396 227.071 520.888 226.921C520.38 226.771 519.837 226.797 519.345 226.995C514.807 228.899 500.14 235.478 496.076 232.864C495.613 232.58 495.065 232.465 494.527 232.541C493.989 232.616 493.494 232.877 493.127 233.277C491.609 234.972 490.247 236.799 489.056 238.737C487.115 238.608 485.178 239.048 483.483 240.003C467.175 251.012 458.436 268.88 455.586 288.666C454.813 296.198 454.546 303.774 454.788 311.342C454.632 322.223 455.333 333.099 456.883 343.87C456.937 344.234 457.08 344.579 457.298 344.875C457.516 345.171 457.803 345.41 458.134 345.57C458.466 345.73 458.831 345.807 459.199 345.794C459.566 345.78 459.925 345.678 460.244 345.494C469.567 340.01 481.275 333.939 491.946 336.28C491.769 339.437 492.329 339.908 493.066 339.352C494.042 341.399 495.396 341.918 495.956 336.372C502.293 334.707 508.661 330.571 514.803 330.83C515.089 330.851 515.375 330.788 515.625 330.649C515.876 330.51 516.08 330.302 516.215 330.049C516.349 329.796 516.406 329.509 516.381 329.224C516.355 328.938 516.247 328.667 516.069 328.442C517.117 315.113 517.827 292.109 519.728 275.917C523.522 242.266 533.299 240.529 531.937 236.895ZM486.729 248.238C486.94 245.875 487.96 243.658 489.616 241.959C490.83 239.979 492.551 238.361 494.601 237.27C496.273 236.147 497.754 237.482 496.755 239.317C494.492 242.889 491.983 246.298 489.247 249.521C488.64 250.026 488.046 250.476 487.36 250.142C486.674 249.808 486.664 249.002 486.729 248.238ZM497.099 251.289C492.69 260.994 481.589 272.419 482.207 314.723C482.234 316.088 482.265 317.454 482.234 318.819C482.234 324.381 482.716 326.524 480.849 326.722C478.982 326.92 478.839 323.715 478.46 321.002C476.209 302.787 478.194 284.298 484.261 266.976C485.592 263.427 495.127 243.071 498.208 244.679C499.819 245.484 498.079 249.135 497.099 251.289ZM507.183 249.163C504.157 245.81 501.544 242.108 499.399 238.133C499.195 237.383 499.092 236.625 499.723 236.185C500.355 235.745 501.037 236.072 501.699 236.482C505.08 239.651 507.814 243.447 509.749 247.658C510.357 249.712 508.593 250.644 507.183 249.163Z" fill="#0096FF"/>
<path d="M482.221 239.891C472.983 244.259 468.83 251.244 463.169 261.007C451.566 281.308 446.622 310.69 456.18 344.702C456.221 344.896 456.3 345.08 456.413 345.242C456.527 345.405 456.671 345.543 456.839 345.648C457.007 345.754 457.194 345.824 457.39 345.855C457.586 345.887 457.786 345.878 457.978 345.83C458.17 345.783 458.351 345.697 458.509 345.577C458.667 345.458 458.8 345.309 458.899 345.137C458.998 344.965 459.062 344.776 459.086 344.579C459.11 344.382 459.094 344.183 459.04 343.993C453.716 316.921 453.419 287.345 467.151 263.277C469.342 259.301 471.785 255.468 474.464 251.804C477.143 248.289 480.236 245.11 483.678 242.338C484.002 242.144 484.237 241.83 484.33 241.464C484.422 241.098 484.366 240.71 484.173 240.386C483.979 240.061 483.665 239.827 483.299 239.734C482.933 239.641 482.545 239.698 482.221 239.891Z" fill="black"/>
<path d="M443.543 294.58C436.974 292.276 436.439 292.331 435.934 291.068C435.814 290.759 435.762 290.428 435.783 290.098C435.804 289.767 435.896 289.445 436.053 289.154C438.602 284.328 457.037 250.163 461.306 253.408C464.012 255.455 455.607 262.666 441.342 288.976C442.752 289.457 446.802 290.952 448.625 291.706C448.994 291.849 449.318 292.089 449.563 292.401C449.807 292.713 449.963 293.085 450.014 293.477C450.304 295.45 448.519 295.624 445.919 297.842C444.501 299.488 442.942 301.008 441.261 302.384C440.965 302.62 440.592 302.736 440.216 302.709C439.839 302.682 439.486 302.514 439.228 302.238C438.969 301.963 438.824 301.6 438.822 301.222C438.819 300.844 438.959 300.479 439.213 300.2C442.431 296.634 441.445 297.026 443.543 294.58Z" fill="black"/>
<path d="M548.126 283.578C546.079 273.907 540.782 248.043 540.547 246.743C540.438 246.387 540.474 246.003 540.648 245.674C540.822 245.345 541.12 245.099 541.475 244.989C541.831 244.879 542.216 244.916 542.544 245.09C542.873 245.264 543.12 245.562 543.229 245.917C547.969 256.69 546.911 256.865 553.05 284.581C553.163 285.127 553.077 285.695 552.806 286.182C552.535 286.669 552.099 287.043 551.576 287.236C545.108 289.402 538.793 292.002 532.674 295.02C538.06 296.689 543.191 299.091 547.921 302.159C548.351 302.438 548.658 302.872 548.779 303.371C548.899 303.87 548.824 304.395 548.57 304.841C546.676 307.707 544.997 310.946 543.379 314.014C543.213 314.369 542.912 314.645 542.543 314.78C542.175 314.916 541.767 314.9 541.41 314.737C541.053 314.574 540.774 314.276 540.635 313.909C540.496 313.541 540.507 313.134 540.666 312.775C543.055 306.718 543.168 306.742 544.144 304.605C538.413 301.919 532.523 299.585 526.508 297.617C526.118 297.464 525.777 297.207 525.523 296.875C525.268 296.542 525.11 296.146 525.065 295.73C525.019 295.313 525.089 294.893 525.266 294.513C525.442 294.133 525.72 293.809 526.068 293.576C533.032 289.444 540.429 286.091 548.126 283.578Z" fill="black"/>
<path d="M480.221 238.898C479.774 237.714 479.815 239.707 479.897 234.591C479.843 234.087 479.603 233.621 479.225 233.283C478.847 232.945 478.356 232.759 477.849 232.762C474.766 232.803 471.72 233.444 468.881 234.649C468.529 234.763 468.21 234.959 467.949 235.22C467.687 235.482 467.492 235.802 467.38 236.154C466.861 237.758 466.447 239.394 466.141 241.051C465.902 242.594 466.957 243.341 468.188 244.341C464.352 245.342 460.666 246.849 457.228 248.821L455.31 239.853C455.426 239.652 455.492 239.426 455.501 239.193C455.51 238.961 455.462 238.73 455.361 238.521C455.26 238.311 455.109 238.13 454.922 237.992C454.734 237.854 454.516 237.765 454.286 237.731L449.242 235.683C448.712 235.5 448.132 235.519 447.615 235.737C447.098 235.955 446.68 236.357 446.441 236.864C444.723 241.036 443.686 245.457 443.369 249.958C443.298 250.451 443.393 250.954 443.641 251.387C443.888 251.82 444.273 252.158 444.734 252.347C446.263 253.017 447.911 253.375 449.58 253.401C442.717 257.675 436.58 263.016 431.402 269.225C430.317 270.628 429.416 272.163 428.719 273.794C428.489 274.091 428.385 274.467 428.432 274.84C428.479 275.214 428.672 275.553 428.969 275.784C429.265 276.014 429.642 276.118 430.015 276.071C430.388 276.024 430.727 275.831 430.958 275.535C439.889 267.935 443.926 261.086 460.009 252.442C460.35 252.258 470.246 247.05 471.393 246.515C471.603 246.431 471.79 246.3 471.942 246.132C472.284 246.174 472.63 246.144 472.959 246.044C473.288 245.944 473.592 245.776 473.853 245.552C474.621 244.784 475.426 244.058 476.184 243.368C477.126 242.375 478.162 241.477 479.279 240.686C479.459 240.631 479.625 240.541 479.77 240.421C479.914 240.301 480.034 240.154 480.121 239.988C480.209 239.821 480.263 239.64 480.28 239.453C480.297 239.266 480.277 239.077 480.221 238.898Z" fill="black"/>
<path d="M467.803 355.65C470.444 353.321 473.48 351.484 476.767 350.224C479.88 348.76 480.586 348.542 480.453 347.275C480.214 345.668 476.778 345.767 476.017 345.859C471.742 346.933 467.857 349.193 464.81 352.377C464.394 352.793 463.199 355.107 464.104 356.131C464.963 356.97 467.233 356.032 467.803 355.65Z" fill="black"/>
<path d="M428.453 351.633C428.919 353.315 429.48 354.969 430.132 356.588C430.542 357.544 432.023 359.844 433.378 359.478C434.923 358.963 434.435 355.578 434.35 355.233C433.949 353.534 433.447 351.86 432.845 350.22C432.709 349.794 431.545 343.955 428.631 344.852C425.877 345.842 428.351 351.292 428.453 351.633Z" fill="black"/>
<path d="M440.991 349.845C442.779 353.203 443.83 360.055 446.451 359.4C447.97 358.99 447.714 356.772 447.512 354.561C447.068 352.146 446.242 349.816 445.065 347.661C441.789 341.727 438.35 342.081 437.664 343.092C436.524 344.685 440.476 348.855 440.991 349.845Z" fill="black"/>
<path d="M630.862 311.076C625.788 283.591 601.552 252.285 562.827 237.464C562.48 237.328 562.094 237.333 561.751 237.479C561.408 237.624 561.136 237.899 560.993 238.243C560.849 238.587 560.847 238.973 560.986 239.319C561.125 239.665 561.394 239.943 561.735 240.092C571.672 244.648 581.029 250.376 589.605 257.155C607.388 271.064 622.365 289.969 626.351 311.922C629.583 329.766 627.511 347.61 611.575 355.943C601.433 361.236 587.131 360.673 575.774 360.721C550.276 360.867 525.73 359.356 500.276 358.038C500.136 351.626 499.699 347.344 499.099 338.014C524.641 329.612 549.43 316.59 573.239 310.202C573.606 310.09 573.917 309.842 574.105 309.507C574.294 309.172 574.346 308.778 574.251 308.406C574.156 308.034 573.921 307.713 573.595 307.509C573.269 307.306 572.878 307.237 572.502 307.315C551.583 312.434 531.064 321.487 516.953 326.828C518.857 298.306 517.277 296.975 523.778 266.614C525.505 257.294 528.344 248.214 532.234 239.57C532.592 239.891 533.042 240.09 533.521 240.136C537.53 240.297 541.492 239.225 544.874 237.065C545.12 237.184 545.393 237.231 545.664 237.201C545.935 237.172 546.193 237.066 546.406 236.897C546.62 236.728 546.782 236.502 546.873 236.245C546.964 235.988 546.981 235.71 546.922 235.444C546.563 230.951 545.299 226.578 543.205 222.586C542.96 222.083 542.543 221.684 542.029 221.462C541.515 221.24 540.939 221.209 540.404 221.375C538.5 222.091 536.52 222.587 534.504 222.852C533.999 222.864 533.514 223.045 533.124 223.366C532.734 223.686 532.463 224.127 532.354 224.62C531.491 228.041 531.146 231.573 531.33 235.096C529.784 236.848 528.404 238.74 527.208 240.747C522.113 249.562 517.653 272.661 516.09 281.827C513.555 297.087 512.779 312.588 513.776 328.025C507.886 330.257 502.027 332.428 496.113 334.294C495.643 334.442 495.237 334.744 494.959 335.15C494.681 335.557 494.548 336.045 494.581 336.536C494.605 336.963 494.629 337.345 494.652 337.761C490.454 336.391 486.034 335.83 481.627 336.11C477.545 336.17 473.519 337.07 469.8 338.755C466.082 340.439 462.75 342.871 460.012 345.9C459.489 346.445 459.005 347.027 458.565 347.64C457.917 348.595 457.404 349.636 457.043 350.732C456.118 349.05 454.433 346.084 452.679 345.337C452.994 345.253 453.287 345.102 453.538 344.894C453.789 344.687 453.993 344.427 454.135 344.134C454.277 343.84 454.354 343.52 454.36 343.194C454.367 342.868 454.303 342.544 454.173 342.245C451.634 336.407 449.543 331.626 445.205 328.414C443.747 327.169 442.054 326.227 440.226 325.644C438.398 325.062 436.472 324.85 434.562 325.022C434.187 324.967 433.805 325.059 433.497 325.279C433.189 325.499 432.979 325.831 432.91 326.203C432.878 326.387 432.883 326.576 432.925 326.758C432.968 326.94 433.046 327.111 433.156 327.263C433.266 327.414 433.405 327.541 433.565 327.638C433.725 327.734 433.902 327.798 434.087 327.824C434.664 328.07 437.073 329.261 437.421 329.418C439.713 330.149 441.814 331.376 443.578 333.012C445.341 334.647 446.723 336.651 447.625 338.881C439.032 335.837 435.681 337.468 429.429 339.799C429.066 339.929 428.768 340.194 428.595 340.539C428.423 340.884 428.39 341.282 428.504 341.651C428.618 342.019 428.87 342.33 429.207 342.517C429.544 342.705 429.94 342.755 430.313 342.658C443.069 340.02 446.772 343.757 451.297 345.306C451.105 345.355 450.922 345.436 450.757 345.545C448.635 347.06 452.296 351.732 452.525 352.09C453.358 353.455 455.808 358.468 457.835 357.578C459.336 356.94 458.896 354.848 458.07 352.858C460.831 352.612 464.012 347.241 469.065 344.327C476.826 339.822 485.135 340.215 494.861 341.389C495.103 345.214 495.349 348.702 495.543 352.377C490.272 351.849 484.95 352.305 479.846 353.722C478.562 354.063 476.269 355.329 476.573 356.731C476.856 358.032 479.518 358.291 480.378 358.206C484.885 357.273 489.462 356.721 494.062 356.554C494.403 356.554 495.059 356.479 495.727 356.4C495.779 357.636 495.816 358.909 495.85 360.233C495.849 360.804 496.069 361.354 496.465 361.767C496.861 362.179 497.402 362.422 497.973 362.444C514.189 363.341 578.167 367.245 598.624 364.491C626.819 360.632 636.032 339.662 630.862 311.076Z" fill="black"/>
<path d="M111.401 188.826C102.945 198.606 93.0625 197.675 87.2203 188.737C86.0125 186.933 85.143 184.925 84.6541 182.81C84.5239 182.26 84.6022 181.681 84.8739 181.186C85.1455 180.69 85.5913 180.313 86.1249 180.128C96.9494 176.237 110.466 176.193 121.867 175.691C127.106 174.938 132.44 175.188 137.585 176.428C137.897 176.508 138.172 176.69 138.366 176.946C138.56 177.202 138.663 177.516 138.656 177.837C138.649 178.158 138.534 178.467 138.329 178.715C138.124 178.962 137.842 179.133 137.527 179.199C135.79 192.901 121.24 198.664 111.401 188.826ZM134.463 179.066C132.334 179.066 128.785 179.554 127.505 179.684C118.339 180.848 102 180.049 89.7865 183.779C89.817 183.881 89.8558 183.98 89.9026 184.076C93.9976 193.023 102.266 194.057 109.487 183.929C109.687 183.637 109.955 183.398 110.269 183.233C110.582 183.068 110.931 182.983 111.285 182.984C113.046 182.912 113.176 184.403 115.206 186.198C121.878 192.597 132.112 188.925 134.463 179.066Z" fill="#0096FF"/>
<path d="M106.457 204.725C108.129 208.762 116.711 209.912 119.728 204.107C120.663 202.305 118.796 200.917 117.37 202.336C116.179 203.416 114.654 204.055 113.05 204.147C111.445 204.238 109.857 203.776 108.552 202.838C107.846 202.476 107.129 202.183 106.545 202.722C105.962 203.261 106.153 203.991 106.457 204.725Z" fill="black"/>
<path d="M104.607 146.934C93.595 151.647 87.0566 163.847 85.2036 175.395C85.1336 175.796 85.1714 176.208 85.3132 176.59C85.455 176.971 85.6957 177.308 86.0106 177.566C86.3255 177.824 86.7034 177.994 87.1055 178.058C87.5075 178.122 87.9194 178.078 88.2988 177.93C96.7167 174.938 105.666 173.733 114.575 174.391C115.159 174.419 115.732 174.222 116.176 173.842C116.62 173.461 116.902 172.925 116.964 172.344C117.199 170.044 117.79 166.543 118.527 163.082C118.527 163.082 120.001 170.719 120.298 172.344C120.396 172.848 120.682 173.296 121.099 173.597C121.515 173.898 122.03 174.03 122.54 173.965C127.96 172.99 133.495 172.821 138.964 173.463C139.194 173.543 139.441 173.563 139.68 173.521C139.92 173.478 140.145 173.376 140.334 173.222C140.523 173.069 140.67 172.87 140.76 172.644C140.851 172.418 140.882 172.172 140.851 171.931C139.104 153.029 118.738 140.833 104.607 146.934Z" fill="black"/>
<path d="M109.866 221.064C109.583 219.627 109.183 218.744 108.286 218.433C104.973 216.563 102.236 213.82 100.374 210.502C98.5127 207.184 97.5971 203.419 97.7275 199.616C97.7695 199.089 97.6281 198.563 97.3272 198.128C97.0262 197.693 96.5842 197.375 96.0758 197.228C94.4295 196.732 92.914 195.877 91.6396 194.723C87.7664 191.263 87.9336 189.318 85.6541 189.56C85.2595 189.615 84.8861 189.772 84.5708 190.016C84.2554 190.259 84.009 190.581 83.8557 190.949L82.0846 195.753C80.0815 201.173 75.379 209.683 70.1716 207.226C69.7219 207.006 69.2122 206.939 68.7208 207.036C68.2294 207.133 67.7835 207.389 67.4517 207.764C67.1198 208.14 66.9204 208.613 66.8841 209.113C66.8477 209.613 66.9765 210.11 67.2505 210.53C73.4987 219.999 80.1292 224.906 95.8711 225.93C99.0127 226.17 102.17 226.092 105.296 225.698C105.273 226.722 105.136 234.506 105.324 236.198C105.494 237.792 106.006 240.918 107.624 240.86C109.241 240.802 109.507 238.13 109.688 236.14C109.76 235.369 110.101 222.33 109.866 221.064Z" fill="black"/>
<path d="M156.498 205.247C148.878 204.322 144.895 192.047 143.667 184.431C143.493 183.25 143.346 182.069 143.168 180.861C143.093 180.353 142.85 179.885 142.477 179.532C142.104 179.179 141.624 178.961 141.112 178.913C140.601 178.866 140.089 178.991 139.657 179.269C139.225 179.548 138.9 179.963 138.732 180.448C137.825 183.358 136.493 186.117 134.78 188.638C130.344 194.996 126.775 193.416 127.024 196.487C127.631 203.995 128.662 211.878 122.274 216.037C120.55 217.126 120.967 219.655 120.956 220.327C120.926 222.374 121.042 231.81 121.298 233.772C121.578 235.478 122.124 238.253 123.717 238.167C125.512 238.072 125.621 234.557 125.69 232.684C125.792 229.954 125.652 227.172 125.567 224.412C132.43 224.54 139.233 223.119 145.472 220.255C147.949 218.982 150.291 217.46 152.461 215.713C154.785 213.709 156.742 211.314 158.241 208.636C158.429 208.307 158.532 207.936 158.54 207.558C158.549 207.179 158.462 206.805 158.289 206.468C158.116 206.132 157.861 205.844 157.548 205.63C157.235 205.417 156.874 205.285 156.498 205.247Z" fill="black"/>
<path d="M384.07 307.544C367.23 290.928 333.224 292.982 310.787 297.989C305.518 299.149 309.476 298.954 303.88 296.835C295.731 293.319 286.754 292.181 277.986 293.554C269.218 294.926 261.018 298.753 254.334 304.592C251.77 306.894 249.375 309.378 247.168 312.024C246.908 312.309 246.77 312.683 246.78 313.068C246.791 313.453 246.95 313.819 247.224 314.09C247.498 314.36 247.867 314.514 248.252 314.519C248.637 314.524 249.009 314.379 249.29 314.116C251.757 311.922 254.346 309.872 257.047 307.974C270.84 297.842 282.228 294.965 300.682 300.507C277.355 306.916 243.127 321.303 237.145 322.873C236.791 322.971 236.489 323.202 236.3 323.517C236.111 323.832 236.049 324.207 236.128 324.566C236.207 324.924 236.421 325.239 236.725 325.445C237.029 325.651 237.4 325.733 237.763 325.674C241.756 325.098 245.699 324.221 249.56 323.05C259.736 319.89 286.538 308.055 311.756 302.466C332.187 297.927 366.738 295.876 382.091 309.721C382.232 309.861 382.401 309.972 382.586 310.045C382.772 310.119 382.97 310.154 383.169 310.149C383.369 310.144 383.565 310.098 383.746 310.015C383.927 309.931 384.09 309.812 384.224 309.664C384.357 309.516 384.46 309.343 384.525 309.154C384.589 308.966 384.615 308.766 384.601 308.567C384.586 308.368 384.531 308.174 384.439 307.997C384.348 307.82 384.221 307.663 384.067 307.537L384.07 307.544Z" fill="black"/>
<path d="M428.665 322.057C428.475 322.018 428.279 322.016 428.089 322.053C427.899 322.089 427.717 322.163 427.556 322.27C427.394 322.377 427.255 322.515 427.147 322.676C427.038 322.836 426.963 323.017 426.925 323.207C423.853 335.963 416.936 351.19 404.897 356.445C376.382 369.136 350.133 353.585 325.556 346.153C360.022 322.948 358.9 326.319 377.883 316.559C378.24 316.442 378.535 316.188 378.704 315.854C378.873 315.519 378.902 315.131 378.784 314.775C378.667 314.419 378.413 314.124 378.079 313.955C377.744 313.786 377.356 313.757 377 313.874C374.757 314.263 372.541 314.795 370.366 315.467C353.726 321.05 330.562 336.898 316.691 346.757C311.609 350.388 308.279 353.104 304.658 355.779C304.33 355.998 304.101 356.339 304.024 356.726C303.947 357.113 304.026 357.515 304.245 357.844C304.464 358.172 304.805 358.4 305.192 358.478C305.579 358.555 305.981 358.476 306.31 358.257C312.596 354.349 311.162 355.796 322.311 348.33C337.639 356.402 354.128 362.043 371.188 365.051C383.224 366.998 395.565 365.459 406.753 360.615C420.591 354.353 427.348 339.147 429.815 323.78C429.889 323.399 429.81 323.005 429.595 322.682C429.379 322.359 429.045 322.134 428.665 322.057Z" fill="black"/>
<path d="M387.835 315.375C391.227 316.321 394.677 316.88 398.072 317.675C401.467 318.47 404.795 319.416 408.156 320.272L409.692 320.613C413.179 321.197 414.674 321.723 415.237 320.272C416.032 318.054 409.548 316.071 407.303 315.345C401.209 313.502 395.002 312.055 388.722 311.011C387.261 310.905 384.306 310.864 384.006 312.376C383.705 313.887 386.739 315.102 387.835 315.375Z" fill="black"/>
<path d="M153.071 242.832C153.039 242.466 152.917 242.114 152.716 241.805C152.516 241.497 152.243 241.243 151.921 241.065C145.774 237.417 138.943 235.069 131.852 234.165C129.221 234.062 130.621 235.994 116.636 250.545C111.111 246.669 105.969 242.274 101.28 237.42C101.009 237.132 100.669 236.919 100.292 236.799C99.915 236.68 99.5139 236.659 99.1266 236.738C91.7876 238.053 84.603 240.118 77.6858 242.901C77.2677 243.078 76.9106 243.373 76.6589 243.751C76.4071 244.129 76.2718 244.573 76.2697 245.027C76.855 257.5 78.2342 269.924 80.3988 282.223C81.9719 293.573 82.8694 305.848 85.265 317.051C85.3479 317.492 85.5603 317.899 85.8751 318.219C86.1898 318.539 86.5928 318.759 87.0327 318.849C96.8261 320.535 106.781 321.089 116.701 320.501C117.274 320.476 117.816 320.233 118.216 319.822C118.616 319.411 118.844 318.863 118.854 318.29L118.974 316.02C126.872 315.569 134.794 315.798 142.653 316.703L142.684 317.385C142.69 317.624 142.745 317.858 142.847 318.074C142.949 318.289 143.095 318.481 143.276 318.637C143.457 318.792 143.668 318.908 143.896 318.977C144.125 319.046 144.365 319.067 144.602 319.037C146.293 318.73 148.003 318.533 149.72 318.447C149.831 318.778 150.055 319.059 150.354 319.239C150.653 319.42 151.007 319.488 151.351 319.431C151.696 319.374 152.009 319.197 152.234 318.93C152.459 318.663 152.582 318.325 152.58 317.976C152.783 317.749 152.907 317.462 152.933 317.159C152.96 316.856 152.887 316.552 152.727 316.293C153.447 304.39 152.887 298.258 153.198 287.659C154.061 272.728 154.019 257.758 153.071 242.832ZM103.051 270.975C102.796 271.293 102.461 271.537 102.08 271.682C101.7 271.828 101.288 271.87 100.886 271.804C100.484 271.738 100.107 271.566 99.793 271.307C99.479 271.047 99.2397 270.709 99.0993 270.327C93.1479 253.554 89.5443 245.265 92.1992 244.197C95.1886 242.952 98.5533 255.012 102.078 264.959C103.375 263.427 104.703 261.922 106.119 260.478C110.947 255.65 111.954 254.844 113.135 255.759C114.377 256.878 113.268 258.417 109.381 263.369C107.358 265.918 105.085 268.307 103.051 270.975ZM117.817 283.26C117.697 290.887 117.779 297.818 117.435 302.841C117.015 307.581 117.298 310.311 115.339 310.274C113.606 310.243 113.695 308.526 113.292 302.841C112.835 298.432 113.213 270.081 113.852 265.123C114.063 263.509 114.65 259.902 116.271 260.004C119.298 260.161 117.991 272.17 117.817 283.26ZM137.466 267.041C137.407 267.428 137.249 267.793 137.009 268.102C136.769 268.411 136.454 268.654 136.094 268.808C135.734 268.961 135.34 269.02 134.951 268.979C134.562 268.938 134.189 268.798 133.869 268.573C123.942 261.506 117.104 257.653 118.356 255.421C120.09 252.35 130.641 260.54 133.484 262.618C134.166 258.182 134.784 253.623 135.698 249.197C136.534 245.013 137.575 240.413 139.473 240.792C142.09 241.314 139.943 250.627 137.466 267.037V267.041Z" fill="#0096FF"/>
<path d="M91.0049 347.466C92.8852 346.862 92.6463 344.665 90.6227 344.518C87.0106 344.36 83.3932 344.667 79.8597 345.432C79.1157 345.719 78.4435 346.081 78.4435 346.849C78.4435 349.804 88.0394 348.439 91.0049 347.466Z" fill="black"/>
<path d="M91.4075 354.923C93.3424 354.169 92.8954 352.06 90.8752 352.005C87.2141 352.103 83.6128 352.956 80.2964 354.51C79.6412 354.943 79.0508 355.428 79.2351 356.216C79.8323 358.823 88.9539 355.871 91.4075 354.923Z" fill="black"/>
<path d="M144.615 348.35C146.867 350.927 154.279 352.445 158.153 351.978C158.348 351.987 158.544 351.958 158.728 351.892C158.913 351.826 159.082 351.725 159.227 351.593C159.372 351.462 159.49 351.303 159.574 351.126C159.658 350.949 159.706 350.757 159.716 350.561C159.725 350.366 159.696 350.17 159.63 349.986C159.564 349.801 159.463 349.632 159.331 349.487C159.2 349.342 159.041 349.224 158.864 349.14C158.687 349.056 158.495 349.008 158.299 348.999C148.014 346.972 145.035 344.716 144.083 346.432C143.707 347.115 144.103 347.756 144.615 348.35Z" fill="black"/>
<path d="M144.974 356.472C148.304 358.827 152.348 359.952 156.416 359.656C158.419 359.431 158.607 357.267 156.655 356.708C152.867 355.595 146.758 353.978 146.243 353.933C145.482 353.858 144.721 353.851 144.356 354.585C144.011 355.264 144.479 355.895 144.974 356.472Z" fill="black"/>
<path d="M81.2179 305.489C83.6067 315.249 84.2448 316.573 85.8179 316.225C87.6505 315.884 87.2137 314.597 84.197 297.798C78.0784 263.556 79.9246 247.429 76.2288 247.688C70.6733 247.903 79.5151 298.93 81.2179 305.489Z" fill="black"/>
<path d="M63.9438 305.957C63.8175 305.984 65.162 305.704 54.0066 307.871C53.6288 307.948 53.2378 307.929 52.8693 307.816C52.5008 307.702 52.1665 307.499 51.8968 307.223C51.6272 306.948 51.4307 306.609 51.3253 306.239C51.22 305.868 51.2091 305.477 51.2936 305.1C56.856 281.503 61.0602 256.861 64.6536 257.827C66.8853 258.363 66.0902 261.478 56.5728 302.681C61.0397 301.79 65.8479 300.975 69.3116 300.5C69.7703 300.439 70.2367 300.52 70.6485 300.731C71.0602 300.942 71.3977 301.274 71.6159 301.682C71.834 302.09 71.9224 302.555 71.8692 303.014C71.816 303.474 71.6238 303.907 71.3182 304.254C68.148 307.946 63.9199 313.031 60.9374 316.908C62.3024 318.29 65.9571 321.269 68.2503 323.426C68.532 323.678 68.7057 324.029 68.735 324.405C68.7643 324.782 68.6471 325.156 68.4078 325.448C68.1685 325.741 67.8255 325.93 67.4503 325.976C67.0752 326.022 66.6968 325.921 66.3939 325.695C62.6231 322.965 60.4903 321.77 56.7775 318.675C56.4097 318.33 56.1802 317.862 56.1319 317.36C56.0835 316.857 56.2196 316.355 56.5148 315.945C58.797 312.476 61.2774 309.141 63.9438 305.957Z" fill="black"/>
<path d="M151.748 253.718C151.748 285.454 152.563 246.603 151.126 302.616C151.126 310.495 150.785 312.072 152.543 312.198C154.59 312.345 154.641 309.386 155.46 301.346C156.661 285.44 156.898 269.476 156.17 253.541C156.017 251.312 155.593 245.726 153.573 245.873C151.724 245.944 151.748 250.65 151.748 253.718Z" fill="black"/>
<path d="M228.341 317.819C224.332 303.154 217.457 289.43 208.112 277.439C198.767 265.448 187.139 255.428 173.898 247.958C168.441 245.098 162.645 242.938 156.648 241.529C156.296 241.396 155.906 241.408 155.563 241.562C155.221 241.717 154.953 242.001 154.82 242.353C154.687 242.704 154.699 243.095 154.854 243.437C155.008 243.78 155.293 244.047 155.644 244.18C157.392 244.928 168.189 249.906 171.717 251.879C197.304 266.519 216.086 290.658 223.99 319.057C226.653 327.166 228.184 335.605 228.539 344.132C226.952 340.832 224.63 337.938 221.751 335.673C207.259 323.965 185.217 328.919 168.175 336.424C170.987 330.482 170.311 331.533 172.451 326.698C172.607 326.372 172.679 326.012 172.658 325.651C172.638 325.29 172.527 324.94 172.335 324.633C171.499 323.268 170.158 323.535 168.356 323.429C169.578 321.04 169.625 320.422 170.687 317.969C170.825 317.63 170.879 317.263 170.843 316.899C170.807 316.535 170.683 316.185 170.481 315.88C170.279 315.575 170.006 315.324 169.685 315.148C169.364 314.973 169.005 314.879 168.639 314.874C163.302 314.706 151.304 314.065 146.325 316.061C146.402 315.728 146.4 315.381 146.319 315.048C146.239 314.716 146.082 314.406 145.862 314.144C145.642 313.883 145.363 313.676 145.049 313.54C144.735 313.404 144.394 313.343 144.052 313.362C136.657 313.669 125.966 313.976 118.424 313.703C118.108 313.687 117.791 313.738 117.496 313.853C117.201 313.968 116.933 314.144 116.71 314.369C116.487 314.595 116.315 314.865 116.204 315.162C116.093 315.459 116.046 315.776 116.066 316.092C116.094 316.566 116.114 317.044 116.135 317.525C109.238 316.338 90.1415 316.972 80.2213 317.136C72.6661 317.256 74.2085 321.016 81.7263 321.617C85.7052 321.852 89.7456 321.501 93.728 321.501C106.098 321.31 112.838 321.501 116.394 321.272C116.435 321.613 116.448 321.955 116.653 323.439C103.921 323.78 87.3432 324.077 74.3382 323.476C74.0392 323.463 73.7409 323.516 73.4648 323.632C73.1888 323.747 72.9418 323.923 72.7417 324.145C72.5416 324.368 72.3934 324.632 72.3077 324.919C72.2221 325.206 72.2011 325.508 72.2463 325.804C73.3656 330.96 73.021 329.752 74.4986 335.727C68.752 332.875 62.8242 330.404 56.7536 328.329C57.4702 326.65 59.0263 322.019 57.2382 321.316C55.2965 320.555 53.655 325.138 53.1432 327.066C34.3744 320.794 19.7314 322.613 6.86625 339.157C14.8037 296.985 41.6737 263.318 72.5125 247.733C72.6801 247.657 72.8309 247.548 72.9561 247.413C73.0813 247.278 73.1785 247.12 73.242 246.947C73.3055 246.774 73.3341 246.591 73.326 246.407C73.3179 246.223 73.2734 246.043 73.195 245.876C73.0444 245.534 72.7652 245.265 72.4179 245.127C72.0705 244.989 71.6828 244.994 71.3386 245.139C31.4328 261.277 5.30674 307.079 0.812474 348.78C0.561932 350.981 0.486621 353.198 0.58725 355.411C1.36847 360.135 3.69004 364.469 7.19044 367.737C21.4171 382.874 56.4874 373.777 76.256 367.266C81.1837 365.672 85.9885 363.816 90.8854 362.147C91.261 362.037 91.5777 361.783 91.7659 361.44C91.954 361.097 91.9982 360.693 91.8887 360.318C91.7792 359.942 91.5249 359.626 91.1819 359.437C90.8389 359.249 90.4352 359.205 90.0596 359.315C85.0773 360.652 80.0302 361.761 75.0173 363.147C57.5248 368.027 23.7172 378.312 10.463 364.563C7.69172 361.924 5.75437 358.531 4.89041 354.803C4.50549 353.265 4.57544 351.648 5.09175 350.149C11.8383 338.372 20.9633 328.65 34.6406 328.206C44.0659 327.889 54.1533 331.994 65.7216 336.198C74.5054 339.311 84.2583 346.234 93.8577 339.737C94.1833 339.52 94.4115 339.185 94.4937 338.803C94.5759 338.42 94.5057 338.021 94.2979 337.69C94.1911 337.527 94.0533 337.388 93.8925 337.279C93.7316 337.171 93.5509 337.095 93.3607 337.056C93.1704 337.017 92.9744 337.017 92.7839 337.054C92.5933 337.091 92.4121 337.166 92.2504 337.273C87.6265 340.092 82.9684 339.239 77.9452 337.229C77.4094 334.205 76.86 330.431 76.512 327.64C98.4919 329.834 138.906 326.275 167.138 327.848C165.755 331.31 164.573 334.849 163.599 338.447C157.924 340.989 151.437 343.795 145.98 340.805C145.659 340.61 145.274 340.55 144.909 340.638C144.544 340.727 144.229 340.957 144.033 341.278C143.838 341.599 143.778 341.984 143.867 342.349C143.955 342.714 144.185 343.029 144.506 343.225C158.839 352.728 173.946 332.526 201.13 333.257C218.823 333.741 228.136 345.992 225.311 356.172C224.308 359.282 222.501 362.071 220.072 364.256C217.642 366.441 214.678 367.945 211.48 368.614C189.613 373.804 166.625 371.294 146.393 361.509C146.225 361.412 146.039 361.349 145.847 361.324C145.654 361.299 145.459 361.312 145.271 361.363C145.084 361.413 144.908 361.5 144.754 361.619C144.6 361.737 144.471 361.885 144.375 362.053C144.278 362.221 144.215 362.407 144.19 362.6C144.165 362.792 144.178 362.988 144.229 363.175C144.279 363.363 144.366 363.538 144.485 363.692C144.603 363.846 144.751 363.975 144.919 364.072C165.513 375.605 189.739 378.823 212.63 373.067C217.318 372.113 221.574 369.676 224.77 366.116C227.966 362.556 229.931 358.062 230.375 353.298C234.432 342.095 231.648 329.254 228.341 317.819ZM141.462 322.91C134.53 322.994 127.599 323.14 120.67 323.347C120.829 321.683 120.857 320.009 120.755 318.341C126.717 318.47 132.112 318.45 141.633 317.924C141.633 318.586 141.588 317.774 141.462 322.91ZM164.326 323.221C152.59 322.675 148.222 322.862 144.755 322.879C144.997 321.931 145.243 320.982 145.472 320.03C148.768 320.395 150.502 318.853 165.373 319.31C164.918 320.583 164.564 321.891 164.316 323.221H164.326Z" fill="black"/>
<path d="M176.215 293.948C174.734 287.362 174.294 283.212 173 276.961C171.513 269.713 166.421 256.458 169.373 255.551C171.008 255.093 171.922 257.759 173.56 262.127C177.996 274.265 178.819 285.222 181.201 295.067C181.354 295.646 181.273 296.262 180.975 296.781C180.676 297.3 180.185 297.68 179.607 297.838C177.293 298.545 172.315 299.681 170.994 299.992C173.523 301.674 175.858 303.633 177.955 305.83C178.296 306.169 178.5 306.621 178.527 307.101C178.554 307.58 178.403 308.053 178.102 308.427C176.722 309.963 175.432 311.578 174.239 313.263C174.14 313.429 174.01 313.575 173.855 313.691C173.7 313.807 173.523 313.891 173.336 313.939C173.148 313.987 172.953 313.997 172.761 313.97C172.57 313.942 172.386 313.877 172.219 313.778C172.053 313.679 171.907 313.549 171.791 313.394C171.675 313.239 171.591 313.062 171.543 312.875C171.495 312.687 171.485 312.492 171.512 312.3C171.54 312.109 171.605 311.924 171.704 311.758C172.398 310.328 173.176 308.94 174.034 307.602C170.866 305.222 167.578 303.007 164.183 300.964C163.812 300.729 163.517 300.391 163.335 299.992C163.153 299.592 163.091 299.148 163.157 298.714C163.223 298.28 163.414 297.874 163.706 297.547C163.998 297.219 164.38 296.984 164.804 296.869L176.215 293.948Z" fill="black"/>
<path d="M605.569 253.397C607.017 253.738 608.485 253.985 609.964 254.135C614.176 253.97 618.342 255.058 621.935 257.26C629.228 263.014 625.989 274.975 625.505 288.403C625.469 288.789 625.586 289.174 625.83 289.475C626.075 289.776 626.427 289.969 626.812 290.014C627.198 290.059 627.585 289.951 627.892 289.713C628.198 289.476 628.4 289.128 628.453 288.744C630.457 281.891 631.373 274.765 631.166 267.628C630.542 258.499 626.211 252.029 617.069 250.316C613.259 249.409 609.281 249.49 605.511 250.551C605.325 250.555 605.142 250.596 604.971 250.67C604.801 250.745 604.647 250.853 604.518 250.987C604.389 251.121 604.288 251.279 604.221 251.452C604.153 251.626 604.12 251.811 604.124 251.997C604.128 252.183 604.168 252.366 604.243 252.536C604.317 252.707 604.425 252.861 604.559 252.99C604.693 253.118 604.852 253.219 605.025 253.287C605.198 253.355 605.383 253.388 605.569 253.384V253.397Z" fill="#0096FF"/>
<path d="M215.203 265.836C215.552 264.373 215.819 262.892 216.001 261.4C217.087 250.029 220.878 245.245 231.777 243.115C232.504 242.969 241.039 241.665 243.104 241.437C243.299 241.435 243.493 241.395 243.673 241.319C243.853 241.242 244.017 241.131 244.154 240.991C244.291 240.851 244.399 240.685 244.472 240.504C244.544 240.322 244.58 240.127 244.578 239.932C244.579 239.735 244.54 239.54 244.465 239.359C244.389 239.178 244.278 239.014 244.137 238.876C243.997 238.739 243.83 238.631 243.647 238.559C243.465 238.487 243.269 238.452 243.073 238.457C225.01 236.751 211.487 243.262 211.548 261.195C211.554 262.822 211.833 264.437 212.374 265.972C212.399 266.341 212.567 266.685 212.842 266.932C213.117 267.178 213.478 267.308 213.847 267.292C214.216 267.277 214.564 267.117 214.818 266.848C215.071 266.58 215.209 266.222 215.203 265.853V265.836Z" fill="#0096FF"/>
<path d="M374.867 235.625C376.727 236.211 378.667 236.5 380.617 236.482C392.95 237.075 403.047 238.13 409.282 248.217C410.597 250.269 411.732 252.43 412.674 254.677C412.723 254.865 412.808 255.041 412.926 255.195C413.043 255.35 413.19 255.479 413.358 255.577C413.525 255.674 413.711 255.737 413.903 255.762C414.095 255.788 414.291 255.775 414.478 255.724C414.665 255.673 414.84 255.586 414.993 255.467C415.147 255.348 415.275 255.2 415.37 255.031C415.466 254.862 415.527 254.676 415.551 254.484C415.574 254.291 415.559 254.096 415.506 253.909C412.855 236.813 398.174 232.028 380.736 232.028C378.751 231.957 376.767 232.217 374.867 232.796C374.492 232.796 374.132 232.945 373.867 233.21C373.601 233.475 373.451 233.834 373.451 234.209C373.448 234.396 373.483 234.581 373.554 234.754C373.624 234.926 373.728 235.084 373.86 235.215C373.992 235.347 374.149 235.452 374.322 235.522C374.495 235.592 374.68 235.627 374.867 235.625Z" fill="#0096FF"/>
<path d="M22.8368 277.384C23.3128 276.042 23.7161 274.675 24.0448 273.289C25.9763 263.772 30.4467 257.79 40.1757 255.507C43.6648 254.778 47.1991 254.286 50.7544 254.032C51.1495 254.055 51.5375 253.921 51.8332 253.658C52.1289 253.395 52.3079 253.025 52.331 252.63C52.3541 252.235 52.2193 251.847 51.9563 251.551C51.6932 251.255 51.3235 251.076 50.9285 251.053C33.0709 248.187 21.0316 258.475 19.6393 272.61C19.4683 274.172 19.5839 275.751 19.9805 277.272C19.9728 277.458 20.002 277.644 20.0665 277.82C20.131 277.995 20.2295 278.156 20.3563 278.293C20.4832 278.43 20.6359 278.54 20.8057 278.618C20.9754 278.696 21.1589 278.739 21.3455 278.746C21.723 278.76 22.0908 278.625 22.3698 278.37C22.6487 278.115 22.8165 277.761 22.8368 277.384Z" fill="#0096FF"/>
<path d="M95.2808 370.05C98.294 370.299 129.634 370.224 134.709 370.081C138.248 370.081 145.769 369.985 145.769 367.897C145.769 366.037 143.38 365.904 134.709 365.658C131.064 365.57 98.9083 365.419 95.2808 365.716C93.5438 365.839 89.616 366.167 89.616 367.897C89.616 369.627 93.5336 369.938 95.2808 370.05Z" fill="black"/>
<path d="M233.074 369.313C234.678 369.515 239.558 369.962 242.288 370.05C251.679 370.392 331.05 370.05 333.913 369.962C342.786 369.699 348.454 369.371 348.454 369.371C348.849 369.371 349.227 369.215 349.506 368.936C349.785 368.657 349.942 368.278 349.942 367.883C349.942 367.489 349.785 367.11 349.506 366.831C349.227 366.552 348.849 366.396 348.454 366.396C348.454 366.396 329.904 365.686 327.692 365.659C240.312 364.706 232.712 366.498 233.057 366.454C232.678 366.456 232.315 366.609 232.048 366.878C231.782 367.148 231.633 367.513 231.636 367.892C231.638 368.271 231.791 368.634 232.06 368.901C232.33 369.167 232.695 369.316 233.074 369.313Z" fill="black"/>
<path d="M422.963 370.05C426.832 370.272 476.372 370.3 483.627 369.962C492.035 369.583 494.745 369.818 494.745 367.897C494.745 366.321 492.909 365.945 479.498 365.659C470.564 365.467 458.531 365.57 447.42 365.57C425.805 365.635 415.421 365.017 415.421 367.897C415.431 369.661 418.714 369.842 422.963 370.05Z" fill="black"/>
<path d="M395.376 395.494C395.359 395.104 395.189 394.736 394.902 394.47C394.615 394.205 394.234 394.064 393.844 394.078C393.456 394.102 393.092 394.274 392.828 394.56C392.564 394.845 392.421 395.221 392.428 395.61L392.25 407.82C351.17 407.479 312.63 410.079 268.95 409.867C252.911 409.827 235.917 412.939 220.083 410.427C219.922 407.585 219.032 399.954 218.718 395.859C218.722 395.67 218.688 395.481 218.618 395.305C218.548 395.129 218.443 394.97 218.309 394.835C218.175 394.701 218.016 394.595 217.84 394.525C217.664 394.454 217.476 394.419 217.286 394.423C217.097 394.427 216.91 394.469 216.738 394.547C216.565 394.625 216.41 394.738 216.282 394.877C216.154 395.017 216.055 395.181 215.992 395.36C215.93 395.538 215.904 395.728 215.916 395.917C215.779 399.33 215.762 400.401 215.827 412.314C215.837 412.809 216.015 413.286 216.331 413.666C216.647 414.047 217.083 414.309 217.568 414.409C225.306 415.801 233.186 416.247 241.032 415.737C238.189 433.936 232.712 458.571 248.594 469.907C237.674 493.279 237.149 519.73 232.525 544.224C232.456 544.595 232.48 544.976 232.595 545.335C232.709 545.694 232.91 546.019 233.18 546.282C233.45 546.544 233.78 546.736 234.142 546.84C234.504 546.945 234.886 546.958 235.255 546.879C243.29 545.62 251.444 545.294 259.555 545.907C263.237 545.944 267.745 545.467 271.263 545.845C275.935 546.432 275.085 533.997 304.293 487.632C308.657 489.167 314.233 489.904 318.892 491.703C320.955 492.265 322.82 493.394 324.274 494.962C325.728 496.531 326.714 498.475 327.119 500.575C327.868 504.133 328.204 507.765 328.122 511.4C328.269 518.535 328.682 525.759 328.743 532.987C328.829 547.009 327.433 547.47 328.682 548.852C329.631 549.899 330.508 549.968 339.773 549.797C346.997 549.62 354.221 548.968 361.418 548.794C361.92 548.787 362.405 548.611 362.795 548.296C363.186 547.98 363.459 547.543 363.571 547.053C368.643 525.725 371.947 504.015 373.451 482.144C374.048 471.651 374.969 459.833 368.332 451.118C374.863 438.904 375.297 425.739 373.819 412.028C395.82 411.447 394.581 411.686 395.372 410.925C395.544 410.756 395.68 410.554 395.771 410.331C395.862 410.108 395.908 409.869 395.905 409.629C395.69 399.968 395.485 397.306 395.376 395.494ZM300.594 418.931C293.212 419.776 286.236 422.747 280.511 427.483C270.792 435.332 266.056 446.419 263.909 450.135C263.261 451.312 262.544 452.404 261.933 453.547C261.873 453.722 261.78 453.883 261.657 454.021C261.535 454.159 261.387 454.271 261.221 454.352C261.056 454.433 260.876 454.48 260.692 454.492C260.508 454.503 260.323 454.478 260.149 454.418C259.974 454.358 259.814 454.264 259.676 454.142C259.537 454.019 259.425 453.871 259.344 453.706C259.263 453.54 259.216 453.36 259.205 453.176C259.193 452.992 259.219 452.807 259.279 452.633C259.489 451.262 259.775 449.904 260.135 448.565C263.58 438.884 269.631 430.341 277.621 423.879C282.051 419.949 287.367 417.151 293.115 415.725C298.862 414.298 304.87 414.286 310.623 415.689C311.006 415.748 311.351 415.957 311.58 416.269C311.809 416.582 311.905 416.973 311.846 417.356C311.788 417.739 311.579 418.084 311.266 418.313C310.954 418.543 310.563 418.638 310.179 418.58C306.981 418.353 303.767 418.471 300.594 418.931ZM343.226 442.477C341.144 443.296 337.903 445.074 337.329 445.368C330.085 449.173 324.079 453.762 315.653 465.334C314.686 466.766 313.503 468.04 312.145 469.108C312.05 469.273 311.923 469.417 311.771 469.532C311.619 469.647 311.445 469.729 311.261 469.775C311.076 469.821 310.884 469.829 310.696 469.799C310.508 469.769 310.328 469.701 310.167 469.599C310.006 469.498 309.868 469.365 309.759 469.209C309.651 469.052 309.575 468.875 309.537 468.689C309.498 468.503 309.498 468.31 309.536 468.124C309.573 467.937 309.648 467.76 309.756 467.604C310.123 466.166 310.709 464.795 311.493 463.536C316.653 455.005 326.692 444.791 335.882 441.269C338.011 440.482 340.216 439.918 342.462 439.587C342.845 439.486 343.253 439.541 343.596 439.74C343.938 439.939 344.188 440.267 344.289 440.65C344.39 441.033 344.335 441.441 344.136 441.784C343.937 442.126 343.609 442.376 343.226 442.477Z" fill="black"/>
<path d="M153.269 392.095C153.655 399.292 153.771 406.458 153.979 413.652L153.269 392.095Z" fill="#0096FF"/>
<path d="M398.758 428.24C379.235 441.597 383.439 480.609 389.616 503.708C391.125 509.241 392.996 514.668 395.219 519.955C395.278 520.146 395.375 520.324 395.504 520.478C395.634 520.631 395.793 520.757 395.971 520.848C396.15 520.939 396.346 520.993 396.546 521.007C396.746 521.021 396.947 520.995 397.137 520.93C397.327 520.865 397.501 520.762 397.651 520.628C397.8 520.494 397.921 520.331 398.006 520.15C398.092 519.968 398.14 519.771 398.147 519.57C398.155 519.37 398.122 519.17 398.051 518.982C396.495 513.863 394.98 506.991 393.891 502.602C388.233 478.715 384.524 448.859 400.645 430.349C400.924 430.097 401.093 429.746 401.115 429.37C401.138 428.995 401.011 428.626 400.764 428.343C400.64 428.203 400.489 428.09 400.32 428.009C400.152 427.929 399.969 427.882 399.782 427.873C399.596 427.863 399.409 427.891 399.233 427.954C399.057 428.017 398.896 428.114 398.758 428.24Z" fill="black"/>
<path d="M422.734 434.69C404.9 448.852 407.75 484.837 411.94 507.148C413.111 513.106 413.52 514.423 415.834 523.074C415.875 523.264 415.953 523.443 416.063 523.603C416.173 523.763 416.314 523.899 416.477 524.005C416.64 524.11 416.822 524.182 417.013 524.217C417.204 524.252 417.4 524.249 417.59 524.208C417.78 524.168 417.959 524.09 418.119 523.98C418.279 523.869 418.415 523.729 418.521 523.566C418.626 523.402 418.698 523.22 418.733 523.029C418.768 522.838 418.765 522.642 418.724 522.453C414.121 492.034 407.753 463.232 422.819 439.556C423.419 438.561 424.068 437.596 424.765 436.666C426.041 435.321 424.024 433.328 422.734 434.69Z" fill="black"/>
<path d="M126.143 476.333C126.778 477.606 127.44 479.745 127.911 480.769C130.39 486.798 132.152 493.097 133.16 499.538C139.985 532.834 136.105 513.529 139.06 529.441C139.708 532.775 140.425 536.048 140.916 539.382C140.951 539.777 141.142 540.142 141.447 540.396C141.751 540.651 142.144 540.774 142.539 540.739C142.934 540.703 143.299 540.512 143.553 540.208C143.807 539.904 143.931 539.511 143.895 539.116C143.728 524.927 141.377 516.74 137.674 498.627C135.146 486.782 133.787 480.025 128.461 474.678C128.237 474.379 127.906 474.178 127.538 474.117C127.17 474.057 126.792 474.142 126.485 474.353C126.332 474.46 126.201 474.597 126.101 474.754C126.001 474.912 125.933 475.088 125.901 475.272C125.869 475.456 125.874 475.645 125.916 475.827C125.958 476.009 126.035 476.181 126.143 476.333Z" fill="black"/>
<path d="M168.025 441.716C169.493 443.823 170.719 446.088 171.68 448.47C174.44 455.917 175.469 463.894 174.69 471.797C172.912 538.584 173.69 521.477 174.069 531.96C174.155 533.632 174.106 535.309 173.922 536.973C173.884 537.166 173.885 537.364 173.925 537.557C173.965 537.75 174.042 537.932 174.153 538.095C174.264 538.257 174.406 538.396 174.571 538.503C174.736 538.61 174.921 538.683 175.114 538.718C175.308 538.753 175.506 538.749 175.698 538.707C175.89 538.664 176.072 538.584 176.233 538.471C176.394 538.358 176.53 538.214 176.635 538.048C176.74 537.881 176.811 537.696 176.843 537.502C177.64 531.6 177.975 525.646 177.843 519.692C178.082 514.884 178.965 483.004 179.259 471.886C179.573 459.625 179.221 447.75 170.117 439.809C169.856 439.563 169.513 439.425 169.155 439.422C168.797 439.42 168.451 439.552 168.187 439.793C167.922 440.034 167.759 440.366 167.729 440.723C167.699 441.08 167.805 441.434 168.025 441.716Z" fill="black"/>
<path d="M211.818 475.613C211.408 478.599 211.238 479.551 211.2 480.656C209.948 500.882 211.2 494.74 205.863 526.868C205.286 530.52 204.624 536.915 204.474 538.252C204.413 538.634 204.503 539.024 204.725 539.341C204.947 539.657 205.284 539.875 205.663 539.948C206.043 540.02 206.436 539.943 206.759 539.731C207.082 539.519 207.31 539.189 207.395 538.812C208.76 533.796 209.514 531.079 210.227 527.694C212.811 515.314 216.414 492.634 215.534 480.626C215.359 478.901 215.064 477.19 214.65 475.507C214.642 475.321 214.598 475.138 214.52 474.969C214.442 474.8 214.331 474.649 214.194 474.522C214.057 474.396 213.897 474.298 213.722 474.234C213.547 474.17 213.362 474.141 213.176 474.149C212.99 474.156 212.807 474.2 212.638 474.279C212.469 474.357 212.318 474.468 212.191 474.604C212.065 474.741 211.967 474.902 211.903 475.076C211.839 475.251 211.81 475.437 211.818 475.623V475.613Z" fill="black"/>
<path d="M643.301 370.101C643.274 367.56 642.24 365.133 640.427 363.353C638.613 361.573 636.168 360.584 633.627 360.604C631.166 360.649 620.089 360.782 618.41 362.225C616.793 363.614 618.902 365.781 620.209 364.467C624.66 363.933 629.148 363.766 633.627 363.966C634.421 363.974 635.206 364.139 635.936 364.454C636.665 364.768 637.325 365.224 637.877 365.796C638.428 366.367 638.861 367.043 639.149 367.783C639.437 368.524 639.574 369.314 639.554 370.108L639.465 376.773C639.444 378.288 638.83 379.735 637.756 380.804C636.681 381.873 635.231 382.479 633.715 382.492C610.333 382.734 22.8129 393.003 21.0726 392.388C20.3015 392.088 19.5987 391.636 19.006 391.058C18.4133 390.481 17.9428 389.79 17.6225 389.027C16.8411 387.253 17.0765 386.249 17.0765 378.998C17.0765 378.597 16.9173 378.212 16.6337 377.929C16.3502 377.645 15.9657 377.486 15.5648 377.486C15.1638 377.486 14.7793 377.645 14.4958 377.929C14.2123 378.212 14.053 378.597 14.053 378.998C14.053 387.157 13.8517 388.089 14.7356 390.235C15.1978 391.39 15.8898 392.44 16.7697 393.32C17.6496 394.2 18.699 394.892 19.8543 395.354C22.2123 396.32 22.4512 396.088 35.8555 395.89C33.8967 411.372 35.7702 423.401 36.0159 450.886C36.2206 470.146 35.6746 489.447 36.9304 507.745C37.3161 512.758 37.9747 517.757 38.4661 522.814C38.4773 523.013 38.5283 523.207 38.6161 523.385C38.7039 523.563 38.8266 523.722 38.977 523.852C39.1274 523.981 39.3023 524.08 39.4915 524.14C39.6806 524.201 39.88 524.223 40.0779 524.206C40.2758 524.188 40.468 524.13 40.6432 524.036C40.8184 523.943 40.9729 523.815 41.0976 523.66C41.2223 523.505 41.3146 523.327 41.3691 523.136C41.4235 522.945 41.4389 522.745 41.4145 522.548C40.476 503.578 41.5885 469.136 38.9643 395.845L47.3795 395.722C46.9803 409.605 48.8435 431.762 48.9868 449.473C49.212 471.357 46.6561 466.672 49.2837 507.54C49.5772 512.348 49.9014 517.126 50.0208 521.903C50.017 522.097 50.0514 522.289 50.1219 522.469C50.1925 522.65 50.2979 522.814 50.4321 522.954C50.5663 523.094 50.7266 523.205 50.904 523.283C51.0814 523.361 51.2724 523.402 51.466 523.406C51.6596 523.41 51.852 523.376 52.0324 523.305C52.2127 523.235 52.3773 523.129 52.5169 522.995C52.6565 522.861 52.7683 522.7 52.8459 522.523C52.9235 522.346 52.9654 522.155 52.9692 521.961C53.9213 504.557 52.7371 493.948 52.6723 481.738C52.5631 470.999 53.7302 459.717 53.5869 449.415C53.4026 429.158 51.8055 405.895 51.611 403.82C51.3073 400.913 50.9524 398.531 50.519 395.675L88.6128 395.101C88.5503 400.749 88.8146 406.396 89.4045 412.014C89.5405 412.691 89.7125 413.361 89.9197 414.02C84.2959 413.239 74.5328 413.703 62.5754 413.703C60.6542 413.703 56.3646 413.884 56.293 415.798C56.2008 418.276 63.118 418.214 64.5785 418.245C70.547 418.313 85.9408 418.074 86.6096 418.04C91.9058 417.754 93.5745 417.583 93.6291 416.064C93.9021 408.557 93.0627 395.518 92.991 395.033C110.101 394.774 129.744 394.477 151.157 394.146C151.048 396.365 151.103 398.589 151.321 400.8C151.41 403.837 151.379 406.844 151.662 409.854C151.683 410.161 151.727 412.089 151.775 413.065C143.087 412.246 129.123 412.703 118.189 412.771C112.497 412.312 106.777 412.312 101.085 412.771C99.8015 413.081 98.5395 413.475 97.3078 413.952C96.9421 414.037 96.6226 414.259 96.4146 414.571C96.2066 414.884 96.1257 415.264 96.1885 415.634C96.2698 416.002 96.4905 416.324 96.8042 416.533C97.1178 416.742 97.5001 416.821 97.8709 416.754C98.724 416.723 99.5191 416.798 100.348 416.842C103.665 417.016 105.174 416.894 107.808 416.989C111.289 417.136 114.766 417.375 118.22 417.375C185.084 416.839 150.021 418.207 194.151 417.122C210.255 426.056 213.52 440.669 213.097 458.915C193.503 418.556 121.175 426.083 120.673 472.07C92.8238 474.118 67.9398 475.22 61.7803 447.947C59.9905 438.413 59.0234 428.743 58.8899 419.044C58.8859 418.858 58.8452 418.674 58.7703 418.504C58.6954 418.334 58.5877 418.18 58.4534 418.051C58.182 417.791 57.8186 417.65 57.443 417.658C57.0674 417.666 56.7104 417.823 56.4506 418.095C56.1908 418.366 56.0494 418.729 56.0575 419.105C55.3085 429.052 55.7738 439.054 57.443 448.889C60.3914 462.307 67.5576 469.682 76.7611 473.633C90.0904 479.353 107.904 477.554 123.147 476.524C123.744 476.477 124.3 476.204 124.701 475.759C125.102 475.315 125.316 474.733 125.301 474.135C123.635 427.95 202.15 423.173 212.439 470.559C212.561 471.071 212.86 471.524 213.284 471.836C213.709 472.149 214.23 472.301 214.755 472.266C215.281 472.231 215.777 472.011 216.156 471.644C216.535 471.278 216.771 470.789 216.824 470.265C218.824 448.302 217.421 427.537 198.441 416.075C198.765 415.645 198.925 415.114 198.891 414.577C198.069 406.114 198.55 404.117 197.185 393.436C278.791 392.184 375.86 390.682 457.733 389.413C457.985 392.187 459.579 401.855 460.316 405.595C440.421 404.824 406.139 406.373 398.43 424.592C398.233 425.048 398.189 425.555 398.305 426.038C398.421 426.52 398.69 426.952 399.073 427.268C399.456 427.584 399.931 427.768 400.427 427.79C400.922 427.813 401.412 427.674 401.822 427.394C423.662 412.703 453.993 428.172 470.803 448.036C475.041 452.875 481.671 464.027 482.275 471.009C482.476 471.762 482.517 472.549 482.396 473.319C482.275 474.09 481.995 474.826 481.573 475.481C481.151 476.137 480.596 476.697 479.945 477.125C479.294 477.554 478.56 477.842 477.791 477.971C474.855 478.302 471.901 478.447 468.946 478.404C472.359 472.497 475.403 471.07 474.229 469.46C473.021 467.754 469.089 470.941 467.946 472.084C458.453 481.578 456.89 505.103 456.89 518.562C456.965 525.558 456.675 527.455 458.48 527.585C460.21 527.708 460.49 526.032 461.34 515.525C462.118 504.298 462.684 492.457 466.8 482.738C470.503 483.103 474.236 483.036 477.924 482.54C497.816 479.267 497.345 478.53 508.477 476.612C524.734 473.78 539.551 472.831 555.927 468.764C556.829 471.059 558.372 473.046 560.372 474.489C562.371 475.932 564.743 476.77 567.206 476.902C576.832 477.537 579.559 470.163 578.621 460.475C578.416 458.315 578.242 456.151 578.057 453.991C578.101 453.939 578.14 453.883 578.173 453.824C587.957 445.528 591.458 435.847 594.246 423.156C594.304 422.846 594.298 422.528 594.228 422.221C594.158 421.914 594.026 421.625 593.84 421.371C593.931 418.182 593.827 414.992 593.53 411.816C593.503 409.943 593.347 408.074 593.062 406.223C596.645 406.653 600.228 407.308 603.569 407.499C603.964 407.538 604.358 407.418 604.664 407.167C604.971 406.915 605.165 406.552 605.204 406.158C605.243 405.763 605.123 405.369 604.872 405.063C604.62 404.756 604.257 404.562 603.863 404.523C594.738 403.401 584.07 399.715 575.375 403.991C570.233 406.564 572.243 417.006 572.188 420.77C572.081 434.184 572.702 447.593 574.048 460.939C574.676 467.423 573.98 472.77 567.53 472.35C560.91 471.811 559.34 465.866 558.21 459.314C557.675 455.724 557.339 452.107 557.204 448.48C557.958 439.826 559.074 430.939 554.678 424.19C553.713 414.344 552.01 398.364 561.66 396.944C569.57 396.053 577.536 395.767 585.49 396.088C590.68 396.381 594.663 397.06 601.327 397.415C601.699 397.45 602.069 397.337 602.357 397.099C602.644 396.861 602.826 396.519 602.861 396.147C602.896 395.776 602.783 395.405 602.545 395.118C602.307 394.83 601.965 394.649 601.593 394.613C589.363 392.883 587.715 390.634 568.209 391.781C561.5 392.208 556.432 392.221 552.815 397.504C548.792 403.343 549.246 412.15 549.7 419.183C541.121 412.911 529.225 410.591 518.663 409.157C518.54 406.427 515.851 391.02 515.151 388.536L607.971 387.096C606.757 404.462 608.313 428.841 608.616 454.619C608.794 465.914 608.589 477.179 608.616 488.474C608.488 500.293 609.173 512.106 610.664 523.831C610.712 524.212 610.905 524.559 611.204 524.799C611.503 525.04 611.883 525.155 612.265 525.121C612.647 525.087 613.001 524.906 613.252 524.617C613.503 524.327 613.632 523.951 613.612 523.568C612.848 509.263 613.506 477.803 613.271 454.557C613.155 446.436 612.247 399.364 611.104 387.044L621.782 386.877C620.031 401.688 622.191 420.593 622.328 441.44C622.713 476.032 621.236 488.682 623.833 521.422C623.853 521.817 624.029 522.188 624.322 522.453C624.615 522.718 625.002 522.856 625.397 522.836C625.792 522.816 626.163 522.64 626.429 522.347C626.694 522.054 626.832 521.667 626.812 521.272C624.863 410.877 627.006 442.16 625.078 386.819L633.753 386.683C636.345 386.625 638.812 385.556 640.626 383.704C644.069 380.107 643.417 376.763 643.301 370.101ZM156.013 413.061C156.224 408.924 156.196 404.778 155.928 400.643C155.989 398.448 155.875 396.251 155.586 394.074L193.752 393.487C193.49 399.841 193.619 406.205 194.138 412.543C156.89 413.485 162.374 412.399 156.013 413.061ZM577.262 407.635C580.792 405.993 584.708 405.362 588.575 405.813C588.527 406.281 589.401 419.258 589.5 420.088C585.208 419.419 580.875 419.053 576.532 418.992C576.399 417.242 575.478 408.523 577.262 407.635ZM514.646 408.693C503.443 407.465 501.338 407.717 464.872 405.813C464.82 405.472 463.073 395.009 462.52 391.979C462.367 391.085 462.139 390.206 461.838 389.351L510.712 388.594C511.666 395.359 512.98 402.068 514.646 408.693Z" fill="black"/>
<path d="M604.064 486.028C582.61 503.582 527.396 499.405 501.996 498.855C492.008 498.681 476.969 500.06 468.052 493.054C467.775 492.8 467.408 492.667 467.032 492.683C466.657 492.7 466.303 492.865 466.049 493.143C465.795 493.42 465.662 493.787 465.679 494.163C465.695 494.538 465.86 494.892 466.138 495.146C475.809 505.455 490.025 503.053 506.607 503.554C506.53 506.865 506.741 510.176 507.235 513.45C507.313 514.036 507.615 514.568 508.076 514.936C508.538 515.304 509.124 515.48 509.712 515.426C510.166 515.382 510.616 515.361 511.077 515.321C511.164 518.165 511.405 521.003 511.8 523.821C512.142 525.251 512.903 527.701 514.367 527.575C515.831 527.449 516.223 524.531 516.223 523.415C516.223 522.944 515.882 517.546 515.691 514.986C520.584 514.699 525.485 514.536 530.364 514.222C530.388 514.389 530.412 514.563 530.422 514.723C530.542 516.638 530.822 518.61 531.013 520.525C531.204 522.439 531.767 526.425 533.579 526.394C536.678 526.336 535.384 516.972 534.876 513.874C535.92 513.782 536.964 513.71 538.015 513.597C538.32 513.568 538.614 513.476 538.881 513.327C539.148 513.178 539.38 512.974 539.564 512.73C539.747 512.485 539.878 512.205 539.946 511.907C540.015 511.609 540.021 511.301 539.964 511L538.493 504.336C547.596 504.396 556.695 503.949 565.749 502.998C580.422 501.322 594.987 498.104 606.016 488.28C606.315 488.021 606.498 487.654 606.527 487.26C606.555 486.866 606.425 486.476 606.166 486.178C605.907 485.879 605.541 485.696 605.146 485.667C604.752 485.639 604.363 485.769 604.064 486.028ZM535.398 509.396C526.406 510.079 521.181 509.857 511.51 510.663C511.347 508.316 511.039 505.982 510.589 503.674C518.035 503.926 526.484 504.254 535.302 504.315C535.313 504.67 535.398 509.048 535.398 509.396Z" fill="black"/>
<path d="M231.948 462.689C221.577 469.746 223.444 489.116 237.701 491.293C238.081 491.403 238.488 491.357 238.833 491.166C239.179 490.976 239.435 490.655 239.544 490.276C239.654 489.897 239.608 489.49 239.417 489.144C239.227 488.799 238.906 488.543 238.527 488.433C237.104 487.76 235.791 486.876 234.634 485.809C233.181 484.616 232.011 483.115 231.21 481.414C230.409 479.714 229.996 477.856 230.002 475.976C230.007 474.096 230.431 472.241 231.242 470.545C232.053 468.849 233.231 467.354 234.692 466.17C237.746 463.423 238.012 462.863 237.613 461.952C236.92 460.505 233.323 461.679 231.948 462.689Z" fill="black"/>
<path d="M304.436 500.149C308.276 500.771 312.169 501.008 316.056 500.855C318.144 500.756 322.147 500.002 321.953 498.261C321.786 495.845 314.275 496.347 311.128 496.166C309.074 495.898 307.006 495.75 304.935 495.723C303.699 495.808 301.686 496.32 301.546 497.552C301.406 498.784 303.604 499.954 304.436 500.149Z" fill="black"/>
<path d="M376.31 494.651C378.628 494.286 382.92 492.678 381.794 490.638C380.863 488.949 377.239 490.911 375.573 491.907C373.601 493.088 374.771 494.893 376.31 494.651Z" fill="black"/>
<path d="M381.549 457.472C382.371 457.591 383.183 457.448 383.494 456.673C384.674 453.749 373.454 450.462 372.7 453.261C372.093 455.51 379.259 457.134 381.549 457.472Z" fill="black"/>
<path d="M323.345 515.617C322.881 513.515 322.546 511.4 322.164 509.277C321.721 507.155 321.222 505.059 320.799 502.879C320.751 502.488 320.556 502.13 320.255 501.877C319.954 501.624 319.568 501.494 319.175 501.514C318.786 501.559 318.43 501.754 318.183 502.057C317.935 502.36 317.815 502.748 317.847 503.138C317.618 506.895 317.837 510.666 318.499 514.372C313.426 515.553 308.186 515.843 303.013 515.228C302.672 510.386 302.921 502.602 300.331 502.636C298.529 502.667 298.239 507.55 298.239 508.062C298.101 511.203 298.229 514.351 298.621 517.47C298.667 517.972 298.876 518.444 299.217 518.815C299.559 519.185 300.012 519.432 300.509 519.518C300.894 519.579 301.27 519.586 301.655 519.641C301.38 524.854 301.504 530.08 302.027 535.273C302.164 536.898 302.785 540.495 304.447 540.437C307.644 540.324 306.047 530.54 306.095 520.095C309.282 520.28 312.48 520.098 315.626 519.552C315.498 521.949 315.508 524.35 315.657 526.746C315.766 533.349 315.469 543.201 318.308 543.201C321.147 543.201 320.356 532.803 320.315 529.165C320.226 525.804 320.42 520.934 320.018 518.655C320.574 518.518 321.127 518.429 321.683 518.279C322.25 518.135 322.739 517.778 323.048 517.282C323.358 516.786 323.464 516.19 323.345 515.617Z" fill="black"/>
<path d="M127.546 507.949C126.181 507.868 123.082 508.171 120.97 508.011C115.868 507.554 115.128 505.728 113.804 501.227C113.302 499.521 112.804 499.916 113.899 499.845C117.735 499.637 121.54 499.224 125.372 498.695C125.756 498.641 126.103 498.441 126.343 498.137C126.582 497.833 126.694 497.448 126.656 497.063C126.618 496.677 126.432 496.322 126.137 496.071C125.842 495.82 125.462 495.692 125.075 495.716C119.479 495.951 110.811 495.566 96.8266 495.374C81.6034 495.289 64.0222 497.122 59.6952 483.772C58.5351 478.801 58.8216 473.601 60.521 468.788C60.6062 468.623 60.6581 468.444 60.6738 468.259C60.6895 468.074 60.6687 467.889 60.6127 467.712C60.5566 467.536 60.4663 467.372 60.3469 467.23C60.2275 467.089 60.0815 466.972 59.917 466.887C59.7525 466.802 59.5729 466.75 59.3884 466.734C59.2038 466.718 59.018 466.739 58.8415 466.795C58.665 466.851 58.5013 466.942 58.3597 467.061C58.2181 467.18 58.1014 467.326 58.0162 467.491C56.1877 470.049 54.9977 473.007 54.5454 476.119C54.0932 479.23 54.3919 482.405 55.4166 485.377C56.4413 488.35 58.1622 491.034 60.4358 493.206C62.7093 495.378 65.4695 496.974 68.4858 497.862C77.5391 500.544 86.572 499.91 96.8095 499.91C102.392 499.954 105.157 500.056 109.859 499.961C108.296 505.185 112.067 511.877 120.161 512.481C120.062 515.102 120.107 518.818 120.161 521.183C120.192 522.729 120.264 529.418 122.932 529.175C125.096 528.977 124.761 523.661 124.761 521.862C124.761 521.306 124.761 515.409 124.69 512.492C125.785 512.47 126.875 512.335 127.942 512.089C130.863 511.458 132.719 511.038 132.545 509.523C132.381 508.212 131.382 508.144 127.546 507.949Z" fill="black"/>
</g>
<defs>
<clipPath id="clip0_818_9020">
<rect width="650" height="549.405" fill="white" transform="translate(0 0.476196)"/>
</clipPath>
</defs>
</svg>
