<svg width="540" height="374" viewBox="0 0 540 374" fill="none" xmlns="http://www.w3.org/2000/svg">
<path d="M477.773 123.77C473.14 123.559 467.98 123.964 464.122 120.861C456.022 114.324 463.965 98.4656 451.124 90.4136C464.122 82.3103 453.028 63.9806 463.544 54.1485C465.294 52.4966 467.371 51.2307 469.64 50.4327C471.91 49.6347 474.322 49.3225 476.72 49.5161C478.85 49.743 479.66 46.5449 477.441 46.1667C472.923 45.4846 468.309 46.3809 464.374 48.7046C460.44 51.0282 457.426 54.6374 455.841 58.9241C453.816 64.6693 454.839 70.7468 454.186 76.6677C453.622 81.8484 451.032 87.8233 445.06 88.034C444.579 88.0734 444.127 88.282 443.785 88.6226C443.443 88.9633 443.232 89.4141 443.191 89.8951C443.149 90.3762 443.279 90.8565 443.557 91.251C443.836 91.6455 444.244 91.9287 444.712 92.0505C447.114 92.4697 449.341 93.5847 451.117 95.2574C452.893 96.9301 454.139 99.087 454.702 101.461C456.71 109.024 454.102 120.72 464.179 125.671C468.488 127.564 473.233 128.24 477.9 127.627C478.408 127.561 478.87 127.297 479.184 126.893C479.498 126.488 479.639 125.975 479.577 125.466C479.516 125.019 479.303 124.607 478.975 124.299C478.647 123.99 478.222 123.803 477.773 123.77V123.77ZM525.172 88.2095C518.619 86.6078 515.554 85.0573 516.118 77.3565C516.542 71.5572 518.278 65.8146 517.352 59.964C517.084 57.5902 516.247 55.3161 514.914 53.3346C513.58 51.3531 511.788 49.7227 509.69 48.5815C505.201 46.7296 500.323 46.0214 495.493 46.5206C493.347 46.5206 493.73 49.7781 495.793 49.8132C509.269 50.0266 515.168 53.5327 513.194 68.5265C512.155 76.2814 509.371 85.4976 518.179 90.0247C513.035 93.709 512.595 100.246 513.3 106.061C513.794 110.218 516.224 117.338 511.839 119.964C507.423 122.45 502.406 123.665 497.343 123.475C494.578 123.475 494.983 127.705 497.713 127.74C505.04 127.846 518.057 125.063 518.354 115.918C518.516 111.177 517.088 106.561 517.069 101.82C517.069 97.5743 519.167 91.459 524.502 92.1288C524.97 92.1144 525.418 91.9387 525.771 91.6315C526.124 91.3242 526.359 90.9043 526.438 90.443C526.517 89.9817 526.434 89.5073 526.203 89.1002C525.972 88.6932 525.608 88.3785 525.172 88.2095V88.2095Z" fill="#5E66F6"/>
<path d="M14.4476 78.0075C14.1597 78.2009 13.9238 78.4623 13.7607 78.7685C13.5976 79.0746 13.5123 79.4163 13.5123 79.7632C13.5123 80.1102 13.5976 80.4518 13.7607 80.758C13.9238 81.0642 14.1597 81.3255 14.4476 81.5189C17.9576 83.9499 41.7176 100.408 44.7065 101.342C46.6451 101.942 47.5604 99.5786 46.4696 98.2064C44.8847 96.3723 22.2857 81.7647 19.1159 79.6687C30.3533 71.1737 41.3423 62.4167 51.9992 53.2356C53.7623 51.7203 51.173 49.2893 49.4288 50.7533C49.4288 50.4967 37.1492 61.4848 14.4476 78.0075ZM125.55 76.6866C116.743 69.2154 108.146 61.4254 99.6299 53.603C98.099 52.193 95.7203 54.7833 97.1648 56.2635C104.792 64.0698 112.841 71.4168 121.138 78.5018C115.36 84.1316 109.204 89.3596 102.713 94.1493C93.2363 101.197 99.8945 102.077 101.363 100.791C110.47 92.7907 114.769 90.9242 125.663 80.0684C125.907 79.8555 126.101 79.5908 126.23 79.2937C126.359 78.9966 126.42 78.6744 126.41 78.3506C126.399 78.0268 126.316 77.7095 126.167 77.4217C126.019 77.1339 125.808 76.8828 125.55 76.6866V76.6866ZM86.8211 43.9816C78.1865 59.7075 65.6666 87.0589 57.4775 104.246C54.9233 109.532 58.4981 113.054 62.1107 105.408C67.3946 94.3762 86.8913 52.0336 89.6507 45.2322C90.3257 43.5224 87.6716 42.4339 86.8211 43.9816Z" fill="#5E66F6"/>
<path d="M503.42 217.866C494.861 196.91 483.462 179.099 460.32 172.703C431.274 164.754 385.479 186.025 362.31 203.539C324.44 232.138 328.844 257.334 304.309 289.14C288.649 283.854 264.114 269.476 252.823 265.91C251.737 265.346 250.517 265.091 249.296 265.175C248.075 265.259 246.901 265.678 245.902 266.386C236.655 271.518 226.527 285.134 225.909 295.847C225.733 298.861 225.909 299.812 228.069 301.627C241.191 312.375 261.201 323.333 276.367 331.302C305.745 346.719 321.951 350.347 347.331 326.156C354.537 319.186 361.286 311.758 367.535 303.918C376.342 328.198 381.961 344.056 383.967 366.402C384.11 367.953 386.667 367.775 386.734 366.154C387.175 350.858 376.534 315.759 369.279 301.627C373.833 295.727 377.875 289.449 381.359 282.86C382.082 281.469 379.847 280.11 378.967 281.431C368.115 297.854 360.172 309.236 345.992 322.807C322.531 345.255 309.001 344.496 280.576 329.856C262.625 320.533 245.266 310.11 228.598 298.648C227.999 286.19 241.58 271.793 249.823 267.707C268.334 274.632 285.773 287.09 303.226 292.235C304.285 292.551 304.884 292.776 305.516 292.095C325.79 270.032 327.764 237.751 355.927 212.923C378.826 192.818 428.512 167.46 459.848 175.917C478.464 181.009 489.791 195.406 497.505 212.382C507.387 234.261 518.165 264.576 521.864 288.381C521.909 288.721 522.085 289.031 522.353 289.245C522.621 289.459 522.962 289.56 523.304 289.529C523.645 289.497 523.962 289.334 524.186 289.074C524.41 288.814 524.526 288.478 524.507 288.135C521.861 263.785 512.617 240.382 503.42 217.866Z" fill="#121C3D"/>
<path d="M245.819 260.4C238.669 247.221 244.887 243.856 241.029 237.83C240.343 236.749 238.245 237.511 238.72 238.605C240.64 242.927 236.185 252.702 243.899 262.104C244.887 263.306 246.488 261.629 245.819 260.343V260.4ZM221.16 285.196C216.024 281.853 211.398 277.786 207.422 273.122C204.339 269.387 204.798 267.836 197.945 267.72C192.661 267.58 186.937 269.854 185.617 275.58C185.282 276.99 187.377 277.836 187.777 276.391C189.961 269.605 200.758 269.838 202.713 272.196C207.997 278.576 211.82 283.632 219.394 287.792C221.16 288.77 222.944 286.379 221.16 285.196ZM206.612 258.498C198.59 257.367 190.428 259.143 183.6 263.504C182.439 264.244 183.249 266.11 184.569 265.475C191.312 262.071 198.916 260.754 206.41 261.694C208.497 261.934 208.64 258.787 206.612 258.498V258.498ZM221.778 249.477C219.859 247.36 217.35 245.866 214.575 245.188C211.8 244.51 208.886 244.678 206.207 245.671C204.268 246.676 204.673 248.753 206.982 248.172C209.153 247.469 211.485 247.427 213.68 248.052C215.875 248.677 217.835 249.941 219.31 251.684C220.738 253.25 222.993 251.119 221.708 249.479L221.778 249.477ZM214.731 252.488C214.928 252.582 215.104 252.714 215.249 252.876C215.395 253.039 215.507 253.228 215.58 253.433C215.653 253.639 215.684 253.857 215.672 254.074C215.661 254.292 215.607 254.505 215.513 254.702C215.419 254.899 215.287 255.075 215.125 255.221C214.963 255.366 214.774 255.479 214.568 255.551C214.363 255.624 214.145 255.655 213.927 255.644C213.71 255.632 213.497 255.578 213.3 255.484C206.958 251.557 199.543 252.526 192.534 253.547C191.141 253.758 190.771 251.592 192.04 251.168C199.263 248.788 207.97 248.418 214.72 252.453L214.731 252.488Z" fill="#121C3D"/>
<path d="M133.129 209.149C131.93 208.463 130.275 209.959 131.366 211.016C139.082 218.225 147.218 225.113 155.039 232.284C146.232 232.622 92.5992 234.402 90.6795 235.353C87.5961 234.102 64.9809 215.14 62.7966 212.445C67.5702 212.32 72.36 212.091 77.1525 212.058C77.5648 212.002 77.9396 211.789 78.1992 211.464C78.4588 211.138 78.5833 210.725 78.5468 210.311C78.5104 209.896 78.3158 209.511 78.0034 209.236C77.691 208.961 77.2848 208.817 76.869 208.833C71.1338 208.446 65.3728 208.759 59.7132 209.765C59.4549 209.828 59.217 209.956 59.0223 210.137C58.8277 210.318 58.6827 210.546 58.6014 210.799C58.5201 211.053 58.5052 211.322 58.558 211.583C58.6109 211.844 58.7297 212.086 58.9032 212.288C63.4932 219.157 80.4276 232.055 87.8958 237.73C90.4149 239.65 93.5496 238.17 96.7032 238.1C116.165 237.73 135.734 235.939 155.25 235.739C159.759 235.739 165.361 250.576 153.684 253.447C137.83 257.377 102.956 258.293 87.561 258.172C80.5167 253.04 67.7295 243.07 60.048 236.935C58.9221 236.039 57.3183 237.994 58.428 238.948C64.3464 243.934 85.7466 261.367 86.6106 261.397C102.603 261.818 139.188 261.027 154.794 256.883C165.094 254.142 165.696 243.167 161.274 235.274C157.483 228.468 137.741 211.791 133.129 209.149ZM66.5307 225.693C67.0113 228.889 67.0248 235.053 63.1854 236.549C61.722 237.114 60.8067 234.929 62.0055 234.275C64.2222 233.043 63.3069 227.808 63.3555 225.977C63.345 225.569 63.4902 225.172 63.7617 224.868C64.0331 224.563 64.4104 224.374 64.8167 224.337C65.2231 224.301 65.6279 224.421 65.9488 224.673C66.2698 224.925 66.4827 225.29 66.5442 225.693H66.5307ZM96.8274 243.183C97.3319 245.615 97.0984 248.142 96.1569 250.44C95.2154 252.739 93.6089 254.703 91.5435 256.081C91.2733 256.232 90.9588 256.283 90.6547 256.226C90.3506 256.169 90.0761 256.007 89.879 255.768C89.6819 255.53 89.5747 255.229 89.5759 254.92C89.5771 254.61 89.6867 254.311 89.8857 254.074C91.3735 252.863 92.5142 251.279 93.1918 249.484C93.8695 247.689 94.06 245.746 93.744 243.853C92.7396 239.82 96.2118 240.077 96.8274 243.183Z" fill="#121C3D"/>
<path d="M175.7 264.879C175.046 262.939 171.825 264.225 172.301 268.39C172.9 273.792 177.479 273.025 175.983 270.416C174.488 267.807 176.159 266.235 175.7 264.879Z" fill="#121C3D"/>
<path d="M375.651 183.556C355.649 187.824 335.281 192.032 315.587 196.827C314.021 197.197 314.461 199.963 316.065 199.609C354.901 191.187 372.708 188.877 376.477 186.29C377.781 185.379 377.041 183.259 375.651 183.556ZM268.067 331.037C239.884 340.834 204.657 354.085 177.673 362.737C130.256 331.177 74.5335 296.481 25.1397 266.245C32.6241 263.99 41.3397 261.923 52.5636 259.425C55.4526 258.79 53.6193 256.148 51.4836 256.694C38.7504 259.884 26.3736 262.229 20.6604 264.095C18.9 264.695 18.9 266.102 20.1204 266.983C68.7204 300.476 126.12 333.081 176.72 366.718C178.88 368.163 261.46 336.939 269.06 334.305C271.166 333.562 270.146 330.305 268.067 331.026V331.037ZM173.07 229.194C172.325 226.782 166.428 228.878 164.387 229.969C164.07 230.14 163.828 230.421 163.705 230.759C163.582 231.097 163.588 231.468 163.722 231.802C163.855 232.136 164.107 232.409 164.429 232.569C164.751 232.729 165.12 232.765 165.467 232.67C168.672 232.154 173.758 231.468 173.07 229.194Z" fill="#121C3D"/>
<path d="M417.587 145.338C418.365 138.658 420.196 117.144 414.277 98.6602C407.441 77.3025 383.189 67.5056 370.718 83.534C338.237 77.3214 320.169 89.7735 320.228 96.8909C320.371 116.115 358.609 121.26 365.934 131.341C366.096 132.662 368.331 132.397 368.245 131.071C367.818 124.021 377.279 123.494 376.593 139.458C376.415 143.653 374.83 146.699 375.343 148.055C375.856 149.411 378.313 151.335 379.48 142.769C383.084 147.734 388.045 151.552 393.765 153.766C398.15 155.157 412.125 150.894 416.224 148.479C418.775 153.766 421.311 159.052 423.884 164.338C425.982 168.659 429.014 167.333 426.703 162.893C426.694 162.609 417.731 145.608 417.587 145.338ZM391.449 179.486C391.598 179.796 391.628 180.151 391.533 180.483C391.437 180.814 391.223 181.098 390.931 181.282C390.639 181.465 390.289 181.534 389.949 181.476C389.61 181.417 389.303 181.236 389.089 180.966C387.376 178.547 385.789 176.041 384.334 173.459C368.944 176.034 363.795 166.096 359.675 154.079C346.694 154.43 360.31 149.725 349.934 127.381C349.372 126.201 350.992 125.109 351.694 126.301C356.04 133.857 357.669 142.674 356.311 151.286C359.656 151.761 361.33 150.9 361.805 152.396C370.445 180.026 384.051 167.763 386.254 171.163C388.13 173.844 389.864 176.622 391.449 179.486V179.486Z" fill="#121C3D"/>
<path d="M176.934 274.746C166.347 278.946 142.644 290.234 132.511 291.536C121.943 292.913 120.058 280.313 128.882 277.141C145.457 271.185 163.002 267.396 178.694 259.133C183.152 256.791 174.485 255.622 167.157 253.407C163.336 263.185 116.078 264.192 106.267 264.384L122.807 271.556C124.057 272.096 122.982 273.916 121.748 273.317L100.44 264.506C91.9863 264.611 85.5738 264.506 84.7287 264.4C82.3851 264.014 68.5422 254.946 61.4601 246.94C58.131 249.477 56.3517 259.114 58.995 262.48C61.4088 265.546 102.835 287.484 120.801 292.965C132.141 296.489 135.842 294.726 147.909 290.182C158.185 286.325 168.348 282.213 178.397 277.846C178.795 277.645 179.099 277.295 179.244 276.873C179.389 276.45 179.364 275.988 179.173 275.584C178.982 275.18 178.642 274.866 178.223 274.71C177.805 274.553 177.343 274.566 176.934 274.746V274.746Z" fill="#5E66F6"/>
<path d="M106.831 182.73C100.402 182.73 97.6509 176.895 88.5492 180.72C79.4475 184.545 79.9092 206.764 91.1898 214.87C95.6705 218.009 101.008 219.693 106.479 219.693C111.949 219.693 117.287 218.009 121.767 214.87C128.074 209.865 132.97 195.873 128.812 187.732C121.837 174.378 112.749 182.73 106.831 182.73Z" fill="#5E66F6"/>
<path d="M112.504 166.869C109.912 168.284 105.457 176.069 105.246 180.191C105.216 180.511 105.307 180.83 105.502 181.087C105.696 181.343 105.979 181.517 106.295 181.575C106.612 181.632 106.938 181.569 107.21 181.398C107.482 181.227 107.68 180.96 107.765 180.65C109.774 173.6 113.594 170.499 114.178 167.954C114.404 167.028 113.249 166.472 112.504 166.869Z" fill="#121C3D"/>
<path d="M336.282 220.764C327.254 214.622 317.84 209.066 308.1 204.13C306.779 190.719 296.987 116.712 296.02 112.009C295.053 107.306 295.191 105.84 286.84 105.84C278.489 105.84 163.809 124.572 159.97 124.572C156.13 124.572 152.466 126.333 155.461 135.144C158.331 143.601 174.941 224.129 177.212 233.627C178.041 237.138 188.698 245.803 191.692 248.499C193.347 249.979 195.672 247.443 194.017 245.963C189.524 241.943 185.085 237.873 180.63 233.84C207.614 228.324 290.134 209.716 305.861 205.646C306.145 206.186 331.225 221.504 334.481 223.389C334.844 223.549 335.252 223.574 335.631 223.459C336.011 223.344 336.336 223.097 336.549 222.763C336.762 222.428 336.848 222.029 336.792 221.636C336.735 221.244 336.54 220.884 336.242 220.623L336.282 220.764ZM325.715 230.58C319.586 225.61 312.541 221.415 305.934 216.993C274.601 224.94 243.689 232.692 211.974 239.231C210.214 239.583 209.968 236.992 211.604 236.606C242.236 229.326 272.16 222.385 302.738 214.562C307.476 213.347 307.916 214.703 312.215 217.533C317.814 221.199 323.347 224.581 328.666 228.74C331.366 230.801 330.92 232.252 328.666 232.986C312.004 238.008 267.017 251.54 252.029 254.52C250.39 254.836 250.039 252.564 251.519 252.051C275.049 243.983 301.577 237.568 325.671 230.591L325.715 230.58ZM312.736 266.648C310.646 265.429 287.793 273.152 285.414 274.481C285.113 274.676 284.891 274.971 284.787 275.314C284.682 275.657 284.703 276.026 284.844 276.356C284.986 276.685 285.24 276.954 285.561 277.114C285.881 277.274 286.249 277.315 286.597 277.231C290.107 276.172 312.247 270.535 313.281 268.541C313.451 268.217 313.49 267.84 313.388 267.489C313.286 267.137 313.053 266.839 312.736 266.656V266.648ZM183.06 224.508C182.107 217.795 168.369 157.936 163.685 131.381C168.969 130.377 249.34 119.364 289.356 114.024C290.185 116.863 300.893 185.655 301.898 197.337C299.136 198.345 187.853 222.533 183.06 224.508Z" fill="#121C3D"/>
<path d="M192.82 139.223C188.257 139.55 183.75 140.431 179.399 141.848C178.165 142.288 178.589 144.385 179.939 144.174C184.326 143.469 188.746 142.853 193.096 142.253C193.295 142.236 193.488 142.179 193.665 142.086C193.842 141.994 193.999 141.867 194.127 141.714C194.255 141.561 194.352 141.384 194.412 141.193C194.472 141.003 194.493 140.802 194.476 140.603C194.458 140.404 194.401 140.21 194.309 140.033C194.216 139.856 194.09 139.699 193.936 139.571C193.783 139.443 193.606 139.346 193.416 139.286C193.225 139.227 193.025 139.205 192.826 139.223H192.82ZM176.685 68.1835C172.238 68.794 167.881 69.3801 163.353 70.0743C163.054 70.1115 162.779 70.2565 162.58 70.4821C162.381 70.7077 162.271 70.9983 162.271 71.2993C162.271 71.6002 162.381 71.8908 162.58 72.1164C162.779 72.342 163.054 72.487 163.353 72.5242C167.955 72.5685 172.551 72.1614 177.074 71.3087C177.282 71.2857 177.483 71.2216 177.666 71.1202C177.849 71.0187 178.01 70.8819 178.14 70.7177C178.27 70.5535 178.365 70.3652 178.422 70.1636C178.478 69.9621 178.494 69.7513 178.468 69.5436C178.442 69.3359 178.376 69.1354 178.272 68.9538C178.168 68.7721 178.029 68.6128 177.863 68.4853C177.697 68.3578 177.508 68.2645 177.306 68.2108C177.103 68.1571 176.893 68.1442 176.685 68.1727V68.1835ZM185.652 94.8246C184.418 93.6982 172.581 96.059 170.697 96.8153C169.552 97.2745 169.835 99.3895 171.121 99.2652C173.059 99.0707 185.088 97.9795 185.952 96.71C186.14 96.4152 186.214 96.0612 186.159 95.7155C186.104 95.3699 185.923 95.0566 185.652 94.8354V94.8246ZM172.511 35.7783C167.582 36.3965 162.699 37.3385 157.893 38.5983C156.379 39.0034 156.959 41.2994 158.433 41.2237C159.907 41.1481 171.785 39.333 172.93 37.9284C173.066 37.769 173.164 37.5809 173.217 37.3782C173.271 37.1755 173.277 36.9633 173.237 36.7576C173.197 36.5519 173.111 36.3579 172.985 36.1902C172.859 36.0225 172.697 35.8854 172.511 35.7891V35.7783ZM167.773 18.8558C163.22 19.1827 158.724 20.0699 154.389 21.4975C153.136 21.9378 153.56 24.0366 154.929 23.8232C159.276 23.1425 163.656 22.5122 168.07 21.9324C168.273 21.9169 168.472 21.861 168.654 21.768C168.835 21.675 168.997 21.5467 169.129 21.3907C169.26 21.2346 169.36 21.0538 169.421 20.8589C169.482 20.664 169.504 20.4588 169.485 20.2554C169.467 20.0519 169.408 19.8543 169.312 19.6739C169.216 19.4935 169.085 19.3341 168.927 19.2048C168.768 19.0756 168.586 18.9791 168.39 18.921C168.194 18.863 167.989 18.8445 167.786 18.8666L167.773 18.8558ZM203.477 188.891C198.998 189.073 194.559 189.819 190.266 191.111C189.985 191.23 189.756 191.445 189.619 191.717C189.482 191.99 189.446 192.303 189.518 192.599C189.59 192.896 189.765 193.157 190.012 193.336C190.259 193.515 190.562 193.601 190.866 193.577C195.147 192.789 199.477 192.288 203.826 192.078C204.041 192.063 204.251 192.004 204.443 191.905C204.635 191.807 204.805 191.671 204.943 191.505C205.081 191.339 205.184 191.147 205.247 190.94C205.309 190.734 205.329 190.517 205.305 190.302C205.281 190.088 205.215 189.88 205.109 189.692C205.003 189.504 204.861 189.339 204.69 189.207C204.519 189.075 204.323 188.979 204.114 188.925C203.906 188.871 203.688 188.859 203.475 188.891H203.477ZM182.938 158.908C181.408 159.297 181.988 161.61 183.478 161.534C184.969 161.458 196.83 159.643 197.975 158.241C198.106 158.082 198.201 157.896 198.251 157.695C198.301 157.495 198.307 157.286 198.266 157.084C198.226 156.881 198.141 156.69 198.018 156.525C197.895 156.359 197.736 156.223 197.554 156.126C192.615 156.663 187.727 157.598 182.938 158.922V158.908Z" fill="#121C3D"/>
<path d="M261.32 55.8584C261.05 55.8584 212.18 62.4653 190.779 65.9038C190.477 65.9265 190.196 66.0679 189.998 66.297C189.799 66.5262 189.7 66.8245 189.72 67.1269C189.741 67.4294 189.881 67.7113 190.108 67.9113C190.336 68.1113 190.633 68.2131 190.936 68.1944C209.623 67.1707 243.073 60.4935 262.324 58.8026C264.314 58.6243 263.293 55.5937 261.32 55.8584Z" fill="#5E66F6"/>
<path d="M231.66 45.1214C231.584 44.7753 231.389 44.4667 231.11 44.2492C230.83 44.0316 230.483 43.9188 230.129 43.9302C230.129 43.6601 193.166 49.3648 188.49 50.9531C187.118 51.4096 187.823 53.403 189.07 53.2436C202.686 51.4825 217.01 49.5701 230.502 46.9365C230.698 46.8953 230.884 46.8154 231.049 46.7013C231.214 46.5873 231.354 46.4415 231.462 46.2725C231.57 46.1034 231.643 45.9145 231.677 45.7169C231.711 45.5192 231.705 45.3167 231.66 45.1214V45.1214Z" fill="#5E66F6"/>
<path d="M247.968 74.1476C244.377 74.1476 198.731 81.2056 194.238 81.9187C192.726 82.1672 193.622 84.4928 194.978 84.3686C209.209 83.118 233.858 78.5531 247.96 77.0405C249.61 76.8784 249.731 73.9531 247.968 74.1476Z" fill="#5E66F6"/>
<path d="M251.37 23.472C233.334 26.9025 200.04 30.5192 182.957 34.1495C181.778 34.3953 182.218 36.5994 183.327 36.4212C203.812 33.1987 241.628 28.4934 251.845 26.5189C253.784 26.1326 253.306 23.102 251.37 23.472Z" fill="#5E66F6"/>
<path d="M249.553 6.56574L249.502 6.51172C227.607 10.0232 201.242 13.2645 179.134 17.0839C177.833 17.2946 178.168 19.4987 179.472 19.3744C201.029 17.3324 228.506 12.908 250.015 9.50725C251.67 9.25065 251.23 6.29563 249.553 6.56574Z" fill="#5E66F6"/>
<path d="M272.627 83.5474V83.6176C248.867 87.0291 222.323 91.1105 198.315 94.622C196.663 94.8678 196.819 97.423 198.528 97.2474C221.179 94.9029 251 89.6168 273.245 86.443C275.006 86.2026 274.247 83.3286 272.627 83.5474Z" fill="#5E66F6"/>
<path d="M283.441 173.224C262.232 178.057 238.054 182.052 214.925 187.567C214.776 187.589 214.633 187.64 214.504 187.718C214.374 187.795 214.262 187.897 214.172 188.018C214.082 188.139 214.017 188.277 213.98 188.423C213.943 188.569 213.935 188.721 213.957 188.87C213.979 189.02 214.031 189.163 214.108 189.292C214.185 189.422 214.287 189.535 214.408 189.625C214.529 189.714 214.667 189.78 214.813 189.816C214.959 189.853 215.111 189.861 215.26 189.839C233.825 187.408 265.812 179.707 284.675 176.079C286.632 175.68 285.39 172.771 283.441 173.224Z" fill="#5E66F6"/>
<path d="M277.684 189.072C258.101 192.996 238.599 197.175 219.094 201.408C217.49 201.759 218.09 204.033 219.675 203.839C237.535 201.529 260.064 196.006 277.995 191.927C279.428 191.592 279.428 188.723 277.684 189.072Z" fill="#5E66F6"/>
<path d="M255.382 167.328C255.751 167.248 256.077 167.033 256.296 166.724C256.515 166.416 256.611 166.038 256.565 165.663C256.519 165.287 256.334 164.943 256.048 164.697C255.761 164.451 255.393 164.321 255.015 164.332C255.015 164.062 218.079 169.735 213.359 171.355C212.009 171.795 212.706 173.802 213.956 173.627C227.572 171.858 241.893 169.951 255.382 167.328Z" fill="#5E66F6"/>
<path d="M249.307 99.9108C233.696 102.11 216.599 104.897 201.115 107.822C199.778 108.092 200.219 110.359 201.539 110.183C212.971 108.757 234.884 105.108 249.785 102.553C251.278 102.291 250.83 99.6947 249.307 99.9108Z" fill="#5E66F6"/>
<path d="M274.59 126.941L274.606 126.89C252.307 129.05 226.29 133.602 204.152 137.462C202.867 137.672 203.202 139.874 204.506 139.752C226.047 137.707 253.106 133.021 275.049 129.866C276.699 129.637 276.275 126.765 274.59 126.941Z" fill="#5E66F6"/>
<path d="M276.396 143.804C275.003 144.884 208.202 154.495 207.932 154.535C206.736 154.711 207.195 156.966 208.286 156.826C230.761 153.99 266.606 148.898 276.804 146.905C278.829 146.483 278.351 143.434 276.396 143.804Z" fill="#5E66F6"/>
</svg>
