<svg width="60" height="60" viewBox="0 0 60 60" fill="none" xmlns="http://www.w3.org/2000/svg">
<rect x="1" y="1" width="58" height="58" rx="29" stroke="white" stroke-width="2"/>
<path d="M36.6666 46.7114V41.928C36.7291 41.1334 36.6218 40.3344 36.3516 39.5844C36.0814 38.8344 35.6548 38.1504 35.0999 37.578C40.3333 36.9947 45.8333 35.0114 45.8333 25.9114C45.8328 23.5844 44.9378 21.3467 43.3333 19.6614C44.0929 17.6255 44.0393 15.3753 43.1833 13.378C43.1833 13.378 41.2166 12.7947 36.6666 15.8447C32.8466 14.8094 28.8199 14.8094 24.9999 15.8447C20.4499 12.7947 18.4833 13.378 18.4833 13.378C17.6272 15.3753 17.5735 17.6255 18.3333 19.6614C16.7168 21.3592 15.8208 23.6171 15.8333 25.9614C15.8333 34.9947 21.3332 36.978 26.5666 37.628C26.0182 38.1947 25.5954 38.8704 25.3254 39.6112C25.0555 40.352 24.9446 41.1415 24.9999 41.928V46.7114" stroke="white" stroke-width="2" stroke-linecap="round" stroke-linejoin="round"/>
<path d="M25 43.3778C20 44.9998 15.8334 43.3778 13.3334 38.3778" stroke="white" stroke-width="2" stroke-linecap="round" stroke-linejoin="round"/>
</svg>
