<svg width="48" height="48" viewBox="0 0 48 48" fill="none" xmlns="http://www.w3.org/2000/svg">
<path opacity="0.33" d="M26 23.7143C26 22.7675 26.7675 22 27.7143 22H36.2857C37.2325 22 38 22.7675 38 23.7143V28C38 31.3137 35.3137 34 32 34C28.6863 34 26 31.3137 26 28V23.7143Z" fill="#D92D20"/>
<path opacity="0.33" d="M10 23.7143C10 22.7675 10.7675 22 11.7143 22H20.2857C21.2325 22 22 22.7675 22 23.7143V28C22 31.3137 19.3137 34 16 34C12.6863 34 10 31.3137 10 28V23.7143Z" fill="#D92D20"/>
<path d="M16 23C16 21.3431 17.3431 20 19 20H29C30.6569 20 32 21.3431 32 23V30C32 34.4183 28.4183 38 24 38C19.5817 38 16 34.4183 16 30V23Z" fill="#D92D20"/>
<path d="M19.2 11.6L23.2 16.9333C23.6 17.4667 24.4 17.4667 24.8 16.9333L28.8 11.6C29.2944 10.9408 28.824 10 28 10H20C19.176 10 18.7056 10.9408 19.2 11.6Z" fill="#D92D20"/>
<path opacity="0.33" d="M29.0365 16.4453L31.1679 13.2481C31.5638 12.6543 32.4362 12.6543 32.8321 13.2481L34.9635 16.4453C35.4066 17.1099 34.9302 18 34.1315 18H29.8685C29.0698 18 28.5934 17.1099 29.0365 16.4453Z" fill="#D92D20"/>
<path opacity="0.33" d="M13.0365 16.4453L15.1679 13.2481C15.5638 12.6543 16.4362 12.6543 16.8321 13.2481L18.9635 16.4453C19.4066 17.1099 18.9302 18 18.1315 18H13.8685C13.0698 18 12.5934 17.1099 13.0365 16.4453Z" fill="#D92D20"/>
</svg>
