<svg width="73" height="72" viewBox="0 0 73 72" fill="none" xmlns="http://www.w3.org/2000/svg">
<circle cx="36.5" cy="36" r="33" fill="#111111"/>
<path opacity="0.33" d="M39.5 35.5714C39.5 34.1513 40.6513 33 42.0714 33H54.9286C56.3487 33 57.5 34.1513 57.5 35.5714V42C57.5 46.9706 53.4706 51 48.5 51C43.5294 51 39.5 46.9706 39.5 42V35.5714Z" fill="#D92D20"/>
<path opacity="0.33" d="M15.5 35.5714C15.5 34.1513 16.6513 33 18.0714 33H30.9286C32.3487 33 33.5 34.1513 33.5 35.5714V42C33.5 46.9706 29.4706 51 24.5 51C19.5294 51 15.5 46.9706 15.5 42V35.5714Z" fill="#D92D20"/>
<path d="M24.5 34.5C24.5 32.0147 26.5147 30 29 30H44C46.4853 30 48.5 32.0147 48.5 34.5V45C48.5 51.6274 43.1274 57 36.5 57C29.8726 57 24.5 51.6274 24.5 45V34.5Z" fill="#D92D20"/>
<path d="M29.3 17.4L35.3 25.4C35.9 26.2 37.1 26.2 37.7 25.4L43.7 17.4C44.4416 16.4111 43.7361 15 42.5 15H30.5C29.2639 15 28.5584 16.4111 29.3 17.4Z" fill="#D92D20"/>
<path opacity="0.33" d="M44.0547 24.6679L47.2519 19.8721C47.8457 18.9815 49.1543 18.9815 49.7481 19.8721L52.9453 24.6679C53.6099 25.6648 52.8953 27 51.6972 27H45.3028C44.1047 27 43.3901 25.6648 44.0547 24.6679Z" fill="#D92D20"/>
<path opacity="0.33" d="M20.0547 24.6679L23.2519 19.8721C23.8457 18.9815 25.1543 18.9815 25.7481 19.8721L28.9453 24.6679C29.6099 25.6648 28.8953 27 27.6972 27H21.3028C20.1047 27 19.3901 25.6648 20.0547 24.6679Z" fill="#D92D20"/>
</svg>
