<svg width="26" height="34" viewBox="0 0 26 34" fill="none" xmlns="http://www.w3.org/2000/svg">
<path d="M16 21V19.125C16 17.3927 14.6631 16 13 16C11.3369 16 10 17.3927 10 19.125V21" stroke="#D92D20" stroke-width="2" stroke-linecap="round" stroke-linejoin="round"/>
<path d="M16.6 29H9.4C8.76348 29 8.15303 28.7592 7.70294 28.3305C7.25286 27.9019 7 27.3205 7 26.7143V23.2857C7 22.6795 7.25286 22.0981 7.70294 21.6695C8.15303 21.2408 8.76348 21 9.4 21H16.6C17.2365 21 17.847 21.2408 18.2971 21.6695C18.7471 22.0981 19 22.6795 19 23.2857V26.7143C19 27.3205 18.7471 27.9019 18.2971 28.3305C17.847 28.7592 17.2365 29 16.6 29Z" fill="#D92D20"/>
<path d="M25 14.3269V29.3077C25 30.287 24.6207 31.2261 23.9456 31.9185C23.2705 32.611 22.3548 33 21.4 33H4.6C3.64522 33 2.72955 32.611 2.05442 31.9185C1.37928 31.2261 1 30.287 1 29.3077V4.69231C1 3.71305 1.37928 2.77389 2.05442 2.08145C2.72955 1.38901 3.64522 1 4.6 1H12.0063C12.6425 1.0001 13.2528 1.25935 13.7028 1.72077L24.2973 12.5869C24.7471 13.0484 24.9999 13.6743 25 14.3269Z" stroke="#D92D20" stroke-width="2" stroke-linejoin="round"/>
<path d="M13 2V10.7597C13 11.3538 13.2575 11.9237 13.7158 12.3438C14.1742 12.764 14.7958 13 15.444 13H25" stroke="#D92D20" stroke-width="2" stroke-linecap="round" stroke-linejoin="round"/>
</svg>
