<svg width="26" height="26" viewBox="0 0 26 26" fill="none" xmlns="http://www.w3.org/2000/svg">
<path d="M13 1C10.6266 1 8.30655 1.70379 6.33316 3.02236C4.35977 4.34094 2.8217 6.21508 1.91345 8.4078C1.0052 10.6005 0.767559 13.0133 1.23058 15.3411C1.6936 17.6689 2.83649 19.807 4.51472 21.4853C6.19295 23.1635 8.33115 24.3064 10.6589 24.7694C12.9867 25.2324 15.3995 24.9948 17.5922 24.0865C19.7849 23.1783 21.6591 21.6402 22.9776 19.6668C24.2962 17.6935 25 15.3734 25 13C25 9.8174 23.7357 6.76515 21.4853 4.51472C19.2348 2.26428 16.1826 1 13 1Z" stroke="#D92D20" stroke-width="2" stroke-miterlimit="10"/>
<path d="M9 9.20979C9 9.20979 9.06 7.94175 10.3979 6.84978C11.1914 6.20126 12.1429 6.01359 13 6.00055C13.7807 5.99041 14.4779 6.12156 14.895 6.323C15.6093 6.6679 17 7.50989 17 9.30037C17 11.1843 15.7857 12.0401 14.4021 12.9813C13.0186 13.9226 12.6429 14.9443 12.6429 16" stroke="#D92D20" stroke-width="2" stroke-miterlimit="10" stroke-linecap="round"/>
<path d="M12.5 20C13.3284 20 14 19.5523 14 19C14 18.4477 13.3284 18 12.5 18C11.6716 18 11 18.4477 11 19C11 19.5523 11.6716 20 12.5 20Z" fill="#D92D20"/>
</svg>
