<svg width="20" height="20" viewBox="0 0 20 20" fill="none" xmlns="http://www.w3.org/2000/svg">
<g clip-path="url(#clip0_19_317)">
<path d="M9.43436 0.00970392C7.78023 0.0911873 6.1728 0.585392 4.7586 1.44727C3.34441 2.30914 2.16842 3.51127 1.33785 4.94408C0.507274 6.37688 0.0485309 7.99479 0.00343569 9.65031C-0.0416595 11.3058 0.328328 12.9463 1.07967 14.4222L0.0265451 19.5341C0.0134363 19.5976 0.0165696 19.6635 0.0356552 19.7255C0.0547408 19.7876 0.0891622 19.8438 0.135735 19.889C0.182309 19.9342 0.239529 19.9669 0.302104 19.9841C0.364679 20.0014 0.430588 20.0025 0.493733 19.9875L5.5028 18.8C6.8603 19.4751 8.35449 19.8301 9.87059 19.8377C11.3867 19.8453 12.8843 19.5052 14.2485 18.8437C15.6127 18.1822 16.8071 17.2167 17.74 16.0216C18.6728 14.8265 19.3194 13.4334 19.6299 11.9494C19.9403 10.4654 19.9066 8.93002 19.5311 7.46113C19.1556 5.99224 18.4485 4.62896 17.464 3.476C16.4794 2.32304 15.2437 1.41109 13.8518 0.8102C12.4598 0.209308 10.9487 -0.0645361 9.43436 0.00970392ZM15.4112 15.4094C14.2607 16.5595 12.7782 17.3196 11.1728 17.5825C9.56731 17.8455 7.91983 17.598 6.46248 16.875L5.76498 16.5275L2.69373 17.2544L3.3403 14.1163L2.99655 13.4431C2.25322 11.9813 1.9913 10.3218 2.24827 8.70205C2.50523 7.08231 3.2679 5.58535 4.42717 4.42533C5.88375 2.96875 7.85929 2.15046 9.9192 2.15046C11.9791 2.15046 13.9547 2.96875 15.4112 4.42533C16.8678 5.88191 17.6861 7.85745 17.6861 9.91736C17.6861 11.9773 16.8678 13.9528 15.4112 15.4094Z" fill="white"/>
<path d="M14.7334 12.0684L12.8124 11.5169C12.6884 11.4814 12.5571 11.4802 12.4324 11.5132C12.3077 11.5462 12.1943 11.6122 12.104 11.7044L11.6353 12.1828C11.5385 12.2819 11.4146 12.35 11.2792 12.3786C11.1437 12.4072 11.0028 12.395 10.8743 12.3434C9.96338 11.975 8.05151 10.275 7.56244 9.42501C7.49384 9.30471 7.46248 9.16677 7.47233 9.02864C7.48217 8.89051 7.53279 8.75841 7.61776 8.64907L8.02776 8.11782C8.10664 8.01576 8.1565 7.89429 8.17207 7.76624C8.18763 7.63819 8.16833 7.50831 8.11619 7.39032L7.30869 5.56251C7.26358 5.46063 7.19533 5.37069 7.10937 5.29981C7.0234 5.22893 6.9221 5.17907 6.81349 5.1542C6.70489 5.12932 6.59199 5.13011 6.48374 5.15651C6.3755 5.18291 6.2749 5.23418 6.18994 5.30626C5.65369 5.75969 5.01744 6.44907 4.93994 7.21251C4.80369 8.55876 5.38088 10.2556 7.56494 12.2931C10.0871 14.6475 12.1068 14.9581 13.4221 14.6397C14.1681 14.4591 14.764 13.7334 15.1409 13.1419C15.2008 13.0479 15.2379 12.9412 15.2494 12.8303C15.2608 12.7195 15.2462 12.6075 15.2068 12.5032C15.1674 12.399 15.1041 12.3054 15.0222 12.2298C14.9402 12.1543 14.8417 12.0989 14.7346 12.0681L14.7334 12.0684Z" fill="white"/>
</g>
<defs>
<clipPath id="clip0_19_317">
<rect width="20" height="20" fill="white"/>
</clipPath>
</defs>
</svg>
